{
classes = (
{
automatic = 1;
code = "A AE AEacute Aacute Abreve Acircumflex Adieresis Agrave Amacron Aogonek Aring Aringacute Atilde B C Cacute Ccaron Ccedilla Ccircumflex Cdotaccent D Dcaron Dcroat E Eacute Ebreve Ecaron Ecircumflex Edieresis Edotaccent Egrave Emacron Eng Eogonek Eth Etilde F G G.alt Gbreve Gcircumflex Gcommaaccent Gdotaccent H Hbar Hcircumflex I IJ J Iacute Ibreve Icircumflex Idieresis Idotaccent Igrave Imacron Iogonek Itilde Jcircumflex K Kcommaaccent L Lacute Lcaron Lcommaaccent Ldot Lslash M N Nacute Ncaron Ncommaaccent Ndotaccent Ntilde O OE Oacute Obreve Ocircumflex Odieresis Ograve Ohungarumlaut Omacron Oogonek Oslash Oslashacute Otilde P Q R Racute Rcaron Rcommaaccent S Sacute Scaron Scircumflex T Tbar Tcaron Thorn U Uacute Ubreve Ucircumflex Udieresis Ugrave Uhungarumlaut Umacron Uogonek Uring Utilde V W Wacute Wcircumflex Wdieresis Wgrave X Y Yacute Ycircumflex Ydieresis Ygrave Ytilde Z Zacute Zcaron Zdotaccent uni015E uni0162 uni0218 uni021A W.ss02";
name = Uppercase;
}
);
copyright = "It is a display face that features both old style and lining numerals, standard and discretionary ligatures, a pretty complete set of diacritics, as well as a stylistic alternate inspired by more geometric sans-serif typefaces than it's neo-grotesque inspired default character set.";
customParameters = (
{
name = description;
value = "It is a display face that features both old style and lining numerals, standard and discretionary ligatures, a pretty complete set of diacritics, as well as a stylistic alternate inspired by more geometric sans-serif typefaces than it's neo-grotesque inspired default character set.";
},
{
name = license;
value = "This Font Software is licensed under the SIL Open Font License, Version 1.1. This license is available with a FAQ at: http://scripts.sil.org/OFL";
},
{
name = licenseURL;
value = "http://scripts.sil.org/OFL";
},
{
name = glyphOrder;
value = (
    ".notdef",
    A,
    "A.sc",
    AE,
    AEacute,
    acute,

glyphs = (
{
glyphname = A;
layers = (
{
layerId = "AC509B01-5F4C-4AA2-97FB-92B74F0D1424";
name = Bold;
paths = (
{
closed = 1;
nodes = (
"127 0 LINE",
"201 193 LINE",
"475 193 LINE",
"551 0 LINE",
"670 0 LINE",
"385 710 LINE",
"293 710 LINE",
"7 0 LINE"
);
},
{
closed = 1;
nodes = (
"453 276 LINE",
"221 276 LINE",
"339 585 LINE"
);
}
);
width = 676;
}
);
unicode = 0041;
},
{
glyphname = A.sc;
layers = (
{
layerId = "AC509B01-5F4C-4AA2-97FB-92B74F0D1424";
name = Bold;
paths = (
{
closed = 1;
nodes = (
"115 0 LINE",
"178 144 LINE",
"412 144 LINE",
"476 0 LINE",
"581 0 LINE",
"336 555 LINE",
"255 555 LINE",
"8 0 LINE"
);
},
{
closed = 1;
nodes = (
"388 230 LINE",
"200 230 LINE",
"295 433 LINE"
);
}
);
width = 591;
}
);
},
{
glyphname = AE;
layers = (
{
layerId = "AC509B01-5F4C-4AA2-97FB-92B74F0D1424";
name = Bold;
paths = (
{
closed = 1;
nodes = (
"-9 0 LINE",
"112 0 LINE",
"230 193 LINE",
"469 193 LINE",
"469 0 LINE",
"945 0 LINE",
"945 99 LINE",
"581 99 LINE",
"581 312 LINE",
"882 312 LINE",
"882 411 LINE",
"581 411 LINE",
"581 611 LINE",
"936 611 LINE",
"936 710 LINE",
"439 710 LINE"
);
},
{
closed = 1;
nodes = (
"279 293 LINE",
"461 581 LINE",
"461 293 LINE"
);
}
);
width = 985;
}
);
unicode = 00C6;
},
{
glyphname = AEacute;
layers = (
{
layerId = "AC509B01-5F4C-4AA2-97FB-92B74F0D1424";
name = Bold;
paths = (
{
closed = 1;
nodes = (
"683 916 LINE",
"578 916 LINE",
"521 806 LINE",
"593 784 LINE"
);
},
{
closed = 1;
nodes = (
"-9 0 LINE",
"112 0 LINE",
"230 193 LINE",
"469 193 LINE",
"469 0 LINE",
"945 0 LINE",
"945 99 LINE",
"581 99 LINE",
"581 312 LINE",
"882 312 LINE",
"882 411 LINE",
"581 411 LINE",
"581 611 LINE",
"936 611 LINE",
"936 710 LINE",
"439 710 LINE"
);
},
{
closed = 1;
nodes = (
"279 293 LINE",
"461 581 LINE",
"461 293 LINE"
);
}
);
width = 985;
}
);
unicode = 01FC;
},
{
glyphname = acute;
layers = (
{
layerId = "AC509B01-5F4C-4AA2-97FB-92B74F0D1424";
name = Bold;
paths = (
{
closed = 1;
nodes = (
"209 730 LINE",
"104 730 LINE",
"47 620 LINE",
"119 598 LINE"
);
}
);
width = 243;
}
);
unicode = 00B4;
},
{
glyphname = Aacute;
layers = (
{
layerId = "AC509B01-5F4C-4AA2-97FB-92B74F0D1424";
name = Bold;
paths = (
{
closed = 1;
nodes = (
"127 0 LINE",
"201 193 LINE",
"475 193 LINE",
"551 0 LINE",
"670 0 LINE",
"385 710 LINE",
"293 710 LINE",
"7 0 LINE"
);
},
{
closed = 1;
nodes = (
"453 276 LINE",
"221 276 LINE",
"339 585 LINE"
);
},
{
closed = 1;
nodes = (
"454 916 LINE",
"349 916 LINE",
"292 806 LINE",
"364 784 LINE"
);
}
);
width = 676;
}
);
unicode = 00C1;
},
{
glyphname = Abreve;
layers = (
{
layerId = "AC509B01-5F4C-4AA2-97FB-92B74F0D1424";
name = Bold;
paths = (
{
closed = 1;
nodes = (
"127 0 LINE",
"201 193 LINE",
"475 193 LINE",
"551 0 LINE",
"670 0 LINE",
"385 710 LINE",
"293 710 LINE",
"7 0 LINE"
);
},
{
closed = 1;
nodes = (
"453 276 LINE",
"221 276 LINE",
"339 585 LINE"
);
},
{
closed = 1;
nodes = (
"308 845 OFFCURVE",
"281 878 OFFCURVE",
"281 916 CURVE",
"220 916 LINE",
"220 846 OFFCURVE",
"271 794 OFFCURVE",
"339 794 CURVE SMOOTH",
"407 794 OFFCURVE",
"458 846 OFFCURVE",
"458 916 CURVE",
"397 916 LINE",
"393 875 OFFCURVE",
"368 845 OFFCURVE",
"339 845 CURVE SMOOTH"
);
}
);
width = 676;
}
);
unicode = 0102;
},
{
glyphname = breve;
layers = (
{
layerId = "AC509B01-5F4C-4AA2-97FB-92B74F0D1424";
name = Bold;
paths = (
{
closed = 1;
nodes = (
"125 659 OFFCURVE",
"98 692 OFFCURVE",
"98 730 CURVE",
"37 730 LINE",
"37 660 OFFCURVE",
"88 608 OFFCURVE",
"156 608 CURVE SMOOTH",
"224 608 OFFCURVE",
"275 660 OFFCURVE",
"275 730 CURVE",
"214 730 LINE",
"210 689 OFFCURVE",
"185 659 OFFCURVE",
"156 659 CURVE SMOOTH"
);
}
);
width = 312;
}
);
unicode = 02D8;
},
{
glyphname = Acircumflex;
layers = (
{
layerId = "AC509B01-5F4C-4AA2-97FB-92B74F0D1424";
name = Bold;
paths = (
{
closed = 1;
nodes = (
"127 0 LINE",
"201 193 LINE",
"475 193 LINE",
"551 0 LINE",
"670 0 LINE",
"385 710 LINE",
"293 710 LINE",
"7 0 LINE"
);
},
{
closed = 1;
nodes = (
"453 276 LINE",
"221 276 LINE",
"339 585 LINE"
);
},
{
closed = 1;
nodes = (
"254 793 LINE",
"339 856 LINE",
"424 793 LINE",
"483 821 LINE",
"379 916 LINE",
"300 916 LINE",
"196 821 LINE"
);
}
);
width = 676;
}
);
unicode = 00C2;
},
{
glyphname = circumflex;
layers = (
{
layerId = "AC509B01-5F4C-4AA2-97FB-92B74F0D1424";
name = Bold;
paths = (
{
closed = 1;
nodes = (
"92 607 LINE",
"177 670 LINE",
"262 607 LINE",
"321 635 LINE",
"217 730 LINE",
"138 730 LINE",
"34 635 LINE"
);
}
);
width = 355;
}
);
unicode = 02C6;
},
{
glyphname = Adieresis;
layers = (
{
layerId = "AC509B01-5F4C-4AA2-97FB-92B74F0D1424";
name = Bold;
paths = (
{
closed = 1;
nodes = (
"127 0 LINE",
"201 193 LINE",
"475 193 LINE",
"551 0 LINE",
"670 0 LINE",
"385 710 LINE",
"293 710 LINE",
"7 0 LINE"
);
},
{
closed = 1;
nodes = (
"453 276 LINE",
"221 276 LINE",
"339 585 LINE"
);
},
{
closed = 1;
nodes = (
"297 802 LINE",
"297 912 LINE",
"205 912 LINE",
"205 802 LINE"
);
},
{
closed = 1;
nodes = (
"474 802 LINE",
"474 912 LINE",
"382 912 LINE",
"382 802 LINE"
);
}
);
width = 676;
}
);
unicode = 00C4;
},
{
glyphname = dieresis;
layers = (
{
layerId = "AC509B01-5F4C-4AA2-97FB-92B74F0D1424";
name = Bold;
paths = (
{
closed = 1;
nodes = (
"163 615 LINE",
"163 725 LINE",
"71 725 LINE",
"71 615 LINE"
);
},
{
closed = 1;
nodes = (
"340 615 LINE",
"340 725 LINE",
"248 725 LINE",
"248 615 LINE"
);
}
);
width = 411;
}
);
unicode = 00A8;
},
{
glyphname = Agrave;
layers = (
{
layerId = "AC509B01-5F4C-4AA2-97FB-92B74F0D1424";
name = Bold;
paths = (
{
closed = 1;
nodes = (
"127 0 LINE",
"201 193 LINE",
"475 193 LINE",
"551 0 LINE",
"670 0 LINE",
"385 710 LINE",
"293 710 LINE",
"7 0 LINE"
);
},
{
closed = 1;
nodes = (
"453 276 LINE",
"221 276 LINE",
"339 585 LINE"
);
},
{
closed = 1;
nodes = (
"315 785 LINE",
"385 807 LINE",
"328 917 LINE",
"223 917 LINE"
);
}
);
width = 676;
}
);
unicode = 00C0;
},
{
glyphname = grave;
layers = (
{
layerId = "AC509B01-5F4C-4AA2-97FB-92B74F0D1424";
name = Bold;
paths = (
{
closed = 1;
nodes = (
"139 598 LINE",
"209 620 LINE",
"152 730 LINE",
"47 730 LINE"
);
}
);
width = 243;
}
);
unicode = 0060;
},
{
glyphname = Amacron;
layers = (
{
layerId = "AC509B01-5F4C-4AA2-97FB-92B74F0D1424";
name = Bold;
paths = (
{
closed = 1;
nodes = (
"127 0 LINE",
"201 193 LINE",
"475 193 LINE",
"551 0 LINE",
"670 0 LINE",
"385 710 LINE",
"293 710 LINE",
"7 0 LINE"
);
},
{
closed = 1;
nodes = (
"453 276 LINE",
"221 276 LINE",
"339 585 LINE"
);
},
{
closed = 1;
nodes = (
"488 830 LINE",
"488 900 LINE",
"192 900 LINE",
"192 830 LINE"
);
}
);
width = 676;
}
);
unicode = 0100;
},
{
glyphname = macron;
layers = (
{
layerId = "AC509B01-5F4C-4AA2-97FB-92B74F0D1424";
name = Bold;
paths = (
{
closed = 1;
nodes = (
"354 644 LINE",
"354 714 LINE",
"58 714 LINE",
"58 644 LINE"
);
}
);
width = 411;
}
);
unicode = 00AF;
},
{
glyphname = Aogonek;
layers = (
{
layerId = "AC509B01-5F4C-4AA2-97FB-92B74F0D1424";
name = Bold;
paths = (
{
closed = 1;
nodes = (
"647 -133 LINE",
"607 -129 OFFCURVE",
"588 -114 OFFCURVE",
"588 -91 CURVE SMOOTH",
"588 -63 OFFCURVE",
"613 -34 OFFCURVE",
"670 0 CURVE",
"385 710 LINE",
"293 710 LINE",
"7 0 LINE",
"127 0 LINE",
"201 193 LINE",
"475 193 LINE",
"551 0 LINE",
"606 0 LINE",
"552 -35 OFFCURVE",
"527 -71 OFFCURVE",
"527 -106 CURVE SMOOTH",
"527 -145 OFFCURVE",
"559 -178 OFFCURVE",
"622 -188 CURVE"
);
},
{
closed = 1;
nodes = (
"453 276 LINE",
"221 276 LINE",
"339 585 LINE"
);
}
);
width = 676;
}
);
unicode = 0104;
},
{
glyphname = ogonek;
layers = (
{
layerId = "AC509B01-5F4C-4AA2-97FB-92B74F0D1424";
name = Bold;
paths = (
{
closed = 1;
nodes = (
"181 -133 LINE",
"141 -129 OFFCURVE",
"122 -114 OFFCURVE",
"122 -91 CURVE SMOOTH",
"122 -63 OFFCURVE",
"147 -34 OFFCURVE",
"204 0 CURVE",
"174 20 LINE",
"97 -22 OFFCURVE",
"61 -64 OFFCURVE",
"61 -106 CURVE SMOOTH",
"61 -145 OFFCURVE",
"93 -178 OFFCURVE",
"156 -188 CURVE"
);
}
);
width = 272;
}
);
unicode = 02DB;
},
{
glyphname = Aring;
layers = (
{
layerId = "AC509B01-5F4C-4AA2-97FB-92B74F0D1424";
name = Bold;
paths = (
{
closed = 1;
nodes = (
"127 0 LINE",
"201 193 LINE",
"475 193 LINE",
"551 0 LINE",
"670 0 LINE",
"385 710 LINE",
"293 710 LINE",
"7 0 LINE"
);
},
{
closed = 1;
nodes = (
"453 276 LINE",
"221 276 LINE",
"339 585 LINE"
);
},
{
closed = 1;
nodes = (
"250 798 OFFCURVE",
"286 770 OFFCURVE",
"338 770 CURVE SMOOTH",
"391 770 OFFCURVE",
"427 798 OFFCURVE",
"427 843 CURVE SMOOTH",
"427 889 OFFCURVE",
"391 916 OFFCURVE",
"338 916 CURVE SMOOTH",
"286 916 OFFCURVE",
"250 889 OFFCURVE",
"250 843 CURVE SMOOTH"
);
},
{
closed = 1;
nodes = (
"361 880 OFFCURVE",
"379 865 OFFCURVE",
"379 843 CURVE SMOOTH",
"379 822 OFFCURVE",
"360 806 OFFCURVE",
"338 806 CURVE SMOOTH",
"315 806 OFFCURVE",
"298 823 OFFCURVE",
"298 843 CURVE SMOOTH",
"298 865 OFFCURVE",
"316 880 OFFCURVE",
"338 880 CURVE SMOOTH"
);
}
);
width = 676;
}
);
unicode = 00C5;
},
{
glyphname = ring;
layers = (
{
layerId = "AC509B01-5F4C-4AA2-97FB-92B74F0D1424";
name = Bold;
paths = (
{
closed = 1;
nodes = (
"40 612 OFFCURVE",
"76 584 OFFCURVE",
"128 584 CURVE SMOOTH",
"181 584 OFFCURVE",
"217 612 OFFCURVE",
"217 657 CURVE SMOOTH",
"217 703 OFFCURVE",
"181 730 OFFCURVE",
"128 730 CURVE SMOOTH",
"76 730 OFFCURVE",
"40 703 OFFCURVE",
"40 657 CURVE SMOOTH"
);
},
{
closed = 1;
nodes = (
"151 694 OFFCURVE",
"169 679 OFFCURVE",
"169 657 CURVE SMOOTH",
"169 636 OFFCURVE",
"150 620 OFFCURVE",
"128 620 CURVE SMOOTH",
"105 620 OFFCURVE",
"88 637 OFFCURVE",
"88 657 CURVE SMOOTH",
"88 679 OFFCURVE",
"106 694 OFFCURVE",
"128 694 CURVE SMOOTH"
);
}
);
width = 257;
}
);
unicode = 02DA;
},
{
glyphname = Aringacute;
layers = (
{
layerId = "AC509B01-5F4C-4AA2-97FB-92B74F0D1424";
name = Bold;
paths = (
{
closed = 1;
nodes = (
"464 918 LINE",
"359 918 LINE",
"302 815 LINE",
"270 805 OFFCURVE",
"250 781 OFFCURVE",
"250 747 CURVE SMOOTH",
"250 720 OFFCURVE",
"263 699 OFFCURVE",
"284 686 CURVE",
"7 0 LINE",
"127 0 LINE",
"201 193 LINE",
"475 193 LINE",
"551 0 LINE",
"670 0 LINE",
"393 687 LINE",
"414 699 OFFCURVE",
"427 720 OFFCURVE",
"427 747 CURVE SMOOTH",
"427 777 OFFCURVE",
"411 799 OFFCURVE",
"385 811 CURVE"
);
},
{
closed = 1;
nodes = (
"453 276 LINE",
"221 276 LINE",
"339 585 LINE"
);
},
{
closed = 1;
nodes = (
"361 784 OFFCURVE",
"379 769 OFFCURVE",
"379 747 CURVE SMOOTH",
"379 726 OFFCURVE",
"360 710 OFFCURVE",
"338 710 CURVE SMOOTH",
"315 710 OFFCURVE",
"298 727 OFFCURVE",
"298 747 CURVE SMOOTH",
"298 769 OFFCURVE",
"316 784 OFFCURVE",
"338 784 CURVE SMOOTH"
);
}
);
width = 676;
}
);
unicode = 01FA;
},
{
glyphname = Atilde;
layers = (
{
layerId = "AC509B01-5F4C-4AA2-97FB-92B74F0D1424";
name = Bold;
paths = (
{
closed = 1;
nodes = (
"127 0 LINE",
"201 193 LINE",
"475 193 LINE",
"551 0 LINE",
"670 0 LINE",
"385 710 LINE",
"293 710 LINE",
"7 0 LINE"
);
},
{
closed = 1;
nodes = (
"453 276 LINE",
"221 276 LINE",
"339 585 LINE"
);
},
{
closed = 1;
nodes = (
"491 801 OFFCURVE",
"516 899 OFFCURVE",
"516 916 CURVE",
"453 916 LINE",
"453 912 OFFCURVE",
"448 867 OFFCURVE",
"399 867 CURVE SMOOTH",
"350 867 OFFCURVE",
"327 911 OFFCURVE",
"268 911 CURVE SMOOTH",
"185 911 OFFCURVE",
"161 817 OFFCURVE",
"161 796 CURVE",
"223 796 LINE",
"223 800 OFFCURVE",
"227 844 OFFCURVE",
"272 844 CURVE SMOOTH",
"315 844 OFFCURVE",
"341 801 OFFCURVE",
"402 801 CURVE SMOOTH"
);
}
);
width = 676;
}
);
unicode = 00C3;
},
{
glyphname = tilde;
layers = (
{
layerId = "AC509B01-5F4C-4AA2-97FB-92B74F0D1424";
name = Bold;
paths = (
{
closed = 1;
nodes = (
"366 615 OFFCURVE",
"391 713 OFFCURVE",
"391 730 CURVE",
"328 730 LINE",
"328 726 OFFCURVE",
"323 681 OFFCURVE",
"274 681 CURVE SMOOTH",
"225 681 OFFCURVE",
"202 725 OFFCURVE",
"143 725 CURVE SMOOTH",
"60 725 OFFCURVE",
"36 631 OFFCURVE",
"36 610 CURVE",
"98 610 LINE",
"98 614 OFFCURVE",
"102 658 OFFCURVE",
"147 658 CURVE SMOOTH",
"190 658 OFFCURVE",
"216 615 OFFCURVE",
"277 615 CURVE SMOOTH"
);
}
);
width = 426;
}
);
unicode = 02DC;
},
{
glyphname = B;
layers = (
{
layerId = "AC509B01-5F4C-4AA2-97FB-92B74F0D1424";
name = Bold;
paths = (
{
closed = 1;
nodes = (
"638 273 OFFCURVE",
"587 340 OFFCURVE",
"506 364 CURVE",
"571 393 OFFCURVE",
"608 460 OFFCURVE",
"608 529 CURVE SMOOTH",
"608 618 OFFCURVE",
"546 710 OFFCURVE",
"446 710 CURVE SMOOTH",
"80 710 LINE",
"80 0 LINE",
"419 0 LINE SMOOTH",
"539 0 OFFCURVE",
"638 69 OFFCURVE",
"638 183 CURVE SMOOTH"
);
},
{
closed = 1;
nodes = (
"523 146 OFFCURVE",
"478 97 OFFCURVE",
"419 97 CURVE SMOOTH",
"192 97 LINE",
"192 314 LINE",
"426 314 LINE SMOOTH",
"482 314 OFFCURVE",
"523 262 OFFCURVE",
"523 204 CURVE SMOOTH"
);
},
{
closed = 1;
nodes = (
"404 613 LINE SMOOTH",
"457 613 OFFCURVE",
"496 569 OFFCURVE",
"496 508 CURVE SMOOTH",
"496 448 OFFCURVE",
"453 404 OFFCURVE",
"398 404 CURVE SMOOTH",
"192 404 LINE",
"192 613 LINE"
);
}
);
width = 676;
}
);
unicode = 0042;
},
{
glyphname = B.sc;
layers = (
{
layerId = "AC509B01-5F4C-4AA2-97FB-92B74F0D1424";
name = Bold;
paths = (
{
closed = 1;
nodes = (
"550 215 OFFCURVE",
"507 266 OFFCURVE",
"438 285 CURVE",
"493 307 OFFCURVE",
"524 359 OFFCURVE",
"524 413 CURVE SMOOTH",
"524 483 OFFCURVE",
"471 555 OFFCURVE",
"386 555 CURVE SMOOTH",
"72 555 LINE",
"72 0 LINE",
"362 0 LINE SMOOTH",
"465 0 OFFCURVE",
"550 52 OFFCURVE",
"550 143 CURVE SMOOTH"
);
},
{
closed = 1;
nodes = (
"449 120 OFFCURVE",
"411 85 OFFCURVE",
"362 85 CURVE SMOOTH",
"172 85 LINE",
"172 241 LINE",
"368 241 LINE SMOOTH",
"415 241 OFFCURVE",
"449 204 OFFCURVE",
"449 162 CURVE SMOOTH"
);
},
{
closed = 1;
nodes = (
"350 468 LINE SMOOTH",
"393 468 OFFCURVE",
"426 439 OFFCURVE",
"426 394 CURVE SMOOTH",
"426 350 OFFCURVE",
"390 320 OFFCURVE",
"345 320 CURVE SMOOTH",
"172 320 LINE",
"172 468 LINE"
);
}
);
width = 589;
}
);
},
{
glyphname = C;
layers = (
{
layerId = "AC509B01-5F4C-4AA2-97FB-92B74F0D1424";
name = Bold;
paths = (
{
closed = 1;
nodes = (
"36 180 OFFCURVE",
"174 -6 OFFCURVE",
"370 -6 CURVE SMOOTH",
"481 -6 OFFCURVE",
"608 53 OFFCURVE",
"652 159 CURVE",
"559 212 LINE",
"523 129 OFFCURVE",
"442 95 OFFCURVE",
"374 95 CURVE SMOOTH",
"244 95 OFFCURVE",
"150 218 OFFCURVE",
"150 356 CURVE SMOOTH",
"150 480 OFFCURVE",
"226 613 OFFCURVE",
"371 613 CURVE SMOOTH",
"437 613 OFFCURVE",
"515 586 OFFCURVE",
"553 500 CURVE",
"641 559 LINE",
"596 650 OFFCURVE",
"501 714 OFFCURVE",
"375 714 CURVE SMOOTH",
"161 714 OFFCURVE",
"36 532 OFFCURVE",
"36 360 CURVE SMOOTH"
);
}
);
width = 677;
}
);
unicode = 0043;
},
{
glyphname = C.sc;
layers = (
{
layerId = "AC509B01-5F4C-4AA2-97FB-92B74F0D1424";
name = Bold;
paths = (
{
closed = 1;
nodes = (
"37 140 OFFCURVE",
"156 -5 OFFCURVE",
"324 -5 CURVE SMOOTH",
"420 -5 OFFCURVE",
"530 41 OFFCURVE",
"568 124 CURVE",
"486 172 LINE",
"455 110 OFFCURVE",
"386 84 OFFCURVE",
"328 84 CURVE SMOOTH",
"217 84 OFFCURVE",
"138 176 OFFCURVE",
"138 278 CURVE SMOOTH",
"138 370 OFFCURVE",
"202 469 OFFCURVE",
"326 469 CURVE SMOOTH",
"382 469 OFFCURVE",
"449 448 OFFCURVE",
"481 384 CURVE",
"558 437 LINE",
"521 509 OFFCURVE",
"438 558 OFFCURVE",
"329 558 CURVE SMOOTH",
"144 558 OFFCURVE",
"37 416 OFFCURVE",
"37 282 CURVE SMOOTH"
);
}
);
width = 596;
}
);
},
{
glyphname = Cacute;
layers = (
{
layerId = "AC509B01-5F4C-4AA2-97FB-92B74F0D1424";
name = Bold;
paths = (
{
closed = 1;
nodes = (
"489 916 LINE",
"384 916 LINE",
"327 806 LINE",
"399 784 LINE"
);
},
{
closed = 1;
nodes = (
"36 180 OFFCURVE",
"174 -6 OFFCURVE",
"370 -6 CURVE SMOOTH",
"481 -6 OFFCURVE",
"608 53 OFFCURVE",
"652 159 CURVE",
"559 212 LINE",
"523 129 OFFCURVE",
"442 95 OFFCURVE",
"374 95 CURVE SMOOTH",
"244 95 OFFCURVE",
"150 218 OFFCURVE",
"150 356 CURVE SMOOTH",
"150 480 OFFCURVE",
"226 613 OFFCURVE",
"371 613 CURVE SMOOTH",
"437 613 OFFCURVE",
"515 586 OFFCURVE",
"553 500 CURVE",
"641 559 LINE",
"596 650 OFFCURVE",
"501 714 OFFCURVE",
"375 714 CURVE SMOOTH",
"161 714 OFFCURVE",
"36 532 OFFCURVE",
"36 360 CURVE SMOOTH"
);
}
);
width = 677;
}
);
unicode = 0106;
},
{
glyphname = Ccaron;
layers = (
{
layerId = "AC509B01-5F4C-4AA2-97FB-92B74F0D1424";
name = Bold;
paths = (
{
closed = 1;
nodes = (
"231 888 LINE",
"335 793 LINE",
"414 793 LINE",
"518 888 LINE",
"459 916 LINE",
"374 853 LINE",
"289 916 LINE"
);
},
{
closed = 1;
nodes = (
"36 180 OFFCURVE",
"174 -6 OFFCURVE",
"370 -6 CURVE SMOOTH",
"481 -6 OFFCURVE",
"608 53 OFFCURVE",
"652 159 CURVE",
"559 212 LINE",
"523 129 OFFCURVE",
"442 95 OFFCURVE",
"374 95 CURVE SMOOTH",
"244 95 OFFCURVE",
"150 218 OFFCURVE",
"150 356 CURVE SMOOTH",
"150 480 OFFCURVE",
"226 613 OFFCURVE",
"371 613 CURVE SMOOTH",
"437 613 OFFCURVE",
"515 586 OFFCURVE",
"553 500 CURVE",
"641 559 LINE",
"596 650 OFFCURVE",
"501 714 OFFCURVE",
"375 714 CURVE SMOOTH",
"161 714 OFFCURVE",
"36 532 OFFCURVE",
"36 360 CURVE SMOOTH"
);
}
);
width = 677;
}
);
unicode = 010C;
},
{
glyphname = caron;
layers = (
{
layerId = "AC509B01-5F4C-4AA2-97FB-92B74F0D1424";
name = Bold;
paths = (
{
closed = 1;
nodes = (
"34 702 LINE",
"138 607 LINE",
"217 607 LINE",
"321 702 LINE",
"262 730 LINE",
"177 667 LINE",
"92 730 LINE"
);
}
);
width = 355;
}
);
unicode = 02C7;
},
{
glyphname = Ccedilla;
layers = (
{
layerId = "AC509B01-5F4C-4AA2-97FB-92B74F0D1424";
name = Bold;
paths = (
{
closed = 1;
nodes = (
"270 -169 LINE",
"296 -179 OFFCURVE",
"331 -189 OFFCURVE",
"373 -189 CURVE SMOOTH",
"452 -189 OFFCURVE",
"492 -156 OFFCURVE",
"492 -108 CURVE SMOOTH",
"492 -62 OFFCURVE",
"457 -41 OFFCURVE",
"410 -41 CURVE SMOOTH",
"400 -41 OFFCURVE",
"386 -42 OFFCURVE",
"376 -45 CURVE",
"402 -4 LINE",
"505 5 OFFCURVE",
"613 63 OFFCURVE",
"653 159 CURVE",
"560 212 LINE",
"524 129 OFFCURVE",
"443 95 OFFCURVE",
"375 95 CURVE SMOOTH",
"245 95 OFFCURVE",
"151 218 OFFCURVE",
"151 356 CURVE SMOOTH",
"151 480 OFFCURVE",
"227 613 OFFCURVE",
"372 613 CURVE SMOOTH",
"438 613 OFFCURVE",
"516 586 OFFCURVE",
"554 500 CURVE",
"642 559 LINE",
"597 650 OFFCURVE",
"502 714 OFFCURVE",
"376 714 CURVE SMOOTH",
"162 714 OFFCURVE",
"37 532 OFFCURVE",
"37 360 CURVE SMOOTH",
"37 186 OFFCURVE",
"165 7 OFFCURVE",
"350 -5 CURVE",
"306 -90 LINE",
"323 -85 OFFCURVE",
"358 -78 OFFCURVE",
"386 -78 CURVE SMOOTH",
"417 -78 OFFCURVE",
"438 -86 OFFCURVE",
"438 -112 CURVE SMOOTH",
"438 -136 OFFCURVE",
"416 -146 OFFCURVE",
"381 -146 CURVE SMOOTH",
"346 -146 OFFCURVE",
"309 -135 OFFCURVE",
"293 -126 CURVE"
);
}
);
width = 678;
}
);
unicode = 00C7;
},
{
glyphname = cedilla;
layers = (
{
layerId = "AC509B01-5F4C-4AA2-97FB-92B74F0D1424";
name = Bold;
paths = (
{
closed = 1;
nodes = (
"22 -169 LINE",
"48 -179 OFFCURVE",
"83 -189 OFFCURVE",
"125 -189 CURVE SMOOTH",
"204 -189 OFFCURVE",
"244 -156 OFFCURVE",
"244 -108 CURVE SMOOTH",
"244 -62 OFFCURVE",
"209 -41 OFFCURVE",
"162 -41 CURVE SMOOTH",
"152 -41 OFFCURVE",
"138 -42 OFFCURVE",
"128 -45 CURVE",
"163 9 LINE",
"118 24 LINE",
"58 -90 LINE",
"75 -85 OFFCURVE",
"110 -78 OFFCURVE",
"138 -78 CURVE SMOOTH",
"169 -78 OFFCURVE",
"190 -86 OFFCURVE",
"190 -112 CURVE SMOOTH",
"190 -136 OFFCURVE",
"168 -146 OFFCURVE",
"133 -146 CURVE SMOOTH",
"98 -146 OFFCURVE",
"61 -135 OFFCURVE",
"45 -126 CURVE"
);
}
);
width = 310;
}
);
unicode = 00B8;
},
{
glyphname = Ccircumflex;
layers = (
{
layerId = "AC509B01-5F4C-4AA2-97FB-92B74F0D1424";
name = Bold;
paths = (
{
closed = 1;
nodes = (
"289 793 LINE",
"374 856 LINE",
"459 793 LINE",
"518 821 LINE",
"414 916 LINE",
"335 916 LINE",
"231 821 LINE"
);
},
{
closed = 1;
nodes = (
"36 180 OFFCURVE",
"174 -6 OFFCURVE",
"370 -6 CURVE SMOOTH",
"481 -6 OFFCURVE",
"608 53 OFFCURVE",
"652 159 CURVE",
"559 212 LINE",
"523 129 OFFCURVE",
"442 95 OFFCURVE",
"374 95 CURVE SMOOTH",
"244 95 OFFCURVE",
"150 218 OFFCURVE",
"150 356 CURVE SMOOTH",
"150 480 OFFCURVE",
"226 613 OFFCURVE",
"371 613 CURVE SMOOTH",
"437 613 OFFCURVE",
"515 586 OFFCURVE",
"553 500 CURVE",
"641 559 LINE",
"596 650 OFFCURVE",
"501 714 OFFCURVE",
"375 714 CURVE SMOOTH",
"161 714 OFFCURVE",
"36 532 OFFCURVE",
"36 360 CURVE SMOOTH"
);
}
);
width = 677;
}
);
unicode = 0108;
},
{
glyphname = Cdotaccent;
layers = (
{
layerId = "AC509B01-5F4C-4AA2-97FB-92B74F0D1424";
name = Bold;
paths = (
{
closed = 1;
nodes = (
"36 180 OFFCURVE",
"174 -6 OFFCURVE",
"370 -6 CURVE SMOOTH",
"481 -6 OFFCURVE",
"608 53 OFFCURVE",
"652 159 CURVE",
"559 212 LINE",
"523 129 OFFCURVE",
"442 95 OFFCURVE",
"374 95 CURVE SMOOTH",
"244 95 OFFCURVE",
"150 218 OFFCURVE",
"150 356 CURVE SMOOTH",
"150 480 OFFCURVE",
"226 613 OFFCURVE",
"371 613 CURVE SMOOTH",
"437 613 OFFCURVE",
"515 586 OFFCURVE",
"553 500 CURVE",
"641 559 LINE",
"596 650 OFFCURVE",
"501 714 OFFCURVE",
"375 714 CURVE SMOOTH",
"161 714 OFFCURVE",
"36 532 OFFCURVE",
"36 360 CURVE SMOOTH"
);
},
{
closed = 1;
nodes = (
"424 801 LINE",
"424 916 LINE",
"325 916 LINE",
"325 801 LINE"
);
}
);
width = 677;
}
);
unicode = 010A;
},
{
glyphname = dotaccent;
layers = (
{
layerId = "AC509B01-5F4C-4AA2-97FB-92B74F0D1424";
name = Bold;
paths = (
{
closed = 1;
nodes = (
"149 615 LINE",
"149 730 LINE",
"50 730 LINE",
"50 615 LINE"
);
}
);
width = 199;
}
);
unicode = 02D9;
},
{
glyphname = D;
layers = (
{
layerId = "AC509B01-5F4C-4AA2-97FB-92B74F0D1424";
name = Bold;
paths = (
{
closed = 1;
nodes = (
"332 0 LINE SMOOTH",
"542 0 OFFCURVE",
"678 141 OFFCURVE",
"678 356 CURVE SMOOTH",
"678 552 OFFCURVE",
"561 710 OFFCURVE",
"332 710 CURVE SMOOTH",
"80 710 LINE",
"80 0 LINE"
);
},
{
closed = 1;
nodes = (
"564 210 OFFCURVE",
"482 99 OFFCURVE",
"332 99 CURVE SMOOTH",
"192 99 LINE",
"192 611 LINE",
"332 611 LINE SMOOTH",
"479 611 OFFCURVE",
"564 505 OFFCURVE",
"564 356 CURVE SMOOTH"
);
}
);
width = 718;
}
);
unicode = 0044;
},
{
glyphname = D.sc;
layers = (
{
layerId = "AC509B01-5F4C-4AA2-97FB-92B74F0D1424";
name = Bold;
paths = (
{
closed = 1;
nodes = (
"290 0 LINE SMOOTH",
"471 0 OFFCURVE",
"590 110 OFFCURVE",
"590 279 CURVE SMOOTH",
"590 432 OFFCURVE",
"488 555 OFFCURVE",
"290 555 CURVE SMOOTH",
"72 555 LINE",
"72 0 LINE"
);
},
{
closed = 1;
nodes = (
"488 169 OFFCURVE",
"419 88 OFFCURVE",
"290 88 CURVE SMOOTH",
"172 88 LINE",
"172 467 LINE",
"290 467 LINE SMOOTH",
"416 467 OFFCURVE",
"488 390 OFFCURVE",
"488 279 CURVE SMOOTH"
);
}
);
width = 628;
}
);
},
{
glyphname = Dcaron;
layers = (
{
layerId = "AC509B01-5F4C-4AA2-97FB-92B74F0D1424";
name = Bold;
paths = (
{
closed = 1;
nodes = (
"192 888 LINE",
"296 793 LINE",
"375 793 LINE",
"479 888 LINE",
"420 916 LINE",
"335 853 LINE",
"250 916 LINE"
);
},
{
closed = 1;
nodes = (
"332 0 LINE SMOOTH",
"542 0 OFFCURVE",
"678 141 OFFCURVE",
"678 356 CURVE SMOOTH",
"678 552 OFFCURVE",
"561 710 OFFCURVE",
"332 710 CURVE SMOOTH",
"80 710 LINE",
"80 0 LINE"
);
},
{
closed = 1;
nodes = (
"564 210 OFFCURVE",
"482 99 OFFCURVE",
"332 99 CURVE SMOOTH",
"192 99 LINE",
"192 611 LINE",
"332 611 LINE SMOOTH",
"479 611 OFFCURVE",
"564 505 OFFCURVE",
"564 356 CURVE SMOOTH"
);
}
);
width = 718;
}
);
unicode = 010E;
},
{
glyphname = Dcroat;
layers = (
{
layerId = "AC509B01-5F4C-4AA2-97FB-92B74F0D1424";
name = Bold;
paths = (
{
closed = 1;
nodes = (
"337 0 LINE SMOOTH",
"547 0 OFFCURVE",
"683 141 OFFCURVE",
"683 356 CURVE SMOOTH",
"683 552 OFFCURVE",
"566 710 OFFCURVE",
"337 710 CURVE SMOOTH",
"85 710 LINE",
"85 399 LINE",
"32 399 LINE",
"32 315 LINE",
"85 315 LINE",
"85 0 LINE"
);
},
{
closed = 1;
nodes = (
"569 210 OFFCURVE",
"487 99 OFFCURVE",
"337 99 CURVE SMOOTH",
"197 99 LINE",
"197 315 LINE",
"348 315 LINE",
"348 399 LINE",
"197 399 LINE",
"197 611 LINE",
"337 611 LINE SMOOTH",
"484 611 OFFCURVE",
"569 505 OFFCURVE",
"569 356 CURVE SMOOTH"
);
}
);
width = 723;
}
);
unicode = 0110;
},
{
glyphname = E;
layers = (
{
layerId = "AC509B01-5F4C-4AA2-97FB-92B74F0D1424";
name = Bold;
paths = (
{
closed = 1;
nodes = (
"192 99 LINE",
"192 316 LINE",
"509 316 LINE",
"509 409 LINE",
"192 409 LINE",
"192 611 LINE",
"558 611 LINE",
"558 710 LINE",
"80 710 LINE",
"80 0 LINE",
"567 0 LINE",
"567 99 LINE"
);
}
);
width = 607;
}
);
unicode = 0045;
},
{
glyphname = E.sc;
layers = (
{
layerId = "AC509B01-5F4C-4AA2-97FB-92B74F0D1424";
name = Bold;
paths = (
{
closed = 1;
nodes = (
"172 88 LINE",
"172 242 LINE",
"444 242 LINE",
"444 323 LINE",
"172 323 LINE",
"172 467 LINE",
"485 467 LINE",
"485 555 LINE",
"72 555 LINE",
"72 0 LINE",
"493 0 LINE",
"493 88 LINE"
);
}
);
width = 536;
}
);
},
{
glyphname = Eacute;
layers = (
{
layerId = "AC509B01-5F4C-4AA2-97FB-92B74F0D1424";
name = Bold;
paths = (
{
closed = 1;
nodes = (
"445 916 LINE",
"340 916 LINE",
"283 806 LINE",
"355 784 LINE"
);
},
{
closed = 1;
nodes = (
"192 99 LINE",
"192 316 LINE",
"509 316 LINE",
"509 409 LINE",
"192 409 LINE",
"192 611 LINE",
"558 611 LINE",
"558 710 LINE",
"80 710 LINE",
"80 0 LINE",
"567 0 LINE",
"567 99 LINE"
);
}
);
width = 607;
}
);
unicode = 00C9;
},
{
glyphname = Ebreve;
layers = (
{
layerId = "AC509B01-5F4C-4AA2-97FB-92B74F0D1424";
name = Bold;
paths = (
{
closed = 1;
nodes = (
"192 99 LINE",
"192 316 LINE",
"509 316 LINE",
"509 409 LINE",
"192 409 LINE",
"192 611 LINE",
"558 611 LINE",
"558 710 LINE",
"80 710 LINE",
"80 0 LINE",
"567 0 LINE",
"567 99 LINE"
);
},
{
closed = 1;
nodes = (
"299 845 OFFCURVE",
"272 878 OFFCURVE",
"272 916 CURVE",
"211 916 LINE",
"211 846 OFFCURVE",
"262 794 OFFCURVE",
"330 794 CURVE SMOOTH",
"398 794 OFFCURVE",
"449 846 OFFCURVE",
"449 916 CURVE",
"388 916 LINE",
"384 875 OFFCURVE",
"359 845 OFFCURVE",
"330 845 CURVE SMOOTH"
);
}
);
width = 607;
}
);
unicode = 0114;
},
{
glyphname = Ecaron;
layers = (
{
layerId = "AC509B01-5F4C-4AA2-97FB-92B74F0D1424";
name = Bold;
paths = (
{
closed = 1;
nodes = (
"187 888 LINE",
"291 793 LINE",
"370 793 LINE",
"474 888 LINE",
"415 916 LINE",
"330 853 LINE",
"245 916 LINE"
);
},
{
closed = 1;
nodes = (
"192 99 LINE",
"192 316 LINE",
"509 316 LINE",
"509 409 LINE",
"192 409 LINE",
"192 611 LINE",
"558 611 LINE",
"558 710 LINE",
"80 710 LINE",
"80 0 LINE",
"567 0 LINE",
"567 99 LINE"
);
}
);
width = 607;
}
);
unicode = 011A;
},
{
glyphname = Ecircumflex;
layers = (
{
layerId = "AC509B01-5F4C-4AA2-97FB-92B74F0D1424";
name = Bold;
paths = (
{
closed = 1;
nodes = (
"245 793 LINE",
"330 856 LINE",
"415 793 LINE",
"474 821 LINE",
"370 916 LINE",
"291 916 LINE",
"187 821 LINE"
);
},
{
closed = 1;
nodes = (
"192 99 LINE",
"192 316 LINE",
"509 316 LINE",
"509 409 LINE",
"192 409 LINE",
"192 611 LINE",
"558 611 LINE",
"558 710 LINE",
"80 710 LINE",
"80 0 LINE",
"567 0 LINE",
"567 99 LINE"
);
}
);
width = 607;
}
);
unicode = 00CA;
},
{
glyphname = Edieresis;
layers = (
{
layerId = "AC509B01-5F4C-4AA2-97FB-92B74F0D1424";
name = Bold;
paths = (
{
closed = 1;
nodes = (
"288 802 LINE",
"288 912 LINE",
"196 912 LINE",
"196 802 LINE"
);
},
{
closed = 1;
nodes = (
"465 802 LINE",
"465 912 LINE",
"373 912 LINE",
"373 802 LINE"
);
},
{
closed = 1;
nodes = (
"192 99 LINE",
"192 316 LINE",
"509 316 LINE",
"509 409 LINE",
"192 409 LINE",
"192 611 LINE",
"558 611 LINE",
"558 710 LINE",
"80 710 LINE",
"80 0 LINE",
"567 0 LINE",
"567 99 LINE"
);
}
);
width = 607;
}
);
unicode = 00CB;
},
{
glyphname = Edotaccent;
layers = (
{
layerId = "AC509B01-5F4C-4AA2-97FB-92B74F0D1424";
name = Bold;
paths = (
{
closed = 1;
nodes = (
"192 99 LINE",
"192 316 LINE",
"509 316 LINE",
"509 409 LINE",
"192 409 LINE",
"192 611 LINE",
"558 611 LINE",
"558 710 LINE",
"80 710 LINE",
"80 0 LINE",
"567 0 LINE",
"567 99 LINE"
);
},
{
closed = 1;
nodes = (
"379 801 LINE",
"379 916 LINE",
"280 916 LINE",
"280 801 LINE"
);
}
);
width = 607;
}
);
unicode = 0116;
},
{
glyphname = Egrave;
layers = (
{
layerId = "AC509B01-5F4C-4AA2-97FB-92B74F0D1424";
name = Bold;
paths = (
{
closed = 1;
nodes = (
"192 99 LINE",
"192 316 LINE",
"509 316 LINE",
"509 409 LINE",
"192 409 LINE",
"192 611 LINE",
"558 611 LINE",
"558 710 LINE",
"80 710 LINE",
"80 0 LINE",
"567 0 LINE",
"567 99 LINE"
);
},
{
closed = 1;
nodes = (
"306 785 LINE",
"376 807 LINE",
"319 917 LINE",
"214 917 LINE"
);
}
);
width = 607;
}
);
unicode = 00C8;
},
{
glyphname = Emacron;
layers = (
{
layerId = "AC509B01-5F4C-4AA2-97FB-92B74F0D1424";
name = Bold;
paths = (
{
closed = 1;
nodes = (
"192 99 LINE",
"192 316 LINE",
"509 316 LINE",
"509 409 LINE",
"192 409 LINE",
"192 611 LINE",
"558 611 LINE",
"558 710 LINE",
"80 710 LINE",
"80 0 LINE",
"567 0 LINE",
"567 99 LINE"
);
},
{
closed = 1;
nodes = (
"479 830 LINE",
"479 900 LINE",
"183 900 LINE",
"183 830 LINE"
);
}
);
width = 607;
}
);
unicode = 0112;
},
{
glyphname = Eng;
layers = (
{
layerId = "AC509B01-5F4C-4AA2-97FB-92B74F0D1424";
name = Bold;
paths = (
{
closed = 1;
nodes = (
"566 21 LINE",
"566 -19 LINE SMOOTH",
"566 -63 OFFCURVE",
"530 -95 OFFCURVE",
"491 -95 CURVE SMOOTH",
"468 -95 OFFCURVE",
"444 -88 OFFCURVE",
"427 -72 CURVE",
"378 -146 LINE",
"412 -177 OFFCURVE",
"457 -191 OFFCURVE",
"504 -191 CURVE SMOOTH",
"595 -191 OFFCURVE",
"676 -120 OFFCURVE",
"676 -15 CURVE SMOOTH",
"676 709 LINE",
"563 709 LINE",
"563 204 LINE",
"166 710 LINE",
"80 710 LINE",
"80 0 LINE",
"192 0 LINE",
"192 498 LINE"
);
}
);
width = 756;
}
);
unicode = 014A;
},
{
glyphname = Eogonek;
layers = (
{
layerId = "AC509B01-5F4C-4AA2-97FB-92B74F0D1424";
name = Bold;
paths = (
{
closed = 1;
nodes = (
"192 99 LINE",
"192 316 LINE",
"509 316 LINE",
"509 409 LINE",
"192 409 LINE",
"192 611 LINE",
"558 611 LINE",
"558 710 LINE",
"80 710 LINE",
"80 0 LINE",
"293 0 LINE",
"239 -35 OFFCURVE",
"214 -71 OFFCURVE",
"214 -106 CURVE SMOOTH",
"214 -145 OFFCURVE",
"246 -178 OFFCURVE",
"309 -188 CURVE",
"334 -133 LINE",
"294 -129 OFFCURVE",
"275 -114 OFFCURVE",
"275 -91 CURVE SMOOTH",
"275 -63 OFFCURVE",
"300 -34 OFFCURVE",
"357 0 CURVE",
"567 0 LINE",
"567 99 LINE"
);
}
);
width = 607;
}
);
unicode = 0118;
},
{
glyphname = Eth;
layers = (
{
layerId = "AC509B01-5F4C-4AA2-97FB-92B74F0D1424";
name = Bold;
paths = (
{
closed = 1;
nodes = (
"337 0 LINE SMOOTH",
"547 0 OFFCURVE",
"683 141 OFFCURVE",
"683 356 CURVE SMOOTH",
"683 552 OFFCURVE",
"566 710 OFFCURVE",
"337 710 CURVE SMOOTH",
"85 710 LINE",
"85 399 LINE",
"32 399 LINE",
"32 315 LINE",
"85 315 LINE",
"85 0 LINE"
);
},
{
closed = 1;
nodes = (
"569 210 OFFCURVE",
"487 99 OFFCURVE",
"337 99 CURVE SMOOTH",
"197 99 LINE",
"197 315 LINE",
"348 315 LINE",
"348 399 LINE",
"197 399 LINE",
"197 611 LINE",
"337 611 LINE SMOOTH",
"484 611 OFFCURVE",
"569 505 OFFCURVE",
"569 356 CURVE SMOOTH"
);
}
);
width = 723;
}
);
unicode = 00D0;
},
{
glyphname = Etilde;
layers = (
{
layerId = "AC509B01-5F4C-4AA2-97FB-92B74F0D1424";
name = Bold;
paths = (
{
closed = 1;
nodes = (
"192 99 LINE",
"192 316 LINE",
"509 316 LINE",
"509 409 LINE",
"192 409 LINE",
"192 611 LINE",
"558 611 LINE",
"558 710 LINE",
"80 710 LINE",
"80 0 LINE",
"567 0 LINE",
"567 99 LINE"
);
},
{
closed = 1;
nodes = (
"482 801 OFFCURVE",
"507 899 OFFCURVE",
"507 916 CURVE",
"444 916 LINE",
"444 912 OFFCURVE",
"439 867 OFFCURVE",
"390 867 CURVE SMOOTH",
"341 867 OFFCURVE",
"318 911 OFFCURVE",
"259 911 CURVE SMOOTH",
"176 911 OFFCURVE",
"152 817 OFFCURVE",
"152 796 CURVE",
"214 796 LINE",
"214 800 OFFCURVE",
"218 844 OFFCURVE",
"263 844 CURVE SMOOTH",
"306 844 OFFCURVE",
"332 801 OFFCURVE",
"393 801 CURVE SMOOTH"
);
}
);
width = 607;
}
);
unicode = 1EBC;
},
{
glyphname = Euro;
layers = (
{
layerId = "AC509B01-5F4C-4AA2-97FB-92B74F0D1424";
name = Bold;
paths = (
{
closed = 1;
nodes = (
"79 429 LINE",
"53 367 LINE",
"125 367 LINE",
"125 360 LINE SMOOTH",
"125 343 OFFCURVE",
"126 327 OFFCURVE",
"128 311 CURVE",
"60 311 LINE",
"34 249 LINE",
"142 249 LINE",
"184 111 OFFCURVE",
"303 -6 OFFCURVE",
"459 -6 CURVE SMOOTH",
"570 -6 OFFCURVE",
"697 53 OFFCURVE",
"741 159 CURVE",
"648 212 LINE",
"612 129 OFFCURVE",
"531 95 OFFCURVE",
"463 95 CURVE SMOOTH",
"368 95 OFFCURVE",
"292 160 OFFCURVE",
"258 249 CURVE",
"476 249 LINE",
"502 311 LINE",
"242 311 LINE",
"240 325 OFFCURVE",
"239 341 OFFCURVE",
"239 356 CURVE SMOOTH",
"239 367 LINE",
"509 367 LINE",
"535 429 LINE",
"247 429 LINE",
"271 527 OFFCURVE",
"343 613 OFFCURVE",
"460 613 CURVE SMOOTH",
"526 613 OFFCURVE",
"604 586 OFFCURVE",
"642 500 CURVE",
"730 559 LINE",
"685 650 OFFCURVE",
"590 714 OFFCURVE",
"464 714 CURVE SMOOTH",
"278 714 OFFCURVE",
"160 577 OFFCURVE",
"132 429 CURVE"
);
}
);
width = 788;
}
);
unicode = 20AC;
},
{
glyphname = F;
layers = (
{
layerId = "AC509B01-5F4C-4AA2-97FB-92B74F0D1424";
name = Bold;
paths = (
{
closed = 1;
nodes = (
"192 0 LINE",
"192 306 LINE",
"494 306 LINE",
"494 399 LINE",
"192 399 LINE",
"192 611 LINE",
"553 611 LINE",
"553 710 LINE",
"80 710 LINE",
"80 0 LINE"
);
}
);
width = 576;
}
);
unicode = 0046;
},
{
glyphname = F.sc;
layers = (
{
layerId = "AC509B01-5F4C-4AA2-97FB-92B74F0D1424";
name = Bold;
paths = (
{
closed = 1;
nodes = (
"172 0 LINE",
"172 233 LINE",
"431 233 LINE",
"431 315 LINE",
"172 315 LINE",
"172 467 LINE",
"480 467 LINE",
"480 555 LINE",
"72 555 LINE",
"72 0 LINE"
);
}
);
width = 507;
}
);
},
{
glyphname = G;
layers = (
{
layerId = "AC509B01-5F4C-4AA2-97FB-92B74F0D1424";
name = Bold;
paths = (
{
closed = 1;
nodes = (
"570 0 LINE",
"664 0 LINE",
"664 359 LINE",
"421 359 LINE",
"421 276 LINE",
"570 276 LINE",
"570 201 LINE",
"512 130 OFFCURVE",
"447 96 OFFCURVE",
"376 96 CURVE SMOOTH",
"248 96 OFFCURVE",
"151 212 OFFCURVE",
"151 355 CURVE SMOOTH",
"151 491 OFFCURVE",
"237 614 OFFCURVE",
"368 614 CURVE SMOOTH",
"448 614 OFFCURVE",
"518 575 OFFCURVE",
"556 498 CURVE",
"642 560 LINE",
"595 653 OFFCURVE",
"504 715 OFFCURVE",
"371 715 CURVE SMOOTH",
"180 715 OFFCURVE",
"37 551 OFFCURVE",
"37 358 CURVE SMOOTH",
"37 172 OFFCURVE",
"182 -5 OFFCURVE",
"367 -5 CURVE SMOOTH",
"444 -5 OFFCURVE",
"511 25 OFFCURVE",
"570 88 CURVE"
);
}
);
width = 714;
}
);
unicode = 0047;
},
{
glyphname = G.alt;
layers = (
{
layerId = "AC509B01-5F4C-4AA2-97FB-92B74F0D1424";
name = Bold;
paths = (
{
closed = 1;
nodes = (
"559 -5 OFFCURVE",
"702 136 OFFCURVE",
"702 340 CURVE SMOOTH",
"702 366 LINE",
"406 366 LINE",
"406 266 LINE",
"580 266 LINE",
"562 183 OFFCURVE",
"484 96 OFFCURVE",
"371 96 CURVE SMOOTH",
"232 96 OFFCURVE",
"151 229 OFFCURVE",
"151 355 CURVE SMOOTH",
"151 483 OFFCURVE",
"235 614 OFFCURVE",
"371 614 CURVE SMOOTH",
"471 614 OFFCURVE",
"532 543 OFFCURVE",
"561 494 CURVE",
"650 565 LINE",
"595 657 OFFCURVE",
"498 715 OFFCURVE",
"379 715 CURVE SMOOTH",
"173 715 OFFCURVE",
"37 543 OFFCURVE",
"37 360 CURVE SMOOTH",
"37 172 OFFCURVE",
"180 -5 OFFCURVE",
"380 -5 CURVE SMOOTH"
);
}
);
width = 727;
}
);
},
{
glyphname = G.sc;
layers = (
{
layerId = "AC509B01-5F4C-4AA2-97FB-92B74F0D1424";
name = Bold;
paths = (
{
closed = 1;
nodes = (
"490 0 LINE",
"574 0 LINE",
"574 283 LINE",
"363 283 LINE",
"363 210 LINE",
"490 210 LINE",
"490 163 LINE",
"441 111 OFFCURVE",
"386 85 OFFCURVE",
"327 85 CURVE SMOOTH",
"219 85 OFFCURVE",
"138 170 OFFCURVE",
"138 277 CURVE SMOOTH",
"138 379 OFFCURVE",
"210 470 OFFCURVE",
"319 470 CURVE SMOOTH",
"387 470 OFFCURVE",
"447 440 OFFCURVE",
"478 382 CURVE",
"554 438 LINE",
"515 510 OFFCURVE",
"436 559 OFFCURVE",
"323 559 CURVE SMOOTH",
"159 559 OFFCURVE",
"37 432 OFFCURVE",
"37 280 CURVE SMOOTH",
"37 133 OFFCURVE",
"161 -4 OFFCURVE",
"319 -4 CURVE SMOOTH",
"384 -4 OFFCURVE",
"439 18 OFFCURVE",
"490 64 CURVE"
);
}
);
width = 622;
}
);
},
{
glyphname = Gbreve;
layers = (
{
layerId = "AC509B01-5F4C-4AA2-97FB-92B74F0D1424";
name = Bold;
paths = (
{
closed = 1;
nodes = (
"570 0 LINE",
"664 0 LINE",
"664 359 LINE",
"421 359 LINE",
"421 276 LINE",
"570 276 LINE",
"570 201 LINE",
"512 130 OFFCURVE",
"447 96 OFFCURVE",
"376 96 CURVE SMOOTH",
"248 96 OFFCURVE",
"151 212 OFFCURVE",
"151 355 CURVE SMOOTH",
"151 491 OFFCURVE",
"237 614 OFFCURVE",
"368 614 CURVE SMOOTH",
"448 614 OFFCURVE",
"518 575 OFFCURVE",
"556 498 CURVE",
"642 560 LINE",
"595 653 OFFCURVE",
"504 715 OFFCURVE",
"371 715 CURVE SMOOTH",
"180 715 OFFCURVE",
"37 551 OFFCURVE",
"37 358 CURVE SMOOTH",
"37 172 OFFCURVE",
"182 -5 OFFCURVE",
"367 -5 CURVE SMOOTH",
"444 -5 OFFCURVE",
"511 25 OFFCURVE",
"570 88 CURVE"
);
},
{
closed = 1;
nodes = (
"339 845 OFFCURVE",
"312 878 OFFCURVE",
"312 916 CURVE",
"251 916 LINE",
"251 846 OFFCURVE",
"302 794 OFFCURVE",
"370 794 CURVE SMOOTH",
"438 794 OFFCURVE",
"489 846 OFFCURVE",
"489 916 CURVE",
"428 916 LINE",
"424 875 OFFCURVE",
"399 845 OFFCURVE",
"370 845 CURVE SMOOTH"
);
}
);
width = 714;
}
);
unicode = 011E;
},
{
glyphname = Gcircumflex;
layers = (
{
layerId = "AC509B01-5F4C-4AA2-97FB-92B74F0D1424";
name = Bold;
paths = (
{
closed = 1;
nodes = (
"284 793 LINE",
"369 856 LINE",
"454 793 LINE",
"513 821 LINE",
"409 916 LINE",
"330 916 LINE",
"226 821 LINE"
);
},
{
closed = 1;
nodes = (
"570 0 LINE",
"664 0 LINE",
"664 359 LINE",
"421 359 LINE",
"421 276 LINE",
"570 276 LINE",
"570 201 LINE",
"512 130 OFFCURVE",
"447 96 OFFCURVE",
"376 96 CURVE SMOOTH",
"248 96 OFFCURVE",
"151 212 OFFCURVE",
"151 355 CURVE SMOOTH",
"151 491 OFFCURVE",
"237 614 OFFCURVE",
"368 614 CURVE SMOOTH",
"448 614 OFFCURVE",
"518 575 OFFCURVE",
"556 498 CURVE",
"642 560 LINE",
"595 653 OFFCURVE",
"504 715 OFFCURVE",
"371 715 CURVE SMOOTH",
"180 715 OFFCURVE",
"37 551 OFFCURVE",
"37 358 CURVE SMOOTH",
"37 172 OFFCURVE",
"182 -5 OFFCURVE",
"367 -5 CURVE SMOOTH",
"444 -5 OFFCURVE",
"511 25 OFFCURVE",
"570 88 CURVE"
);
}
);
width = 714;
}
);
unicode = 011C;
},
{
glyphname = Gcommaaccent;
layers = (
{
layerId = "AC509B01-5F4C-4AA2-97FB-92B74F0D1424";
name = Bold;
paths = (
{
closed = 1;
nodes = (
"298 -182 LINE",
"367 -182 OFFCURVE",
"417 -172 OFFCURVE",
"417 -115 CURVE SMOOTH",
"417 -48 LINE",
"327 -48 LINE",
"327 -112 LINE SMOOTH",
"327 -128 OFFCURVE",
"317 -134 OFFCURVE",
"298 -134 CURVE"
);
},
{
closed = 1;
nodes = (
"570 0 LINE",
"664 0 LINE",
"664 359 LINE",
"421 359 LINE",
"421 276 LINE",
"570 276 LINE",
"570 201 LINE",
"512 130 OFFCURVE",
"447 96 OFFCURVE",
"376 96 CURVE SMOOTH",
"248 96 OFFCURVE",
"151 212 OFFCURVE",
"151 355 CURVE SMOOTH",
"151 491 OFFCURVE",
"237 614 OFFCURVE",
"368 614 CURVE SMOOTH",
"448 614 OFFCURVE",
"518 575 OFFCURVE",
"556 498 CURVE",
"642 560 LINE",
"595 653 OFFCURVE",
"504 715 OFFCURVE",
"371 715 CURVE SMOOTH",
"180 715 OFFCURVE",
"37 551 OFFCURVE",
"37 358 CURVE SMOOTH",
"37 172 OFFCURVE",
"182 -5 OFFCURVE",
"367 -5 CURVE SMOOTH",
"444 -5 OFFCURVE",
"511 25 OFFCURVE",
"570 88 CURVE"
);
}
);
width = 714;
}
);
unicode = 0122;
},
{
glyphname = commaaccent;
layers = (
{
layerId = "AC509B01-5F4C-4AA2-97FB-92B74F0D1424";
name = Bold;
paths = (
{
closed = 1;
nodes = (
"35 -182 LINE",
"104 -182 OFFCURVE",
"154 -172 OFFCURVE",
"154 -115 CURVE SMOOTH",
"154 -48 LINE",
"64 -48 LINE",
"64 -112 LINE SMOOTH",
"64 -128 OFFCURVE",
"54 -134 OFFCURVE",
"35 -134 CURVE"
);
}
);
width = 184;
}
);
unicode = F6C3;
},
{
glyphname = Gdotaccent;
layers = (
{
layerId = "AC509B01-5F4C-4AA2-97FB-92B74F0D1424";
name = Bold;
paths = (
{
closed = 1;
nodes = (
"570 0 LINE",
"664 0 LINE",
"664 359 LINE",
"421 359 LINE",
"421 276 LINE",
"570 276 LINE",
"570 201 LINE",
"512 130 OFFCURVE",
"447 96 OFFCURVE",
"376 96 CURVE SMOOTH",
"248 96 OFFCURVE",
"151 212 OFFCURVE",
"151 355 CURVE SMOOTH",
"151 491 OFFCURVE",
"237 614 OFFCURVE",
"368 614 CURVE SMOOTH",
"448 614 OFFCURVE",
"518 575 OFFCURVE",
"556 498 CURVE",
"642 560 LINE",
"595 653 OFFCURVE",
"504 715 OFFCURVE",
"371 715 CURVE SMOOTH",
"180 715 OFFCURVE",
"37 551 OFFCURVE",
"37 358 CURVE SMOOTH",
"37 172 OFFCURVE",
"182 -5 OFFCURVE",
"367 -5 CURVE SMOOTH",
"444 -5 OFFCURVE",
"511 25 OFFCURVE",
"570 88 CURVE"
);
},
{
closed = 1;
nodes = (
"419 801 LINE",
"419 916 LINE",
"320 916 LINE",
"320 801 LINE"
);
}
);
width = 714;
}
);
unicode = 0120;
},
{
glyphname = H;
layers = (
{
layerId = "AC509B01-5F4C-4AA2-97FB-92B74F0D1424";
name = Bold;
paths = (
{
closed = 1;
nodes = (
"550 710 LINE",
"550 413 LINE",
"192 413 LINE",
"192 710 LINE",
"80 710 LINE",
"80 0 LINE",
"192 0 LINE",
"192 313 LINE",
"550 313 LINE",
"550 0 LINE",
"663 0 LINE",
"663 710 LINE"
);
}
);
width = 743;
}
);
unicode = 0048;
},
{
glyphname = H.sc;
layers = (
{
layerId = "AC509B01-5F4C-4AA2-97FB-92B74F0D1424";
name = Bold;
paths = (
{
closed = 1;
nodes = (
"477 555 LINE",
"477 328 LINE",
"172 328 LINE",
"172 555 LINE",
"72 555 LINE",
"72 0 LINE",
"172 0 LINE",
"172 240 LINE",
"477 240 LINE",
"477 0 LINE",
"576 0 LINE",
"576 555 LINE"
);
}
);
width = 649;
}
);
},
{
glyphname = Hbar;
layers = (
{
layerId = "AC509B01-5F4C-4AA2-97FB-92B74F0D1424";
name = Bold;
paths = (
{
closed = 1;
nodes = (
"554 710 LINE",
"554 602 LINE",
"196 602 LINE",
"196 710 LINE",
"84 710 LINE",
"84 602 LINE",
"34 602 LINE",
"34 546 LINE",
"84 546 LINE",
"84 0 LINE",
"196 0 LINE",
"196 313 LINE",
"554 313 LINE",
"554 0 LINE",
"667 0 LINE",
"667 546 LINE",
"717 546 LINE",
"717 602 LINE",
"667 602 LINE",
"667 710 LINE"
);
},
{
closed = 1;
nodes = (
"196 413 LINE",
"196 546 LINE",
"554 546 LINE",
"554 413 LINE"
);
}
);
width = 750;
}
);
unicode = 0126;
},
{
glyphname = Hcircumflex;
layers = (
{
layerId = "AC509B01-5F4C-4AA2-97FB-92B74F0D1424";
name = Bold;
paths = (
{
closed = 1;
nodes = (
"289 792 LINE",
"374 855 LINE",
"459 792 LINE",
"518 820 LINE",
"414 915 LINE",
"335 915 LINE",
"231 820 LINE"
);
},
{
closed = 1;
nodes = (
"550 710 LINE",
"550 413 LINE",
"192 413 LINE",
"192 710 LINE",
"80 710 LINE",
"80 0 LINE",
"192 0 LINE",
"192 313 LINE",
"550 313 LINE",
"550 0 LINE",
"663 0 LINE",
"663 710 LINE"
);
}
);
width = 743;
}
);
unicode = 0124;
},
{
glyphname = I;
layers = (
{
layerId = "AC509B01-5F4C-4AA2-97FB-92B74F0D1424";
name = Bold;
paths = (
{
closed = 1;
nodes = (
"192 0 LINE",
"192 709 LINE",
"80 709 LINE",
"80 0 LINE"
);
}
);
width = 272;
}
);
unicode = 0049;
},
{
glyphname = I.sc;
layers = (
{
layerId = "AC509B01-5F4C-4AA2-97FB-92B74F0D1424";
name = Bold;
paths = (
{
closed = 1;
nodes = (
"172 0 LINE",
"172 555 LINE",
"72 555 LINE",
"72 0 LINE"
);
}
);
width = 244;
}
);
},
{
glyphname = IJ;
layers = (
{
layerId = "AC509B01-5F4C-4AA2-97FB-92B74F0D1424";
name = Bold;
paths = (
{
closed = 1;
nodes = (
"192 0 LINE",
"192 709 LINE",
"80 709 LINE",
"80 0 LINE"
);
},
{
closed = 1;
nodes = (
"286 33 LINE",
"328 4 OFFCURVE",
"379 -11 OFFCURVE",
"440 -11 CURVE SMOOTH",
"664 -11 OFFCURVE",
"692 133 OFFCURVE",
"692 349 CURVE SMOOTH",
"692 709 LINE",
"579 709 LINE",
"579 349 LINE SMOOTH",
"579 178 OFFCURVE",
"563 90 OFFCURVE",
"440 90 CURVE SMOOTH",
"383 90 OFFCURVE",
"335 109 OFFCURVE",
"313 125 CURVE"
);
}
);
width = 764;
}
);
unicode = 0132;
},
{
glyphname = J;
layers = (
{
layerId = "AC509B01-5F4C-4AA2-97FB-92B74F0D1424";
name = Bold;
paths = (
{
closed = 1;
nodes = (
"14 33 LINE",
"56 4 OFFCURVE",
"107 -11 OFFCURVE",
"168 -11 CURVE SMOOTH",
"392 -11 OFFCURVE",
"420 133 OFFCURVE",
"420 349 CURVE SMOOTH",
"420 709 LINE",
"307 709 LINE",
"307 349 LINE SMOOTH",
"307 178 OFFCURVE",
"291 90 OFFCURVE",
"168 90 CURVE SMOOTH",
"111 90 OFFCURVE",
"63 109 OFFCURVE",
"41 125 CURVE"
);
}
);
width = 492;
}
);
unicode = 004A;
},
{
glyphname = Iacute;
layers = (
{
layerId = "AC509B01-5F4C-4AA2-97FB-92B74F0D1424";
name = Bold;
paths = (
{
closed = 1;
nodes = (
"192 0 LINE",
"192 709 LINE",
"80 709 LINE",
"80 0 LINE"
);
},
{
closed = 1;
nodes = (
"251 916 LINE",
"146 916 LINE",
"89 806 LINE",
"161 784 LINE"
);
}
);
width = 272;
}
);
unicode = 00CD;
},
{
glyphname = Ibreve;
layers = (
{
layerId = "AC509B01-5F4C-4AA2-97FB-92B74F0D1424";
name = Bold;
paths = (
{
closed = 1;
nodes = (
"192 0 LINE",
"192 709 LINE",
"80 709 LINE",
"80 0 LINE"
);
},
{
closed = 1;
nodes = (
"105 845 OFFCURVE",
"78 878 OFFCURVE",
"78 916 CURVE",
"17 916 LINE",
"17 846 OFFCURVE",
"68 794 OFFCURVE",
"136 794 CURVE SMOOTH",
"204 794 OFFCURVE",
"255 846 OFFCURVE",
"255 916 CURVE",
"194 916 LINE",
"190 875 OFFCURVE",
"165 845 OFFCURVE",
"136 845 CURVE SMOOTH"
);
}
);
width = 272;
}
);
unicode = 012C;
},
{
glyphname = Icircumflex;
layers = (
{
layerId = "AC509B01-5F4C-4AA2-97FB-92B74F0D1424";
name = Bold;
paths = (
{
closed = 1;
nodes = (
"192 0 LINE",
"192 709 LINE",
"80 709 LINE",
"80 0 LINE"
);
},
{
closed = 1;
nodes = (
"51 793 LINE",
"136 856 LINE",
"221 793 LINE",
"280 821 LINE",
"176 916 LINE",
"97 916 LINE",
"-7 821 LINE"
);
}
);
width = 272;
}
);
unicode = 00CE;
},
{
glyphname = Idieresis;
layers = (
{
layerId = "AC509B01-5F4C-4AA2-97FB-92B74F0D1424";
name = Bold;
paths = (
{
closed = 1;
nodes = (
"192 0 LINE",
"192 709 LINE",
"80 709 LINE",
"80 0 LINE"
);
},
{
closed = 1;
nodes = (
"94 802 LINE",
"94 912 LINE",
"2 912 LINE",
"2 802 LINE"
);
},
{
closed = 1;
nodes = (
"271 802 LINE",
"271 912 LINE",
"179 912 LINE",
"179 802 LINE"
);
}
);
width = 272;
}
);
unicode = 00CF;
},
{
glyphname = Idotaccent;
layers = (
{
layerId = "AC509B01-5F4C-4AA2-97FB-92B74F0D1424";
name = Bold;
paths = (
{
closed = 1;
nodes = (
"192 0 LINE",
"192 709 LINE",
"80 709 LINE",
"80 0 LINE"
);
},
{
closed = 1;
nodes = (
"185 801 LINE",
"185 916 LINE",
"86 916 LINE",
"86 801 LINE"
);
}
);
width = 272;
}
);
unicode = 0130;
},
{
glyphname = Igrave;
layers = (
{
layerId = "AC509B01-5F4C-4AA2-97FB-92B74F0D1424";
name = Bold;
paths = (
{
closed = 1;
nodes = (
"192 0 LINE",
"192 709 LINE",
"80 709 LINE",
"80 0 LINE"
);
},
{
closed = 1;
nodes = (
"112 785 LINE",
"182 807 LINE",
"125 917 LINE",
"20 917 LINE"
);
}
);
width = 272;
}
);
unicode = 00CC;
},
{
glyphname = Imacron;
layers = (
{
layerId = "AC509B01-5F4C-4AA2-97FB-92B74F0D1424";
name = Bold;
paths = (
{
closed = 1;
nodes = (
"192 0 LINE",
"192 709 LINE",
"80 709 LINE",
"80 0 LINE"
);
},
{
closed = 1;
nodes = (
"285 830 LINE",
"285 900 LINE",
"-11 900 LINE",
"-11 830 LINE"
);
}
);
width = 272;
}
);
unicode = 012A;
},
{
glyphname = Iogonek;
layers = (
{
layerId = "AC509B01-5F4C-4AA2-97FB-92B74F0D1424";
name = Bold;
paths = (
{
closed = 1;
nodes = (
"169 -133 LINE",
"129 -129 OFFCURVE",
"110 -114 OFFCURVE",
"110 -91 CURVE SMOOTH",
"110 -63 OFFCURVE",
"135 -34 OFFCURVE",
"192 0 CURVE",
"192 709 LINE",
"80 709 LINE",
"80 0 LINE",
"128 0 LINE",
"74 -35 OFFCURVE",
"49 -71 OFFCURVE",
"49 -106 CURVE SMOOTH",
"49 -145 OFFCURVE",
"81 -178 OFFCURVE",
"144 -188 CURVE"
);
}
);
width = 272;
}
);
unicode = 012E;
},
{
glyphname = Itilde;
layers = (
{
layerId = "AC509B01-5F4C-4AA2-97FB-92B74F0D1424";
name = Bold;
paths = (
{
closed = 1;
nodes = (
"192 0 LINE",
"192 709 LINE",
"80 709 LINE",
"80 0 LINE"
);
},
{
closed = 1;
nodes = (
"288 801 OFFCURVE",
"313 899 OFFCURVE",
"313 916 CURVE",
"250 916 LINE",
"250 912 OFFCURVE",
"245 867 OFFCURVE",
"196 867 CURVE SMOOTH",
"147 867 OFFCURVE",
"124 911 OFFCURVE",
"65 911 CURVE SMOOTH",
"-18 911 OFFCURVE",
"-42 817 OFFCURVE",
"-42 796 CURVE",
"20 796 LINE",
"20 800 OFFCURVE",
"24 844 OFFCURVE",
"69 844 CURVE SMOOTH",
"112 844 OFFCURVE",
"138 801 OFFCURVE",
"199 801 CURVE SMOOTH"
);
}
);
width = 272;
}
);
unicode = 0128;
},
{
glyphname = J.sc;
layers = (
{
layerId = "AC509B01-5F4C-4AA2-97FB-92B74F0D1424";
name = Bold;
paths = (
{
closed = 1;
nodes = (
"17 25 LINE",
"53 3 OFFCURVE",
"98 -8 OFFCURVE",
"150 -8 CURVE SMOOTH",
"345 -8 OFFCURVE",
"368 104 OFFCURVE",
"368 273 CURVE SMOOTH",
"368 555 LINE",
"269 555 LINE",
"269 273 LINE SMOOTH",
"269 144 OFFCURVE",
"256 80 OFFCURVE",
"150 80 CURVE SMOOTH",
"101 80 OFFCURVE",
"59 96 OFFCURVE",
"41 107 CURVE"
);
}
);
width = 435;
}
);
},
{
glyphname = Jcircumflex;
layers = (
{
layerId = "AC509B01-5F4C-4AA2-97FB-92B74F0D1424";
name = Bold;
paths = (
{
closed = 1;
nodes = (
"280 793 LINE",
"365 856 LINE",
"450 793 LINE",
"509 821 LINE",
"405 916 LINE",
"326 916 LINE",
"222 821 LINE"
);
},
{
closed = 1;
nodes = (
"14 33 LINE",
"56 4 OFFCURVE",
"107 -11 OFFCURVE",
"168 -11 CURVE SMOOTH",
"392 -11 OFFCURVE",
"420 133 OFFCURVE",
"420 349 CURVE SMOOTH",
"420 709 LINE",
"307 709 LINE",
"307 349 LINE SMOOTH",
"307 178 OFFCURVE",
"291 90 OFFCURVE",
"168 90 CURVE SMOOTH",
"111 90 OFFCURVE",
"63 109 OFFCURVE",
"41 125 CURVE"
);
}
);
width = 492;
}
);
unicode = 0134;
},
{
glyphname = K;
layers = (
{
layerId = "AC509B01-5F4C-4AA2-97FB-92B74F0D1424";
name = Bold;
paths = (
{
closed = 1;
nodes = (
"192 0 LINE",
"192 216 LINE",
"303 332 LINE",
"545 0 LINE",
"666 0 LINE",
"370 396 LINE",
"650 710 LINE",
"530 710 LINE",
"192 339 LINE",
"192 709 LINE",
"80 709 LINE",
"80 0 LINE"
);
}
);
width = 658;
}
);
unicode = 004B;
},
{
glyphname = K.sc;
layers = (
{
layerId = "AC509B01-5F4C-4AA2-97FB-92B74F0D1424";
name = Bold;
paths = (
{
closed = 1;
nodes = (
"172 0 LINE",
"172 168 LINE",
"265 252 LINE",
"473 0 LINE",
"579 0 LINE",
"326 309 LINE",
"566 555 LINE",
"460 555 LINE",
"172 276 LINE",
"172 555 LINE",
"72 555 LINE",
"72 0 LINE"
);
}
);
width = 581;
}
);
},
{
glyphname = Kcommaaccent;
layers = (
{
layerId = "AC509B01-5F4C-4AA2-97FB-92B74F0D1424";
name = Bold;
paths = (
{
closed = 1;
nodes = (
"269 -182 LINE",
"338 -182 OFFCURVE",
"388 -172 OFFCURVE",
"388 -115 CURVE SMOOTH",
"388 -48 LINE",
"298 -48 LINE",
"298 -112 LINE SMOOTH",
"298 -128 OFFCURVE",
"288 -134 OFFCURVE",
"269 -134 CURVE"
);
},
{
closed = 1;
nodes = (
"192 0 LINE",
"192 216 LINE",
"303 332 LINE",
"545 0 LINE",
"666 0 LINE",
"370 396 LINE",
"650 710 LINE",
"530 710 LINE",
"192 339 LINE",
"192 709 LINE",
"80 709 LINE",
"80 0 LINE"
);
}
);
width = 658;
}
);
unicode = 0136;
},
{
glyphname = L;
layers = (
{
layerId = "AC509B01-5F4C-4AA2-97FB-92B74F0D1424";
name = Bold;
paths = (
{
closed = 1;
nodes = (
"573 0 LINE",
"573 99 LINE",
"192 99 LINE",
"192 710 LINE",
"80 710 LINE",
"80 0 LINE"
);
}
);
width = 590;
}
);
unicode = 004C;
},
{
glyphname = L.sc;
layers = (
{
layerId = "AC509B01-5F4C-4AA2-97FB-92B74F0D1424";
name = Bold;
paths = (
{
closed = 1;
nodes = (
"474 0 LINE",
"474 88 LINE",
"172 88 LINE",
"172 555 LINE",
"72 555 LINE",
"72 0 LINE"
);
}
);
width = 494;
}
);
},
{
glyphname = Lacute;
layers = (
{
layerId = "AC509B01-5F4C-4AA2-97FB-92B74F0D1424";
name = Bold;
paths = (
{
closed = 1;
nodes = (
"468 916 LINE",
"363 916 LINE",
"306 806 LINE",
"378 784 LINE"
);
},
{
closed = 1;
nodes = (
"573 0 LINE",
"573 99 LINE",
"192 99 LINE",
"192 710 LINE",
"80 710 LINE",
"80 0 LINE"
);
}
);
width = 590;
}
);
unicode = 0139;
},
{
glyphname = Lcaron;
layers = (
{
layerId = "AC509B01-5F4C-4AA2-97FB-92B74F0D1424";
name = Bold;
paths = (
{
closed = 1;
nodes = (
"492 730 LINE",
"387 730 LINE",
"330 620 LINE",
"402 598 LINE"
);
},
{
closed = 1;
nodes = (
"573 0 LINE",
"573 99 LINE",
"192 99 LINE",
"192 710 LINE",
"80 710 LINE",
"80 0 LINE"
);
}
);
width = 590;
}
);
unicode = 013D;
},
{
glyphname = caron.alt;
layers = (
{
layerId = "AC509B01-5F4C-4AA2-97FB-92B74F0D1424";
name = Bold;
paths = (
{
closed = 1;
nodes = (
"209 730 LINE",
"104 730 LINE",
"47 620 LINE",
"119 598 LINE"
);
}
);
width = 243;
}
);
},
{
glyphname = Lcommaaccent;
layers = (
{
layerId = "AC509B01-5F4C-4AA2-97FB-92B74F0D1424";
name = Bold;
paths = (
{
closed = 1;
nodes = (
"260 -182 LINE",
"329 -182 OFFCURVE",
"379 -172 OFFCURVE",
"379 -115 CURVE SMOOTH",
"379 -48 LINE",
"289 -48 LINE",
"289 -112 LINE SMOOTH",
"289 -128 OFFCURVE",
"279 -134 OFFCURVE",
"260 -134 CURVE"
);
},
{
closed = 1;
nodes = (
"573 0 LINE",
"573 99 LINE",
"192 99 LINE",
"192 710 LINE",
"80 710 LINE",
"80 0 LINE"
);
}
);
width = 590;
}
);
unicode = 013B;
},
{
glyphname = Ldot;
layers = (
{
layerId = "AC509B01-5F4C-4AA2-97FB-92B74F0D1424";
name = Bold;
paths = (
{
closed = 1;
nodes = (
"573 0 LINE",
"573 99 LINE",
"192 99 LINE",
"192 710 LINE",
"80 710 LINE",
"80 0 LINE"
);
},
{
closed = 1;
nodes = (
"456 337 LINE",
"456 474 LINE",
"365 474 LINE",
"365 337 LINE"
);
}
);
width = 590;
}
);
unicode = 013F;
},
{
glyphname = periodcentered;
layers = (
{
layerId = "AC509B01-5F4C-4AA2-97FB-92B74F0D1424";
name = Bold;
paths = (
{
closed = 1;
nodes = (
"151 243 LINE",
"151 380 LINE",
"60 380 LINE",
"60 243 LINE"
);
}
);
width = 212;
}
);
unicode = 00B7;
},
{
glyphname = Lslash;
layers = (
{
layerId = "AC509B01-5F4C-4AA2-97FB-92B74F0D1424";
name = Bold;
paths = (
{
closed = 1;
nodes = (
"582 0 LINE",
"582 99 LINE",
"201 99 LINE",
"201 354 LINE",
"357 464 LINE",
"328 524 LINE",
"201 435 LINE",
"201 710 LINE",
"89 710 LINE",
"89 357 LINE",
"5 298 LINE",
"35 237 LINE",
"89 275 LINE",
"89 0 LINE"
);
}
);
width = 598;
}
);
unicode = 0141;
},
{
glyphname = M;
layers = (
{
layerId = "AC509B01-5F4C-4AA2-97FB-92B74F0D1424";
name = Bold;
paths = (
{
closed = 1;
nodes = (
"790 0 LINE",
"790 710 LINE",
"670 710 LINE",
"435 276 LINE",
"200 710 LINE",
"80 710 LINE",
"80 0 LINE",
"192 0 LINE",
"192 511 LINE",
"404 124 LINE",
"466 124 LINE",
"677 511 LINE",
"677 0 LINE"
);
}
);
width = 870;
}
);
unicode = 004D;
},
{
glyphname = M.sc;
layers = (
{
layerId = "AC509B01-5F4C-4AA2-97FB-92B74F0D1424";
name = Bold;
paths = (
{
closed = 1;
nodes = (
"685 0 LINE",
"685 555 LINE",
"580 555 LINE",
"379 230 LINE",
"179 555 LINE",
"72 555 LINE",
"72 0 LINE",
"172 0 LINE",
"172 380 LINE",
"351 95 LINE",
"406 95 LINE",
"586 380 LINE",
"586 0 LINE"
);
}
);
width = 758;
}
);
},
{
glyphname = N;
layers = (
{
layerId = "AC509B01-5F4C-4AA2-97FB-92B74F0D1424";
name = Bold;
paths = (
{
closed = 1;
nodes = (
"594 0 LINE",
"687 0 LINE",
"687 709 LINE",
"574 709 LINE",
"574 198 LINE",
"168 710 LINE",
"80 710 LINE",
"80 0 LINE",
"192 0 LINE",
"192 500 LINE"
);
}
);
width = 767;
}
);
unicode = 004E;
},
{
glyphname = N.sc;
layers = (
{
layerId = "AC509B01-5F4C-4AA2-97FB-92B74F0D1424";
name = Bold;
paths = (
{
closed = 1;
nodes = (
"514 0 LINE",
"596 0 LINE",
"596 555 LINE",
"497 555 LINE",
"497 177 LINE",
"150 555 LINE",
"72 555 LINE",
"72 0 LINE",
"172 0 LINE",
"172 370 LINE"
);
}
);
width = 668;
}
);
},
{
glyphname = Nacute;
layers = (
{
layerId = "AC509B01-5F4C-4AA2-97FB-92B74F0D1424";
name = Bold;
paths = (
{
closed = 1;
nodes = (
"499 915 LINE",
"394 915 LINE",
"337 805 LINE",
"409 783 LINE"
);
},
{
closed = 1;
nodes = (
"594 0 LINE",
"687 0 LINE",
"687 709 LINE",
"574 709 LINE",
"574 198 LINE",
"168 710 LINE",
"80 710 LINE",
"80 0 LINE",
"192 0 LINE",
"192 500 LINE"
);
}
);
width = 767;
}
);
unicode = 0143;
},
{
glyphname = Ncaron;
layers = (
{
layerId = "AC509B01-5F4C-4AA2-97FB-92B74F0D1424";
name = Bold;
paths = (
{
closed = 1;
nodes = (
"241 887 LINE",
"345 792 LINE",
"424 792 LINE",
"528 887 LINE",
"469 915 LINE",
"384 852 LINE",
"299 915 LINE"
);
},
{
closed = 1;
nodes = (
"594 0 LINE",
"687 0 LINE",
"687 709 LINE",
"574 709 LINE",
"574 198 LINE",
"168 710 LINE",
"80 710 LINE",
"80 0 LINE",
"192 0 LINE",
"192 500 LINE"
);
}
);
width = 767;
}
);
unicode = 0147;
},
{
glyphname = Ncommaaccent;
layers = (
{
layerId = "AC509B01-5F4C-4AA2-97FB-92B74F0D1424";
name = Bold;
paths = (
{
closed = 1;
nodes = (
"309 -182 LINE",
"378 -182 OFFCURVE",
"428 -172 OFFCURVE",
"428 -115 CURVE SMOOTH",
"428 -48 LINE",
"338 -48 LINE",
"338 -112 LINE SMOOTH",
"338 -128 OFFCURVE",
"328 -134 OFFCURVE",
"309 -134 CURVE"
);
},
{
closed = 1;
nodes = (
"594 0 LINE",
"687 0 LINE",
"687 709 LINE",
"574 709 LINE",
"574 198 LINE",
"168 710 LINE",
"80 710 LINE",
"80 0 LINE",
"192 0 LINE",
"192 500 LINE"
);
}
);
width = 767;
}
);
unicode = 0145;
},
{
glyphname = Ndotaccent;
layers = (
{
layerId = "AC509B01-5F4C-4AA2-97FB-92B74F0D1424";
name = Bold;
paths = (
{
closed = 1;
nodes = (
"433 800 LINE",
"433 915 LINE",
"334 915 LINE",
"334 800 LINE"
);
},
{
closed = 1;
nodes = (
"594 0 LINE",
"687 0 LINE",
"687 709 LINE",
"574 709 LINE",
"574 198 LINE",
"168 710 LINE",
"80 710 LINE",
"80 0 LINE",
"192 0 LINE",
"192 500 LINE"
);
}
);
width = 767;
}
);
unicode = 1E44;
},
{
glyphname = Ntilde;
layers = (
{
layerId = "AC509B01-5F4C-4AA2-97FB-92B74F0D1424";
name = Bold;
paths = (
{
closed = 1;
nodes = (
"594 0 LINE",
"687 0 LINE",
"687 709 LINE",
"574 709 LINE",
"574 198 LINE",
"168 710 LINE",
"80 710 LINE",
"80 0 LINE",
"192 0 LINE",
"192 500 LINE"
);
},
{
closed = 1;
nodes = (
"536 800 OFFCURVE",
"561 898 OFFCURVE",
"561 915 CURVE",
"498 915 LINE",
"498 911 OFFCURVE",
"493 866 OFFCURVE",
"444 866 CURVE SMOOTH",
"395 866 OFFCURVE",
"372 910 OFFCURVE",
"313 910 CURVE SMOOTH",
"230 910 OFFCURVE",
"206 816 OFFCURVE",
"206 795 CURVE",
"268 795 LINE",
"268 799 OFFCURVE",
"272 843 OFFCURVE",
"317 843 CURVE SMOOTH",
"360 843 OFFCURVE",
"386 800 OFFCURVE",
"447 800 CURVE SMOOTH"
);
}
);
width = 767;
}
);
unicode = 00D1;
},
{
glyphname = O;
layers = (
{
layerId = "AC509B01-5F4C-4AA2-97FB-92B74F0D1424";
name = Bold;
paths = (
{
closed = 1;
nodes = (
"566 -5 OFFCURVE",
"709 165 OFFCURVE",
"709 354 CURVE SMOOTH",
"709 532 OFFCURVE",
"575 715 OFFCURVE",
"375 715 CURVE SMOOTH",
"181 715 OFFCURVE",
"37 544 OFFCURVE",
"37 355 CURVE SMOOTH",
"37 173 OFFCURVE",
"172 -5 OFFCURVE",
"372 -5 CURVE SMOOTH"
);
},
{
closed = 1;
nodes = (
"151 483 OFFCURVE",
"234 613 OFFCURVE",
"373 613 CURVE SMOOTH",
"507 613 OFFCURVE",
"595 490 OFFCURVE",
"595 355 CURVE SMOOTH",
"595 228 OFFCURVE",
"513 96 OFFCURVE",
"373 96 CURVE SMOOTH",
"237 96 OFFCURVE",
"151 221 OFFCURVE",
"151 355 CURVE SMOOTH"
);
}
);
width = 746;
}
);
unicode = 004F;
},
{
glyphname = O.sc;
layers = (
{
layerId = "AC509B01-5F4C-4AA2-97FB-92B74F0D1424";
name = Bold;
paths = (
{
closed = 1;
nodes = (
"494 -4 OFFCURVE",
"616 129 OFFCURVE",
"616 276 CURVE SMOOTH",
"616 416 OFFCURVE",
"501 558 OFFCURVE",
"328 558 CURVE SMOOTH",
"161 558 OFFCURVE",
"37 425 OFFCURVE",
"37 278 CURVE SMOOTH",
"37 135 OFFCURVE",
"154 -4 OFFCURVE",
"326 -4 CURVE SMOOTH"
);
},
{
closed = 1;
nodes = (
"138 371 OFFCURVE",
"208 469 OFFCURVE",
"326 469 CURVE SMOOTH",
"440 469 OFFCURVE",
"514 377 OFFCURVE",
"514 278 CURVE SMOOTH",
"514 183 OFFCURVE",
"446 85 OFFCURVE",
"327 85 CURVE SMOOTH",
"211 85 OFFCURVE",
"138 178 OFFCURVE",
"138 277 CURVE SMOOTH"
);
}
);
width = 652;
}
);
},
{
glyphname = OE;
layers = (
{
layerId = "AC509B01-5F4C-4AA2-97FB-92B74F0D1424";
name = Bold;
paths = (
{
closed = 1;
nodes = (
"712 99 LINE",
"712 312 LINE",
"1013 312 LINE",
"1013 411 LINE",
"712 411 LINE",
"712 611 LINE",
"1067 611 LINE",
"1067 710 LINE",
"599 710 LINE",
"599 578 LINE",
"555 655 OFFCURVE",
"474 715 OFFCURVE",
"375 715 CURVE SMOOTH",
"181 715 OFFCURVE",
"37 544 OFFCURVE",
"37 355 CURVE SMOOTH",
"37 173 OFFCURVE",
"173 -5 OFFCURVE",
"373 -5 CURVE SMOOTH",
"471 -5 OFFCURVE",
"554 54 OFFCURVE",
"599 132 CURVE",
"599 0 LINE",
"1076 0 LINE",
"1076 99 LINE"
);
},
{
closed = 1;
nodes = (
"237 96 OFFCURVE",
"151 221 OFFCURVE",
"151 355 CURVE SMOOTH",
"151 483 OFFCURVE",
"234 614 OFFCURVE",
"373 614 CURVE SMOOTH",
"507 614 OFFCURVE",
"595 490 OFFCURVE",
"595 356 CURVE SMOOTH",
"595 227 OFFCURVE",
"513 96 OFFCURVE",
"373 96 CURVE SMOOTH"
);
}
);
width = 1115;
}
);
unicode = 0152;
},
{
glyphname = Oacute;
layers = (
{
layerId = "AC509B01-5F4C-4AA2-97FB-92B74F0D1424";
name = Bold;
paths = (
{
closed = 1;
nodes = (
"489 916 LINE",
"384 916 LINE",
"327 806 LINE",
"399 784 LINE"
);
},
{
closed = 1;
nodes = (
"566 -5 OFFCURVE",
"709 165 OFFCURVE",
"709 354 CURVE SMOOTH",
"709 532 OFFCURVE",
"575 715 OFFCURVE",
"375 715 CURVE SMOOTH",
"181 715 OFFCURVE",
"37 544 OFFCURVE",
"37 355 CURVE SMOOTH",
"37 173 OFFCURVE",
"172 -5 OFFCURVE",
"372 -5 CURVE SMOOTH"
);
},
{
closed = 1;
nodes = (
"151 483 OFFCURVE",
"234 613 OFFCURVE",
"373 613 CURVE SMOOTH",
"507 613 OFFCURVE",
"595 490 OFFCURVE",
"595 355 CURVE SMOOTH",
"595 228 OFFCURVE",
"513 96 OFFCURVE",
"373 96 CURVE SMOOTH",
"237 96 OFFCURVE",
"151 221 OFFCURVE",
"151 355 CURVE SMOOTH"
);
}
);
width = 746;
}
);
unicode = 00D3;
},
{
glyphname = Obreve;
layers = (
{
layerId = "AC509B01-5F4C-4AA2-97FB-92B74F0D1424";
name = Bold;
paths = (
{
closed = 1;
nodes = (
"566 -5 OFFCURVE",
"709 165 OFFCURVE",
"709 354 CURVE SMOOTH",
"709 532 OFFCURVE",
"575 715 OFFCURVE",
"375 715 CURVE SMOOTH",
"181 715 OFFCURVE",
"37 544 OFFCURVE",
"37 355 CURVE SMOOTH",
"37 173 OFFCURVE",
"172 -5 OFFCURVE",
"372 -5 CURVE SMOOTH"
);
},
{
closed = 1;
nodes = (
"151 483 OFFCURVE",
"234 613 OFFCURVE",
"373 613 CURVE SMOOTH",
"507 613 OFFCURVE",
"595 490 OFFCURVE",
"595 355 CURVE SMOOTH",
"595 228 OFFCURVE",
"513 96 OFFCURVE",
"373 96 CURVE SMOOTH",
"237 96 OFFCURVE",
"151 221 OFFCURVE",
"151 355 CURVE SMOOTH"
);
},
{
closed = 1;
nodes = (
"344 845 OFFCURVE",
"317 878 OFFCURVE",
"317 916 CURVE",
"256 916 LINE",
"256 846 OFFCURVE",
"307 794 OFFCURVE",
"375 794 CURVE SMOOTH",
"443 794 OFFCURVE",
"494 846 OFFCURVE",
"494 916 CURVE",
"433 916 LINE",
"429 875 OFFCURVE",
"404 845 OFFCURVE",
"375 845 CURVE SMOOTH"
);
}
);
width = 746;
}
);
unicode = 014E;
},
{
glyphname = Ocircumflex;
layers = (
{
layerId = "AC509B01-5F4C-4AA2-97FB-92B74F0D1424";
name = Bold;
paths = (
{
closed = 1;
nodes = (
"289 793 LINE",
"374 856 LINE",
"459 793 LINE",
"518 821 LINE",
"414 916 LINE",
"335 916 LINE",
"231 821 LINE"
);
},
{
closed = 1;
nodes = (
"566 -5 OFFCURVE",
"709 165 OFFCURVE",
"709 354 CURVE SMOOTH",
"709 532 OFFCURVE",
"575 715 OFFCURVE",
"375 715 CURVE SMOOTH",
"181 715 OFFCURVE",
"37 544 OFFCURVE",
"37 355 CURVE SMOOTH",
"37 173 OFFCURVE",
"172 -5 OFFCURVE",
"372 -5 CURVE SMOOTH"
);
},
{
closed = 1;
nodes = (
"151 483 OFFCURVE",
"234 613 OFFCURVE",
"373 613 CURVE SMOOTH",
"507 613 OFFCURVE",
"595 490 OFFCURVE",
"595 355 CURVE SMOOTH",
"595 228 OFFCURVE",
"513 96 OFFCURVE",
"373 96 CURVE SMOOTH",
"237 96 OFFCURVE",
"151 221 OFFCURVE",
"151 355 CURVE SMOOTH"
);
}
);
width = 746;
}
);
unicode = 00D4;
},
{
glyphname = Odieresis;
layers = (
{
layerId = "AC509B01-5F4C-4AA2-97FB-92B74F0D1424";
name = Bold;
paths = (
{
closed = 1;
nodes = (
"332 802 LINE",
"332 912 LINE",
"240 912 LINE",
"240 802 LINE"
);
},
{
closed = 1;
nodes = (
"509 802 LINE",
"509 912 LINE",
"417 912 LINE",
"417 802 LINE"
);
},
{
closed = 1;
nodes = (
"566 -5 OFFCURVE",
"709 165 OFFCURVE",
"709 354 CURVE SMOOTH",
"709 532 OFFCURVE",
"575 715 OFFCURVE",
"375 715 CURVE SMOOTH",
"181 715 OFFCURVE",
"37 544 OFFCURVE",
"37 355 CURVE SMOOTH",
"37 173 OFFCURVE",
"172 -5 OFFCURVE",
"372 -5 CURVE SMOOTH"
);
},
{
closed = 1;
nodes = (
"151 483 OFFCURVE",
"234 613 OFFCURVE",
"373 613 CURVE SMOOTH",
"507 613 OFFCURVE",
"595 490 OFFCURVE",
"595 355 CURVE SMOOTH",
"595 228 OFFCURVE",
"513 96 OFFCURVE",
"373 96 CURVE SMOOTH",
"237 96 OFFCURVE",
"151 221 OFFCURVE",
"151 355 CURVE SMOOTH"
);
}
);
width = 746;
}
);
unicode = 00D6;
},
{
glyphname = Ograve;
layers = (
{
layerId = "AC509B01-5F4C-4AA2-97FB-92B74F0D1424";
name = Bold;
paths = (
{
closed = 1;
nodes = (
"566 -5 OFFCURVE",
"709 165 OFFCURVE",
"709 354 CURVE SMOOTH",
"709 532 OFFCURVE",
"575 715 OFFCURVE",
"375 715 CURVE SMOOTH",
"181 715 OFFCURVE",
"37 544 OFFCURVE",
"37 355 CURVE SMOOTH",
"37 173 OFFCURVE",
"172 -5 OFFCURVE",
"372 -5 CURVE SMOOTH"
);
},
{
closed = 1;
nodes = (
"151 483 OFFCURVE",
"234 613 OFFCURVE",
"373 613 CURVE SMOOTH",
"507 613 OFFCURVE",
"595 490 OFFCURVE",
"595 355 CURVE SMOOTH",
"595 228 OFFCURVE",
"513 96 OFFCURVE",
"373 96 CURVE SMOOTH",
"237 96 OFFCURVE",
"151 221 OFFCURVE",
"151 355 CURVE SMOOTH"
);
},
{
closed = 1;
nodes = (
"351 785 LINE",
"421 807 LINE",
"364 917 LINE",
"259 917 LINE"
);
}
);
width = 746;
}
);
unicode = 00D2;
},
{
glyphname = Ohungarumlaut;
layers = (
{
layerId = "AC509B01-5F4C-4AA2-97FB-92B74F0D1424";
name = Bold;
paths = (
{
closed = 1;
nodes = (
"396 917 LINE",
"307 917 LINE",
"256 807 LINE",
"311 785 LINE"
);
},
{
closed = 1;
nodes = (
"544 917 LINE",
"454 917 LINE",
"403 807 LINE",
"459 785 LINE"
);
},
{
closed = 1;
nodes = (
"566 -5 OFFCURVE",
"709 165 OFFCURVE",
"709 354 CURVE SMOOTH",
"709 532 OFFCURVE",
"575 715 OFFCURVE",
"375 715 CURVE SMOOTH",
"181 715 OFFCURVE",
"37 544 OFFCURVE",
"37 355 CURVE SMOOTH",
"37 173 OFFCURVE",
"172 -5 OFFCURVE",
"372 -5 CURVE SMOOTH"
);
},
{
closed = 1;
nodes = (
"151 483 OFFCURVE",
"234 613 OFFCURVE",
"373 613 CURVE SMOOTH",
"507 613 OFFCURVE",
"595 490 OFFCURVE",
"595 355 CURVE SMOOTH",
"595 228 OFFCURVE",
"513 96 OFFCURVE",
"373 96 CURVE SMOOTH",
"237 96 OFFCURVE",
"151 221 OFFCURVE",
"151 355 CURVE SMOOTH"
);
}
);
width = 746;
}
);
unicode = 0150;
},
{
glyphname = hungarumlaut;
layers = (
{
layerId = "AC509B01-5F4C-4AA2-97FB-92B74F0D1424";
name = Bold;
paths = (
{
closed = 1;
nodes = (
"177 730 LINE",
"88 730 LINE",
"37 620 LINE",
"92 598 LINE"
);
},
{
closed = 1;
nodes = (
"325 730 LINE",
"235 730 LINE",
"184 620 LINE",
"240 598 LINE"
);
}
);
width = 351;
}
);
unicode = 02DD;
},
{
glyphname = Omacron;
layers = (
{
layerId = "AC509B01-5F4C-4AA2-97FB-92B74F0D1424";
name = Bold;
paths = (
{
closed = 1;
nodes = (
"524 830 LINE",
"524 900 LINE",
"228 900 LINE",
"228 830 LINE"
);
},
{
closed = 1;
nodes = (
"566 -5 OFFCURVE",
"709 165 OFFCURVE",
"709 354 CURVE SMOOTH",
"709 532 OFFCURVE",
"575 715 OFFCURVE",
"375 715 CURVE SMOOTH",
"181 715 OFFCURVE",
"37 544 OFFCURVE",
"37 355 CURVE SMOOTH",
"37 173 OFFCURVE",
"172 -5 OFFCURVE",
"372 -5 CURVE SMOOTH"
);
},
{
closed = 1;
nodes = (
"151 483 OFFCURVE",
"234 613 OFFCURVE",
"373 613 CURVE SMOOTH",
"507 613 OFFCURVE",
"595 490 OFFCURVE",
"595 355 CURVE SMOOTH",
"595 228 OFFCURVE",
"513 96 OFFCURVE",
"373 96 CURVE SMOOTH",
"237 96 OFFCURVE",
"151 221 OFFCURVE",
"151 355 CURVE SMOOTH"
);
}
);
width = 746;
}
);
unicode = 014C;
},
{
glyphname = Oogonek;
layers = (
{
layerId = "AC509B01-5F4C-4AA2-97FB-92B74F0D1424";
name = Bold;
paths = (
{
closed = 1;
nodes = (
"377 -135 LINE",
"337 -131 OFFCURVE",
"318 -116 OFFCURVE",
"318 -93 CURVE SMOOTH",
"318 -65 OFFCURVE",
"342 -37 OFFCURVE",
"397 -3 CURVE",
"578 10 OFFCURVE",
"709 173 OFFCURVE",
"709 354 CURVE SMOOTH",
"709 532 OFFCURVE",
"575 715 OFFCURVE",
"375 715 CURVE SMOOTH",
"181 715 OFFCURVE",
"37 544 OFFCURVE",
"37 355 CURVE SMOOTH",
"37 184 OFFCURVE",
"155 18 OFFCURVE",
"335 -2 CURVE",
"282 -37 OFFCURVE",
"257 -73 OFFCURVE",
"257 -108 CURVE SMOOTH",
"257 -147 OFFCURVE",
"289 -180 OFFCURVE",
"352 -190 CURVE"
);
},
{
closed = 1;
nodes = (
"151 483 OFFCURVE",
"234 613 OFFCURVE",
"373 613 CURVE SMOOTH",
"507 613 OFFCURVE",
"595 490 OFFCURVE",
"595 355 CURVE SMOOTH",
"595 228 OFFCURVE",
"513 96 OFFCURVE",
"373 96 CURVE SMOOTH",
"237 96 OFFCURVE",
"151 221 OFFCURVE",
"151 355 CURVE SMOOTH"
);
}
);
width = 746;
}
);
unicode = 01EA;
},
{
glyphname = Oslash;
layers = (
{
layerId = "AC509B01-5F4C-4AA2-97FB-92B74F0D1424";
name = Bold;
paths = (
{
closed = 1;
nodes = (
"555 710 LINE",
"530 673 LINE",
"485 699 OFFCURVE",
"432 715 OFFCURVE",
"375 715 CURVE SMOOTH",
"181 715 OFFCURVE",
"37 544 OFFCURVE",
"37 355 CURVE SMOOTH",
"37 260 OFFCURVE",
"73 167 OFFCURVE",
"136 99 CURVE",
"69 0 LINE",
"191 0 LINE",
"216 36 LINE",
"261 10 OFFCURVE",
"314 -5 OFFCURVE",
"372 -5 CURVE SMOOTH",
"566 -5 OFFCURVE",
"709 165 OFFCURVE",
"709 354 CURVE SMOOTH",
"709 446 OFFCURVE",
"672 541 OFFCURVE",
"609 610 CURVE",
"678 710 LINE"
);
},
{
closed = 1;
nodes = (
"151 483 OFFCURVE",
"234 613 OFFCURVE",
"373 613 CURVE SMOOTH",
"409 613 OFFCURVE",
"442 604 OFFCURVE",
"471 588 CURVE",
"199 191 LINE",
"168 237 OFFCURVE",
"151 295 OFFCURVE",
"151 355 CURVE SMOOTH"
);
},
{
closed = 1;
nodes = (
"595 228 OFFCURVE",
"513 96 OFFCURVE",
"373 96 CURVE SMOOTH",
"336 96 OFFCURVE",
"303 105 OFFCURVE",
"274 121 CURVE",
"546 518 LINE",
"577 472 OFFCURVE",
"595 415 OFFCURVE",
"595 355 CURVE SMOOTH"
);
}
);
width = 747;
}
);
unicode = 00D8;
},
{
glyphname = slash;
layers = (
{
layerId = "AC509B01-5F4C-4AA2-97FB-92B74F0D1424";
name = Bold;
paths = (
{
closed = 1;
nodes = (
"515 710 LINE",
"29 0 LINE",
"151 0 LINE",
"638 710 LINE"
);
}
);
width = 665;
}
);
unicode = 002F;
},
{
glyphname = Oslashacute;
layers = (
{
layerId = "AC509B01-5F4C-4AA2-97FB-92B74F0D1424";
name = Bold;
paths = (
{
closed = 1;
nodes = (
"555 710 LINE",
"530 673 LINE",
"485 699 OFFCURVE",
"432 715 OFFCURVE",
"375 715 CURVE SMOOTH",
"181 715 OFFCURVE",
"37 544 OFFCURVE",
"37 355 CURVE SMOOTH",
"37 260 OFFCURVE",
"73 167 OFFCURVE",
"136 99 CURVE",
"69 0 LINE",
"191 0 LINE",
"216 36 LINE",
"261 10 OFFCURVE",
"314 -5 OFFCURVE",
"372 -5 CURVE SMOOTH",
"566 -5 OFFCURVE",
"709 165 OFFCURVE",
"709 354 CURVE SMOOTH",
"709 446 OFFCURVE",
"672 541 OFFCURVE",
"609 610 CURVE",
"678 710 LINE"
);
},
{
closed = 1;
nodes = (
"151 483 OFFCURVE",
"234 613 OFFCURVE",
"373 613 CURVE SMOOTH",
"409 613 OFFCURVE",
"442 604 OFFCURVE",
"471 588 CURVE",
"199 191 LINE",
"168 237 OFFCURVE",
"151 295 OFFCURVE",
"151 355 CURVE SMOOTH"
);
},
{
closed = 1;
nodes = (
"595 228 OFFCURVE",
"513 96 OFFCURVE",
"373 96 CURVE SMOOTH",
"336 96 OFFCURVE",
"303 105 OFFCURVE",
"274 121 CURVE",
"546 518 LINE",
"577 472 OFFCURVE",
"595 415 OFFCURVE",
"595 355 CURVE SMOOTH"
);
},
{
closed = 1;
nodes = (
"489 916 LINE",
"384 916 LINE",
"327 806 LINE",
"399 784 LINE"
);
}
);
width = 747;
}
);
unicode = 01FE;
},
{
glyphname = Otilde;
layers = (
{
layerId = "AC509B01-5F4C-4AA2-97FB-92B74F0D1424";
name = Bold;
paths = (
{
closed = 1;
nodes = (
"566 -5 OFFCURVE",
"709 165 OFFCURVE",
"709 354 CURVE SMOOTH",
"709 532 OFFCURVE",
"575 715 OFFCURVE",
"375 715 CURVE SMOOTH",
"181 715 OFFCURVE",
"37 544 OFFCURVE",
"37 355 CURVE SMOOTH",
"37 173 OFFCURVE",
"172 -5 OFFCURVE",
"372 -5 CURVE SMOOTH"
);
},
{
closed = 1;
nodes = (
"151 483 OFFCURVE",
"234 613 OFFCURVE",
"373 613 CURVE SMOOTH",
"507 613 OFFCURVE",
"595 490 OFFCURVE",
"595 355 CURVE SMOOTH",
"595 228 OFFCURVE",
"513 96 OFFCURVE",
"373 96 CURVE SMOOTH",
"237 96 OFFCURVE",
"151 221 OFFCURVE",
"151 355 CURVE SMOOTH"
);
},
{
closed = 1;
nodes = (
"526 801 OFFCURVE",
"551 899 OFFCURVE",
"551 916 CURVE",
"488 916 LINE",
"488 912 OFFCURVE",
"483 867 OFFCURVE",
"434 867 CURVE SMOOTH",
"385 867 OFFCURVE",
"362 911 OFFCURVE",
"303 911 CURVE SMOOTH",
"220 911 OFFCURVE",
"196 817 OFFCURVE",
"196 796 CURVE",
"258 796 LINE",
"258 800 OFFCURVE",
"262 844 OFFCURVE",
"307 844 CURVE SMOOTH",
"350 844 OFFCURVE",
"376 801 OFFCURVE",
"437 801 CURVE SMOOTH"
);
}
);
width = 746;
}
);
unicode = 00D5;
},
{
glyphname = P;
layers = (
{
layerId = "AC509B01-5F4C-4AA2-97FB-92B74F0D1424";
name = Bold;
paths = (
{
closed = 1;
nodes = (
"192 0 LINE",
"192 247 LINE",
"384 247 LINE SMOOTH",
"512 247 OFFCURVE",
"598 360 OFFCURVE",
"598 479 CURVE SMOOTH",
"598 593 OFFCURVE",
"506 710 OFFCURVE",
"378 710 CURVE SMOOTH",
"80 710 LINE",
"80 0 LINE"
);
},
{
closed = 1;
nodes = (
"192 611 LINE",
"371 611 LINE SMOOTH",
"431 611 OFFCURVE",
"484 558 OFFCURVE",
"484 479 CURVE SMOOTH",
"484 403 OFFCURVE",
"440 346 OFFCURVE",
"377 346 CURVE SMOOTH",
"192 346 LINE"
);
}
);
width = 621;
}
);
unicode = 0050;
},
{
glyphname = P.sc;
layers = (
{
layerId = "AC509B01-5F4C-4AA2-97FB-92B74F0D1424";
name = Bold;
paths = (
{
closed = 1;
nodes = (
"172 0 LINE",
"172 189 LINE",
"335 189 LINE SMOOTH",
"446 189 OFFCURVE",
"520 278 OFFCURVE",
"520 372 CURVE SMOOTH",
"520 462 OFFCURVE",
"441 555 OFFCURVE",
"329 555 CURVE SMOOTH",
"72 555 LINE",
"72 0 LINE"
);
},
{
closed = 1;
nodes = (
"172 467 LINE",
"324 467 LINE SMOOTH",
"374 467 OFFCURVE",
"420 430 OFFCURVE",
"420 372 CURVE SMOOTH",
"420 315 OFFCURVE",
"382 276 OFFCURVE",
"328 276 CURVE SMOOTH",
"172 276 LINE"
);
}
);
width = 545;
}
);
},
{
glyphname = Q;
layers = (
{
layerId = "AC509B01-5F4C-4AA2-97FB-92B74F0D1424";
name = Bold;
paths = (
{
closed = 1;
nodes = (
"603 0 LINE",
"711 0 LINE",
"617 108 LINE",
"674 173 OFFCURVE",
"709 261 OFFCURVE",
"709 354 CURVE SMOOTH",
"709 532 OFFCURVE",
"575 715 OFFCURVE",
"375 715 CURVE SMOOTH",
"181 715 OFFCURVE",
"37 544 OFFCURVE",
"37 355 CURVE SMOOTH",
"37 173 OFFCURVE",
"172 -4 OFFCURVE",
"372 -5 CURVE SMOOTH",
"441 -5 OFFCURVE",
"504 17 OFFCURVE",
"556 53 CURVE"
);
},
{
closed = 1;
nodes = (
"237 96 OFFCURVE",
"151 221 OFFCURVE",
"151 355 CURVE SMOOTH",
"151 483 OFFCURVE",
"234 614 OFFCURVE",
"373 614 CURVE SMOOTH",
"507 614 OFFCURVE",
"595 490 OFFCURVE",
"595 355 CURVE SMOOTH",
"595 296 OFFCURVE",
"578 237 OFFCURVE",
"545 190 CURVE",
"496 247 LINE",
"388 247 LINE",
"488 131 LINE",
"456 109 OFFCURVE",
"417 96 OFFCURVE",
"373 96 CURVE SMOOTH"
);
}
);
width = 747;
}
);
unicode = 0051;
},
{
glyphname = Q.sc;
layers = (
{
layerId = "AC509B01-5F4C-4AA2-97FB-92B74F0D1424";
name = Bold;
paths = (
{
closed = 1;
nodes = (
"524 0 LINE",
"620 0 LINE",
"539 86 LINE",
"587 137 OFFCURVE",
"616 205 OFFCURVE",
"616 276 CURVE SMOOTH",
"616 416 OFFCURVE",
"501 559 OFFCURVE",
"328 559 CURVE SMOOTH",
"161 559 OFFCURVE",
"37 425 OFFCURVE",
"37 278 CURVE SMOOTH",
"37 135 OFFCURVE",
"154 -4 OFFCURVE",
"326 -4 CURVE SMOOTH",
"386 -4 OFFCURVE",
"440 13 OFFCURVE",
"485 42 CURVE"
);
},
{
closed = 1;
nodes = (
"211 85 OFFCURVE",
"138 178 OFFCURVE",
"138 277 CURVE SMOOTH",
"138 371 OFFCURVE",
"208 470 OFFCURVE",
"326 470 CURVE SMOOTH",
"440 470 OFFCURVE",
"514 377 OFFCURVE",
"514 278 CURVE SMOOTH",
"514 235 OFFCURVE",
"500 191 OFFCURVE",
"473 156 CURVE",
"432 200 LINE",
"336 200 LINE",
"421 109 LINE",
"395 94 OFFCURVE",
"363 85 OFFCURVE",
"327 85 CURVE SMOOTH"
);
}
);
width = 654;
}
);
},
{
glyphname = R;
layers = (
{
layerId = "AC509B01-5F4C-4AA2-97FB-92B74F0D1424";
name = Bold;
paths = (
{
closed = 1;
nodes = (
"192 0 LINE",
"192 247 LINE",
"356 247 LINE",
"512 0 LINE",
"639 0 LINE",
"470 270 LINE",
"554 297 OFFCURVE",
"609 384 OFFCURVE",
"609 479 CURVE SMOOTH",
"609 593 OFFCURVE",
"517 710 OFFCURVE",
"389 710 CURVE SMOOTH",
"80 710 LINE",
"80 0 LINE"
);
},
{
closed = 1;
nodes = (
"192 611 LINE",
"382 611 LINE SMOOTH",
"441 611 OFFCURVE",
"495 552 OFFCURVE",
"495 479 CURVE SMOOTH",
"495 407 OFFCURVE",
"451 346 OFFCURVE",
"388 346 CURVE SMOOTH",
"192 346 LINE"
);
}
);
width = 669;
}
);
unicode = 0052;
},
{
glyphname = R.sc;
layers = (
{
layerId = "AC509B01-5F4C-4AA2-97FB-92B74F0D1424";
name = Bold;
paths = (
{
closed = 1;
nodes = (
"172 0 LINE",
"172 189 LINE",
"310 189 LINE",
"443 0 LINE",
"557 0 LINE",
"411 209 LINE",
"483 233 OFFCURVE",
"530 300 OFFCURVE",
"530 372 CURVE SMOOTH",
"530 462 OFFCURVE",
"450 555 OFFCURVE",
"339 555 CURVE SMOOTH",
"72 555 LINE",
"72 0 LINE"
);
},
{
closed = 1;
nodes = (
"172 467 LINE",
"333 467 LINE SMOOTH",
"384 467 OFFCURVE",
"429 426 OFFCURVE",
"429 372 CURVE SMOOTH",
"429 319 OFFCURVE",
"391 276 OFFCURVE",
"338 276 CURVE SMOOTH",
"172 276 LINE"
);
}
);
width = 586;
}
);
},
{
glyphname = Racute;
layers = (
{
layerId = "AC509B01-5F4C-4AA2-97FB-92B74F0D1424";
name = Bold;
paths = (
{
closed = 1;
nodes = (
"434 917 LINE",
"329 917 LINE",
"272 807 LINE",
"344 785 LINE"
);
},
{
closed = 1;
nodes = (
"192 0 LINE",
"192 247 LINE",
"356 247 LINE",
"512 0 LINE",
"639 0 LINE",
"470 270 LINE",
"554 297 OFFCURVE",
"609 384 OFFCURVE",
"609 479 CURVE SMOOTH",
"609 593 OFFCURVE",
"517 710 OFFCURVE",
"389 710 CURVE SMOOTH",
"80 710 LINE",
"80 0 LINE"
);
},
{
closed = 1;
nodes = (
"192 611 LINE",
"382 611 LINE SMOOTH",
"441 611 OFFCURVE",
"495 552 OFFCURVE",
"495 479 CURVE SMOOTH",
"495 407 OFFCURVE",
"451 346 OFFCURVE",
"388 346 CURVE SMOOTH",
"192 346 LINE"
);
}
);
width = 669;
}
);
unicode = 0154;
},
{
glyphname = Rcaron;
layers = (
{
layerId = "AC509B01-5F4C-4AA2-97FB-92B74F0D1424";
name = Bold;
paths = (
{
closed = 1;
nodes = (
"175 889 LINE",
"279 794 LINE",
"358 794 LINE",
"462 889 LINE",
"403 917 LINE",
"318 854 LINE",
"233 917 LINE"
);
},
{
closed = 1;
nodes = (
"192 0 LINE",
"192 247 LINE",
"356 247 LINE",
"512 0 LINE",
"639 0 LINE",
"470 270 LINE",
"554 297 OFFCURVE",
"609 384 OFFCURVE",
"609 479 CURVE SMOOTH",
"609 593 OFFCURVE",
"517 710 OFFCURVE",
"389 710 CURVE SMOOTH",
"80 710 LINE",
"80 0 LINE"
);
},
{
closed = 1;
nodes = (
"192 611 LINE",
"382 611 LINE SMOOTH",
"441 611 OFFCURVE",
"495 552 OFFCURVE",
"495 479 CURVE SMOOTH",
"495 407 OFFCURVE",
"451 346 OFFCURVE",
"388 346 CURVE SMOOTH",
"192 346 LINE"
);
}
);
width = 669;
}
);
unicode = 0158;
},
{
glyphname = Rcommaaccent;
layers = (
{
layerId = "AC509B01-5F4C-4AA2-97FB-92B74F0D1424";
name = Bold;
paths = (
{
closed = 1;
nodes = (
"262 -182 LINE",
"331 -182 OFFCURVE",
"381 -172 OFFCURVE",
"381 -115 CURVE SMOOTH",
"381 -48 LINE",
"291 -48 LINE",
"291 -112 LINE SMOOTH",
"291 -128 OFFCURVE",
"281 -134 OFFCURVE",
"262 -134 CURVE"
);
},
{
closed = 1;
nodes = (
"192 0 LINE",
"192 247 LINE",
"356 247 LINE",
"512 0 LINE",
"639 0 LINE",
"470 270 LINE",
"554 297 OFFCURVE",
"609 384 OFFCURVE",
"609 479 CURVE SMOOTH",
"609 593 OFFCURVE",
"517 710 OFFCURVE",
"389 710 CURVE SMOOTH",
"80 710 LINE",
"80 0 LINE"
);
},
{
closed = 1;
nodes = (
"192 611 LINE",
"382 611 LINE SMOOTH",
"441 611 OFFCURVE",
"495 552 OFFCURVE",
"495 479 CURVE SMOOTH",
"495 407 OFFCURVE",
"451 346 OFFCURVE",
"388 346 CURVE SMOOTH",
"192 346 LINE"
);
}
);
width = 669;
}
);
unicode = 0156;
},
{
glyphname = S;
layers = (
{
layerId = "AC509B01-5F4C-4AA2-97FB-92B74F0D1424";
name = Bold;
paths = (
{
closed = 1;
nodes = (
"552 635 LINE",
"491 680 OFFCURVE",
"409 715 OFFCURVE",
"311 715 CURVE SMOOTH",
"167 715 OFFCURVE",
"55 639 OFFCURVE",
"55 499 CURVE SMOOTH",
"55 388 OFFCURVE",
"126 346 OFFCURVE",
"266 309 CURVE SMOOTH",
"389 277 OFFCURVE",
"460 257 OFFCURVE",
"460 186 CURVE SMOOTH",
"460 126 OFFCURVE",
"410 94 OFFCURVE",
"325 94 CURVE SMOOTH",
"213 94 OFFCURVE",
"113 150 OFFCURVE",
"79 185 CURVE",
"27 89 LINE",
"108 27 OFFCURVE",
"213 -7 OFFCURVE",
"321 -7 CURVE SMOOTH",
"462 -7 OFFCURVE",
"581 51 OFFCURVE",
"581 199 CURVE SMOOTH",
"581 330 OFFCURVE",
"487 367 OFFCURVE",
"347 403 CURVE SMOOTH",
"229 433 OFFCURVE",
"171 448 OFFCURVE",
"171 516 CURVE SMOOTH",
"171 578 OFFCURVE",
"218 615 OFFCURVE",
"305 615 CURVE SMOOTH",
"398 615 OFFCURVE",
"474 572 OFFCURVE",
"501 543 CURVE"
);
}
);
width = 614;
}
);
unicode = 0053;
},
{
glyphname = S.sc;
layers = (
{
layerId = "AC509B01-5F4C-4AA2-97FB-92B74F0D1424";
name = Bold;
paths = (
{
closed = 1;
nodes = (
"474 496 LINE",
"423 532 OFFCURVE",
"353 559 OFFCURVE",
"271 559 CURVE SMOOTH",
"149 559 OFFCURVE",
"54 500 OFFCURVE",
"54 390 CURVE SMOOTH",
"54 301 OFFCURVE",
"112 266 OFFCURVE",
"229 237 CURVE SMOOTH",
"330 213 OFFCURVE",
"392 198 OFFCURVE",
"392 147 CURVE SMOOTH",
"392 105 OFFCURVE",
"350 83 OFFCURVE",
"280 83 CURVE SMOOTH",
"189 83 OFFCURVE",
"109 121 OFFCURVE",
"76 153 CURVE",
"30 67 LINE",
"98 21 OFFCURVE",
"188 -6 OFFCURVE",
"278 -6 CURVE SMOOTH",
"398 -6 OFFCURVE",
"499 40 OFFCURVE",
"499 157 CURVE SMOOTH",
"499 258 OFFCURVE",
"422 291 OFFCURVE",
"302 319 CURVE SMOOTH",
"205 341 OFFCURVE",
"156 354 OFFCURVE",
"156 402 CURVE SMOOTH",
"156 445 OFFCURVE",
"192 471 OFFCURVE",
"269 471 CURVE SMOOTH",
"340 471 OFFCURVE",
"404 440 OFFCURVE",
"430 415 CURVE"
);
}
);
width = 533;
}
);
},
{
glyphname = Sacute;
layers = (
{
layerId = "AC509B01-5F4C-4AA2-97FB-92B74F0D1424";
name = Bold;
paths = (
{
closed = 1;
nodes = (
"434 927 LINE",
"329 927 LINE",
"272 817 LINE",
"344 795 LINE"
);
},
{
closed = 1;
nodes = (
"552 635 LINE",
"491 680 OFFCURVE",
"409 715 OFFCURVE",
"311 715 CURVE SMOOTH",
"167 715 OFFCURVE",
"55 639 OFFCURVE",
"55 499 CURVE SMOOTH",
"55 388 OFFCURVE",
"126 346 OFFCURVE",
"266 309 CURVE SMOOTH",
"389 277 OFFCURVE",
"460 257 OFFCURVE",
"460 186 CURVE SMOOTH",
"460 126 OFFCURVE",
"410 94 OFFCURVE",
"325 94 CURVE SMOOTH",
"213 94 OFFCURVE",
"113 150 OFFCURVE",
"79 185 CURVE",
"27 89 LINE",
"108 27 OFFCURVE",
"213 -7 OFFCURVE",
"321 -7 CURVE SMOOTH",
"462 -7 OFFCURVE",
"581 51 OFFCURVE",
"581 199 CURVE SMOOTH",
"581 330 OFFCURVE",
"487 367 OFFCURVE",
"347 403 CURVE SMOOTH",
"229 433 OFFCURVE",
"171 448 OFFCURVE",
"171 516 CURVE SMOOTH",
"171 578 OFFCURVE",
"218 615 OFFCURVE",
"305 615 CURVE SMOOTH",
"398 615 OFFCURVE",
"474 572 OFFCURVE",
"501 543 CURVE"
);
}
);
width = 614;
}
);
unicode = 015A;
},
{
glyphname = Scaron;
layers = (
{
layerId = "AC509B01-5F4C-4AA2-97FB-92B74F0D1424";
name = Bold;
paths = (
{
closed = 1;
nodes = (
"176 899 LINE",
"280 804 LINE",
"359 804 LINE",
"463 899 LINE",
"404 927 LINE",
"319 864 LINE",
"234 927 LINE"
);
},
{
closed = 1;
nodes = (
"552 635 LINE",
"491 680 OFFCURVE",
"409 715 OFFCURVE",
"311 715 CURVE SMOOTH",
"167 715 OFFCURVE",
"55 639 OFFCURVE",
"55 499 CURVE SMOOTH",
"55 388 OFFCURVE",
"126 346 OFFCURVE",
"266 309 CURVE SMOOTH",
"389 277 OFFCURVE",
"460 257 OFFCURVE",
"460 186 CURVE SMOOTH",
"460 126 OFFCURVE",
"410 94 OFFCURVE",
"325 94 CURVE SMOOTH",
"213 94 OFFCURVE",
"113 150 OFFCURVE",
"79 185 CURVE",
"27 89 LINE",
"108 27 OFFCURVE",
"213 -7 OFFCURVE",
"321 -7 CURVE SMOOTH",
"462 -7 OFFCURVE",
"581 51 OFFCURVE",
"581 199 CURVE SMOOTH",
"581 330 OFFCURVE",
"487 367 OFFCURVE",
"347 403 CURVE SMOOTH",
"229 433 OFFCURVE",
"171 448 OFFCURVE",
"171 516 CURVE SMOOTH",
"171 578 OFFCURVE",
"218 615 OFFCURVE",
"305 615 CURVE SMOOTH",
"398 615 OFFCURVE",
"474 572 OFFCURVE",
"501 543 CURVE"
);
}
);
width = 614;
}
);
unicode = 0160;
},
{
glyphname = Scircumflex;
layers = (
{
layerId = "AC509B01-5F4C-4AA2-97FB-92B74F0D1424";
name = Bold;
paths = (
{
closed = 1;
nodes = (
"234 804 LINE",
"319 867 LINE",
"404 804 LINE",
"463 832 LINE",
"359 927 LINE",
"280 927 LINE",
"176 832 LINE"
);
},
{
closed = 1;
nodes = (
"552 635 LINE",
"491 680 OFFCURVE",
"409 715 OFFCURVE",
"311 715 CURVE SMOOTH",
"167 715 OFFCURVE",
"55 639 OFFCURVE",
"55 499 CURVE SMOOTH",
"55 388 OFFCURVE",
"126 346 OFFCURVE",
"266 309 CURVE SMOOTH",
"389 277 OFFCURVE",
"460 257 OFFCURVE",
"460 186 CURVE SMOOTH",
"460 126 OFFCURVE",
"410 94 OFFCURVE",
"325 94 CURVE SMOOTH",
"213 94 OFFCURVE",
"113 150 OFFCURVE",
"79 185 CURVE",
"27 89 LINE",
"108 27 OFFCURVE",
"213 -7 OFFCURVE",
"321 -7 CURVE SMOOTH",
"462 -7 OFFCURVE",
"581 51 OFFCURVE",
"581 199 CURVE SMOOTH",
"581 330 OFFCURVE",
"487 367 OFFCURVE",
"347 403 CURVE SMOOTH",
"229 433 OFFCURVE",
"171 448 OFFCURVE",
"171 516 CURVE SMOOTH",
"171 578 OFFCURVE",
"218 615 OFFCURVE",
"305 615 CURVE SMOOTH",
"398 615 OFFCURVE",
"474 572 OFFCURVE",
"501 543 CURVE"
);
}
);
width = 614;
}
);
unicode = 015C;
},
{
glyphname = T;
layers = (
{
layerId = "AC509B01-5F4C-4AA2-97FB-92B74F0D1424";
name = Bold;
paths = (
{
closed = 1;
nodes = (
"601 710 LINE",
"16 710 LINE",
"16 611 LINE",
"253 611 LINE",
"253 0 LINE",
"365 0 LINE",
"365 611 LINE",
"601 611 LINE"
);
}
);
width = 618;
}
);
unicode = 0054;
},
{
glyphname = T.sc;
layers = (
{
layerId = "AC509B01-5F4C-4AA2-97FB-92B74F0D1424";
name = Bold;
paths = (
{
closed = 1;
nodes = (
"526 555 LINE",
"21 555 LINE",
"21 467 LINE",
"224 467 LINE",
"224 0 LINE",
"324 0 LINE",
"324 467 LINE",
"526 467 LINE"
);
}
);
width = 546;
}
);
},
{
glyphname = Tbar;
layers = (
{
layerId = "AC509B01-5F4C-4AA2-97FB-92B74F0D1424";
name = Bold;
paths = (
{
closed = 1;
nodes = (
"617 710 LINE",
"32 710 LINE",
"32 611 LINE",
"269 611 LINE",
"269 388 LINE",
"67 388 LINE",
"67 332 LINE",
"269 332 LINE",
"269 0 LINE",
"381 0 LINE",
"381 332 LINE",
"582 332 LINE",
"582 388 LINE",
"381 388 LINE",
"381 611 LINE",
"617 611 LINE"
);
}
);
width = 650;
}
);
unicode = 0166;
},
{
glyphname = Tcaron;
layers = (
{
layerId = "AC509B01-5F4C-4AA2-97FB-92B74F0D1424";
name = Bold;
paths = (
{
closed = 1;
nodes = (
"169 888 LINE",
"273 793 LINE",
"352 793 LINE",
"456 888 LINE",
"397 916 LINE",
"312 853 LINE",
"227 916 LINE"
);
},
{
closed = 1;
nodes = (
"601 710 LINE",
"16 710 LINE",
"16 611 LINE",
"253 611 LINE",
"253 0 LINE",
"365 0 LINE",
"365 611 LINE",
"601 611 LINE"
);
}
);
width = 618;
}
);
unicode = 0164;
},
{
glyphname = Thorn;
layers = (
{
layerId = "AC509B01-5F4C-4AA2-97FB-92B74F0D1424";
name = Bold;
paths = (
{
closed = 1;
nodes = (
"192 577 LINE",
"192 710 LINE",
"80 710 LINE",
"80 0 LINE",
"192 0 LINE",
"192 114 LINE",
"366 114 LINE SMOOTH",
"495 114 OFFCURVE",
"581 226 OFFCURVE",
"581 346 CURVE SMOOTH",
"581 460 OFFCURVE",
"489 577 OFFCURVE",
"361 577 CURVE SMOOTH"
);
},
{
closed = 1;
nodes = (
"192 214 LINE",
"192 478 LINE",
"355 478 LINE SMOOTH",
"416 478 OFFCURVE",
"468 420 OFFCURVE",
"468 346 CURVE SMOOTH",
"468 276 OFFCURVE",
"425 214 OFFCURVE",
"361 214 CURVE SMOOTH"
);
}
);
width = 606;
}
);
unicode = 00DE;
},
{
glyphname = U;
layers = (
{
layerId = "AC509B01-5F4C-4AA2-97FB-92B74F0D1424";
name = Bold;
paths = (
{
closed = 1;
nodes = (
"228 96 OFFCURVE",
"181 220 OFFCURVE",
"181 350 CURVE SMOOTH",
"181 710 LINE",
"69 710 LINE",
"69 350 LINE SMOOTH",
"69 166 OFFCURVE",
"149 -5 OFFCURVE",
"375 -5 CURVE SMOOTH",
"594 -5 OFFCURVE",
"682 156 OFFCURVE",
"682 350 CURVE SMOOTH",
"682 710 LINE",
"569 710 LINE",
"569 350 LINE SMOOTH",
"569 223 OFFCURVE",
"524 96 OFFCURVE",
"375 96 CURVE SMOOTH"
);
}
);
width = 750;
}
);
unicode = 0055;
},
{
glyphname = U.sc;
layers = (
{
layerId = "AC509B01-5F4C-4AA2-97FB-92B74F0D1424";
name = Bold;
paths = (
{
closed = 1;
nodes = (
"201 85 OFFCURVE",
"162 176 OFFCURVE",
"162 273 CURVE SMOOTH",
"162 555 LINE",
"62 555 LINE",
"62 273 LINE SMOOTH",
"62 129 OFFCURVE",
"131 -4 OFFCURVE",
"323 -4 CURVE SMOOTH",
"509 -4 OFFCURVE",
"584 121 OFFCURVE",
"584 273 CURVE SMOOTH",
"584 555 LINE",
"485 555 LINE",
"485 273 LINE SMOOTH",
"485 178 OFFCURVE",
"448 85 OFFCURVE",
"323 85 CURVE SMOOTH"
);
}
);
width = 647;
}
);
},
{
glyphname = Uacute;
layers = (
{
layerId = "AC509B01-5F4C-4AA2-97FB-92B74F0D1424";
name = Bold;
paths = (
{
closed = 1;
nodes = (
"490 916 LINE",
"385 916 LINE",
"328 806 LINE",
"400 784 LINE"
);
},
{
closed = 1;
nodes = (
"228 96 OFFCURVE",
"181 220 OFFCURVE",
"181 350 CURVE SMOOTH",
"181 710 LINE",
"69 710 LINE",
"69 350 LINE SMOOTH",
"69 166 OFFCURVE",
"149 -5 OFFCURVE",
"375 -5 CURVE SMOOTH",
"594 -5 OFFCURVE",
"682 156 OFFCURVE",
"682 350 CURVE SMOOTH",
"682 710 LINE",
"569 710 LINE",
"569 350 LINE SMOOTH",
"569 223 OFFCURVE",
"524 96 OFFCURVE",
"375 96 CURVE SMOOTH"
);
}
);
width = 750;
}
);
unicode = 00DA;
},
{
glyphname = Ubreve;
layers = (
{
layerId = "AC509B01-5F4C-4AA2-97FB-92B74F0D1424";
name = Bold;
paths = (
{
closed = 1;
nodes = (
"228 96 OFFCURVE",
"181 220 OFFCURVE",
"181 350 CURVE SMOOTH",
"181 710 LINE",
"69 710 LINE",
"69 350 LINE SMOOTH",
"69 166 OFFCURVE",
"149 -5 OFFCURVE",
"375 -5 CURVE SMOOTH",
"594 -5 OFFCURVE",
"682 156 OFFCURVE",
"682 350 CURVE SMOOTH",
"682 710 LINE",
"569 710 LINE",
"569 350 LINE SMOOTH",
"569 223 OFFCURVE",
"524 96 OFFCURVE",
"375 96 CURVE SMOOTH"
);
},
{
closed = 1;
nodes = (
"345 845 OFFCURVE",
"318 878 OFFCURVE",
"318 916 CURVE",
"257 916 LINE",
"257 846 OFFCURVE",
"308 794 OFFCURVE",
"376 794 CURVE SMOOTH",
"444 794 OFFCURVE",
"495 846 OFFCURVE",
"495 916 CURVE",
"434 916 LINE",
"430 875 OFFCURVE",
"405 845 OFFCURVE",
"376 845 CURVE SMOOTH"
);
}
);
width = 750;
}
);
unicode = 016C;
},
{
glyphname = Ucircumflex;
layers = (
{
layerId = "AC509B01-5F4C-4AA2-97FB-92B74F0D1424";
name = Bold;
paths = (
{
closed = 1;
nodes = (
"290 793 LINE",
"375 856 LINE",
"460 793 LINE",
"519 821 LINE",
"415 916 LINE",
"336 916 LINE",
"232 821 LINE"
);
},
{
closed = 1;
nodes = (
"228 96 OFFCURVE",
"181 220 OFFCURVE",
"181 350 CURVE SMOOTH",
"181 710 LINE",
"69 710 LINE",
"69 350 LINE SMOOTH",
"69 166 OFFCURVE",
"149 -5 OFFCURVE",
"375 -5 CURVE SMOOTH",
"594 -5 OFFCURVE",
"682 156 OFFCURVE",
"682 350 CURVE SMOOTH",
"682 710 LINE",
"569 710 LINE",
"569 350 LINE SMOOTH",
"569 223 OFFCURVE",
"524 96 OFFCURVE",
"375 96 CURVE SMOOTH"
);
}
);
width = 750;
}
);
unicode = 00DB;
},
{
glyphname = Udieresis;
layers = (
{
layerId = "AC509B01-5F4C-4AA2-97FB-92B74F0D1424";
name = Bold;
paths = (
{
closed = 1;
nodes = (
"333 802 LINE",
"333 912 LINE",
"241 912 LINE",
"241 802 LINE"
);
},
{
closed = 1;
nodes = (
"510 802 LINE",
"510 912 LINE",
"418 912 LINE",
"418 802 LINE"
);
},
{
closed = 1;
nodes = (
"228 96 OFFCURVE",
"181 220 OFFCURVE",
"181 350 CURVE SMOOTH",
"181 710 LINE",
"69 710 LINE",
"69 350 LINE SMOOTH",
"69 166 OFFCURVE",
"149 -5 OFFCURVE",
"375 -5 CURVE SMOOTH",
"594 -5 OFFCURVE",
"682 156 OFFCURVE",
"682 350 CURVE SMOOTH",
"682 710 LINE",
"569 710 LINE",
"569 350 LINE SMOOTH",
"569 223 OFFCURVE",
"524 96 OFFCURVE",
"375 96 CURVE SMOOTH"
);
}
);
width = 750;
}
);
unicode = 00DC;
},
{
glyphname = Ugrave;
layers = (
{
layerId = "AC509B01-5F4C-4AA2-97FB-92B74F0D1424";
name = Bold;
paths = (
{
closed = 1;
nodes = (
"228 96 OFFCURVE",
"181 220 OFFCURVE",
"181 350 CURVE SMOOTH",
"181 710 LINE",
"69 710 LINE",
"69 350 LINE SMOOTH",
"69 166 OFFCURVE",
"149 -5 OFFCURVE",
"375 -5 CURVE SMOOTH",
"594 -5 OFFCURVE",
"682 156 OFFCURVE",
"682 350 CURVE SMOOTH",
"682 710 LINE",
"569 710 LINE",
"569 350 LINE SMOOTH",
"569 223 OFFCURVE",
"524 96 OFFCURVE",
"375 96 CURVE SMOOTH"
);
},
{
closed = 1;
nodes = (
"352 785 LINE",
"422 807 LINE",
"365 917 LINE",
"260 917 LINE"
);
}
);
width = 750;
}
);
unicode = 00D9;
},
{
glyphname = Uhungarumlaut;
layers = (
{
layerId = "AC509B01-5F4C-4AA2-97FB-92B74F0D1424";
name = Bold;
paths = (
{
closed = 1;
nodes = (
"228 96 OFFCURVE",
"181 220 OFFCURVE",
"181 350 CURVE SMOOTH",
"181 710 LINE",
"69 710 LINE",
"69 350 LINE SMOOTH",
"69 166 OFFCURVE",
"149 -5 OFFCURVE",
"375 -5 CURVE SMOOTH",
"594 -5 OFFCURVE",
"682 156 OFFCURVE",
"682 350 CURVE SMOOTH",
"682 710 LINE",
"569 710 LINE",
"569 350 LINE SMOOTH",
"569 223 OFFCURVE",
"524 96 OFFCURVE",
"375 96 CURVE SMOOTH"
);
},
{
closed = 1;
nodes = (
"396 917 LINE",
"307 917 LINE",
"256 807 LINE",
"311 785 LINE"
);
},
{
closed = 1;
nodes = (
"544 917 LINE",
"454 917 LINE",
"403 807 LINE",
"459 785 LINE"
);
}
);
width = 750;
}
);
unicode = 0170;
},
{
glyphname = Umacron;
layers = (
{
layerId = "AC509B01-5F4C-4AA2-97FB-92B74F0D1424";
name = Bold;
paths = (
{
closed = 1;
nodes = (
"228 96 OFFCURVE",
"181 220 OFFCURVE",
"181 350 CURVE SMOOTH",
"181 710 LINE",
"69 710 LINE",
"69 350 LINE SMOOTH",
"69 166 OFFCURVE",
"149 -5 OFFCURVE",
"375 -5 CURVE SMOOTH",
"594 -5 OFFCURVE",
"682 156 OFFCURVE",
"682 350 CURVE SMOOTH",
"682 710 LINE",
"569 710 LINE",
"569 350 LINE SMOOTH",
"569 223 OFFCURVE",
"524 96 OFFCURVE",
"375 96 CURVE SMOOTH"
);
},
{
closed = 1;
nodes = (
"524 830 LINE",
"524 900 LINE",
"228 900 LINE",
"228 830 LINE"
);
}
);
width = 750;
}
);
unicode = 016A;
},
{
glyphname = Uogonek;
layers = (
{
layerId = "AC509B01-5F4C-4AA2-97FB-92B74F0D1424";
name = Bold;
paths = (
{
closed = 1;
nodes = (
"228 96 OFFCURVE",
"181 220 OFFCURVE",
"181 350 CURVE SMOOTH",
"181 710 LINE",
"69 710 LINE",
"69 350 LINE SMOOTH",
"69 176 OFFCURVE",
"140 15 OFFCURVE",
"337 -3 CURVE",
"285 -38 OFFCURVE",
"260 -73 OFFCURVE",
"260 -108 CURVE SMOOTH",
"260 -147 OFFCURVE",
"292 -180 OFFCURVE",
"355 -190 CURVE",
"380 -135 LINE",
"340 -131 OFFCURVE",
"321 -116 OFFCURVE",
"321 -93 CURVE SMOOTH",
"321 -65 OFFCURVE",
"344 -37 OFFCURVE",
"399 -4 CURVE",
"600 7 OFFCURVE",
"682 163 OFFCURVE",
"682 350 CURVE SMOOTH",
"682 710 LINE",
"569 710 LINE",
"569 350 LINE SMOOTH",
"569 223 OFFCURVE",
"524 96 OFFCURVE",
"375 96 CURVE SMOOTH"
);
}
);
width = 750;
}
);
unicode = 0172;
},
{
glyphname = Uring;
layers = (
{
layerId = "AC509B01-5F4C-4AA2-97FB-92B74F0D1424";
name = Bold;
paths = (
{
closed = 1;
nodes = (
"286 798 OFFCURVE",
"322 770 OFFCURVE",
"374 770 CURVE SMOOTH",
"427 770 OFFCURVE",
"463 798 OFFCURVE",
"463 843 CURVE SMOOTH",
"463 889 OFFCURVE",
"427 916 OFFCURVE",
"374 916 CURVE SMOOTH",
"322 916 OFFCURVE",
"286 889 OFFCURVE",
"286 843 CURVE SMOOTH"
);
},
{
closed = 1;
nodes = (
"397 880 OFFCURVE",
"415 865 OFFCURVE",
"415 843 CURVE SMOOTH",
"415 822 OFFCURVE",
"396 806 OFFCURVE",
"374 806 CURVE SMOOTH",
"351 806 OFFCURVE",
"334 823 OFFCURVE",
"334 843 CURVE SMOOTH",
"334 865 OFFCURVE",
"352 880 OFFCURVE",
"374 880 CURVE SMOOTH"
);
},
{
closed = 1;
nodes = (
"228 96 OFFCURVE",
"181 220 OFFCURVE",
"181 350 CURVE SMOOTH",
"181 710 LINE",
"69 710 LINE",
"69 350 LINE SMOOTH",
"69 166 OFFCURVE",
"149 -5 OFFCURVE",
"375 -5 CURVE SMOOTH",
"594 -5 OFFCURVE",
"682 156 OFFCURVE",
"682 350 CURVE SMOOTH",
"682 710 LINE",
"569 710 LINE",
"569 350 LINE SMOOTH",
"569 223 OFFCURVE",
"524 96 OFFCURVE",
"375 96 CURVE SMOOTH"
);
}
);
width = 750;
}
);
unicode = 016E;
},
{
glyphname = Utilde;
layers = (
{
layerId = "AC509B01-5F4C-4AA2-97FB-92B74F0D1424";
name = Bold;
paths = (
{
closed = 1;
nodes = (
"228 96 OFFCURVE",
"181 220 OFFCURVE",
"181 350 CURVE SMOOTH",
"181 710 LINE",
"69 710 LINE",
"69 350 LINE SMOOTH",
"69 166 OFFCURVE",
"149 -5 OFFCURVE",
"375 -5 CURVE SMOOTH",
"594 -5 OFFCURVE",
"682 156 OFFCURVE",
"682 350 CURVE SMOOTH",
"682 710 LINE",
"569 710 LINE",
"569 350 LINE SMOOTH",
"569 223 OFFCURVE",
"524 96 OFFCURVE",
"375 96 CURVE SMOOTH"
);
},
{
closed = 1;
nodes = (
"527 801 OFFCURVE",
"552 899 OFFCURVE",
"552 916 CURVE",
"489 916 LINE",
"489 912 OFFCURVE",
"484 867 OFFCURVE",
"435 867 CURVE SMOOTH",
"386 867 OFFCURVE",
"363 911 OFFCURVE",
"304 911 CURVE SMOOTH",
"221 911 OFFCURVE",
"197 817 OFFCURVE",
"197 796 CURVE",
"259 796 LINE",
"259 800 OFFCURVE",
"263 844 OFFCURVE",
"308 844 CURVE SMOOTH",
"351 844 OFFCURVE",
"377 801 OFFCURVE",
"438 801 CURVE SMOOTH"
);
}
);
width = 750;
}
);
unicode = 0168;
},
{
glyphname = V;
layers = (
{
layerId = "AC509B01-5F4C-4AA2-97FB-92B74F0D1424";
name = Bold;
paths = (
{
closed = 1;
nodes = (
"4 710 LINE",
"290 0 LINE",
"386 0 LINE",
"669 710 LINE",
"551 710 LINE",
"338 141 LINE",
"123 710 LINE"
);
}
);
width = 675;
}
);
unicode = 0056;
},
{
glyphname = V.sc;
layers = (
{
layerId = "AC509B01-5F4C-4AA2-97FB-92B74F0D1424";
name = Bold;
paths = (
{
closed = 1;
nodes = (
"8 555 LINE",
"254 0 LINE",
"338 0 LINE",
"583 555 LINE",
"478 555 LINE",
"296 140 LINE",
"114 555 LINE"
);
}
);
width = 592;
}
);
},
{
glyphname = W;
lastChange = "2014-10-22 13:10:05 +0100";
layers = (
{
layerId = "AC509B01-5F4C-4AA2-97FB-92B74F0D1424";
name = Bold;
paths = (
{
closed = 1;
nodes = (
"947 710 LINE",
"782 168 LINE",
"601 710 LINE",
"479 710 LINE",
"304 168 LINE",
"138 710 LINE",
"11 710 LINE",
"234 0 LINE",
"352 0 LINE",
"541 526 LINE",
"734 0 LINE",
"851 0 LINE",
"1075 710 LINE"
);
}
);
width = 1050;
}
);
unicode = 0057;
},
{
glyphname = W.sc;
lastChange = "2014-10-22 13:15:36 +0100";
layers = (
{
layerId = "AC509B01-5F4C-4AA2-97FB-92B74F0D1424";
name = Bold;
paths = (
{
closed = 1;
nodes = (
"704 0 LINE",
"897 557 LINE",
"780 557 LINE",
"637 138 LINE",
"508 557 LINE",
"406 557 LINE",
"278 138 LINE",
"135 557 LINE",
"17 557 LINE",
"210 0 LINE",
"336 0 LINE",
"457 380 LINE",
"578 0 LINE"
);
}
);
width = 918;
}
);
},
{
glyphname = Wacute;
lastChange = "2014-10-22 13:12:04 +0100";
layers = (
{
layerId = "AC509B01-5F4C-4AA2-97FB-92B74F0D1424";
name = Bold;
paths = (
{
closed = 1;
nodes = (
"639 916 LINE",
"534 916 LINE",
"477 806 LINE",
"549 784 LINE"
);
},
{
closed = 1;
nodes = (
"947 710 LINE",
"782 168 LINE",
"601 710 LINE",
"479 710 LINE",
"304 168 LINE",
"138 710 LINE",
"11 710 LINE",
"234 0 LINE",
"352 0 LINE",
"541 526 LINE",
"734 0 LINE",
"851 0 LINE",
"1075 710 LINE"
);
}
);
width = 1050;
}
);
unicode = 1E82;
},
{
glyphname = Wcircumflex;
lastChange = "2014-10-22 13:12:12 +0100";
layers = (
{
layerId = "AC509B01-5F4C-4AA2-97FB-92B74F0D1424";
name = Bold;
paths = (
{
closed = 1;
nodes = (
"439 793 LINE",
"524 856 LINE",
"609 793 LINE",
"668 821 LINE",
"564 916 LINE",
"485 916 LINE",
"381 821 LINE"
);
},
{
closed = 1;
nodes = (
"947 710 LINE",
"782 168 LINE",
"601 710 LINE",
"479 710 LINE",
"304 168 LINE",
"138 710 LINE",
"11 710 LINE",
"234 0 LINE",
"352 0 LINE",
"541 526 LINE",
"734 0 LINE",
"851 0 LINE",
"1075 710 LINE"
);
}
);
width = 1050;
}
);
unicode = 0174;
},
{
glyphname = Wdieresis;
lastChange = "2014-10-22 13:12:22 +0100";
layers = (
{
layerId = "AC509B01-5F4C-4AA2-97FB-92B74F0D1424";
name = Bold;
paths = (
{
closed = 1;
nodes = (
"482 802 LINE",
"482 912 LINE",
"390 912 LINE",
"390 802 LINE"
);
},
{
closed = 1;
nodes = (
"659 802 LINE",
"659 912 LINE",
"567 912 LINE",
"567 802 LINE"
);
},
{
closed = 1;
nodes = (
"947 710 LINE",
"782 168 LINE",
"601 710 LINE",
"479 710 LINE",
"304 168 LINE",
"138 710 LINE",
"11 710 LINE",
"234 0 LINE",
"352 0 LINE",
"541 526 LINE",
"734 0 LINE",
"851 0 LINE",
"1075 710 LINE"
);
}
);
width = 1050;
}
);
unicode = 1E84;
},
{
glyphname = Wgrave;
lastChange = "2014-10-22 13:12:27 +0100";
layers = (
{
layerId = "AC509B01-5F4C-4AA2-97FB-92B74F0D1424";
name = Bold;
paths = (
{
closed = 1;
nodes = (
"501 785 LINE",
"571 807 LINE",
"514 917 LINE",
"409 917 LINE"
);
},
{
closed = 1;
nodes = (
"947 710 LINE",
"782 168 LINE",
"601 710 LINE",
"479 710 LINE",
"304 168 LINE",
"138 710 LINE",
"11 710 LINE",
"234 0 LINE",
"352 0 LINE",
"541 526 LINE",
"734 0 LINE",
"851 0 LINE",
"1075 710 LINE"
);
}
);
width = 1050;
}
);
unicode = 1E80;
},
{
glyphname = X;
layers = (
{
layerId = "AC509B01-5F4C-4AA2-97FB-92B74F0D1424";
name = Bold;
paths = (
{
closed = 1;
nodes = (
"-1 710 LINE",
"260 350 LINE",
"7 0 LINE",
"131 0 LINE",
"320 270 LINE",
"509 0 LINE",
"632 0 LINE",
"380 350 LINE",
"640 710 LINE",
"517 710 LINE",
"320 430 LINE",
"123 710 LINE"
);
}
);
width = 639;
}
);
unicode = 0058;
},
{
glyphname = X.sc;
layers = (
{
layerId = "AC509B01-5F4C-4AA2-97FB-92B74F0D1424";
name = Bold;
paths = (
{
closed = 1;
nodes = (
"7 555 LINE",
"231 274 LINE",
"14 0 LINE",
"123 0 LINE",
"284 203 LINE",
"446 0 LINE",
"554 0 LINE",
"337 274 LINE",
"561 555 LINE",
"452 555 LINE",
"284 344 LINE",
"116 555 LINE"
);
}
);
width = 568;
}
);
},
{
glyphname = Y;
layers = (
{
layerId = "AC509B01-5F4C-4AA2-97FB-92B74F0D1424";
name = Bold;
paths = (
{
closed = 1;
nodes = (
"0 710 LINE",
"263 256 LINE",
"263 0 LINE",
"376 0 LINE",
"376 254 LINE",
"640 710 LINE",
"518 710 LINE",
"320 354 LINE",
"123 710 LINE"
);
}
);
width = 640;
}
);
unicode = 0059;
},
{
glyphname = Y.sc;
layers = (
{
layerId = "AC509B01-5F4C-4AA2-97FB-92B74F0D1424";
name = Bold;
paths = (
{
closed = 1;
nodes = (
"5 555 LINE",
"231 197 LINE",
"231 0 LINE",
"331 0 LINE",
"331 196 LINE",
"559 555 LINE",
"450 555 LINE",
"281 283 LINE",
"113 555 LINE"
);
}
);
width = 562;
}
);
},
{
glyphname = Yacute;
layers = (
{
layerId = "AC509B01-5F4C-4AA2-97FB-92B74F0D1424";
name = Bold;
paths = (
{
closed = 1;
nodes = (
"0 710 LINE",
"263 256 LINE",
"263 0 LINE",
"376 0 LINE",
"376 254 LINE",
"640 710 LINE",
"518 710 LINE",
"320 354 LINE",
"123 710 LINE"
);
},
{
closed = 1;
nodes = (
"434 916 LINE",
"329 916 LINE",
"272 806 LINE",
"344 784 LINE"
);
}
);
width = 640;
}
);
unicode = 00DD;
},
{
glyphname = Ycircumflex;
layers = (
{
layerId = "AC509B01-5F4C-4AA2-97FB-92B74F0D1424";
name = Bold;
paths = (
{
closed = 1;
nodes = (
"0 710 LINE",
"263 256 LINE",
"263 0 LINE",
"376 0 LINE",
"376 254 LINE",
"640 710 LINE",
"518 710 LINE",
"320 354 LINE",
"123 710 LINE"
);
},
{
closed = 1;
nodes = (
"234 793 LINE",
"319 856 LINE",
"404 793 LINE",
"463 821 LINE",
"359 916 LINE",
"280 916 LINE",
"176 821 LINE"
);
}
);
width = 640;
}
);
unicode = 0176;
},
{
glyphname = Ydieresis;
layers = (
{
layerId = "AC509B01-5F4C-4AA2-97FB-92B74F0D1424";
name = Bold;
paths = (
{
closed = 1;
nodes = (
"0 710 LINE",
"263 256 LINE",
"263 0 LINE",
"376 0 LINE",
"376 254 LINE",
"640 710 LINE",
"518 710 LINE",
"320 354 LINE",
"123 710 LINE"
);
},
{
closed = 1;
nodes = (
"277 802 LINE",
"277 912 LINE",
"185 912 LINE",
"185 802 LINE"
);
},
{
closed = 1;
nodes = (
"454 802 LINE",
"454 912 LINE",
"362 912 LINE",
"362 802 LINE"
);
}
);
width = 640;
}
);
unicode = 0178;
},
{
glyphname = Ygrave;
layers = (
{
layerId = "AC509B01-5F4C-4AA2-97FB-92B74F0D1424";
name = Bold;
paths = (
{
closed = 1;
nodes = (
"0 710 LINE",
"263 256 LINE",
"263 0 LINE",
"376 0 LINE",
"376 254 LINE",
"640 710 LINE",
"518 710 LINE",
"320 354 LINE",
"123 710 LINE"
);
},
{
closed = 1;
nodes = (
"296 785 LINE",
"366 807 LINE",
"309 917 LINE",
"204 917 LINE"
);
}
);
width = 640;
}
);
unicode = 1EF2;
},
{
glyphname = Ytilde;
layers = (
{
layerId = "AC509B01-5F4C-4AA2-97FB-92B74F0D1424";
name = Bold;
paths = (
{
closed = 1;
nodes = (
"0 710 LINE",
"263 256 LINE",
"263 0 LINE",
"376 0 LINE",
"376 254 LINE",
"640 710 LINE",
"518 710 LINE",
"320 354 LINE",
"123 710 LINE"
);
},
{
closed = 1;
nodes = (
"471 801 OFFCURVE",
"496 899 OFFCURVE",
"496 916 CURVE",
"433 916 LINE",
"433 912 OFFCURVE",
"428 867 OFFCURVE",
"379 867 CURVE SMOOTH",
"330 867 OFFCURVE",
"307 911 OFFCURVE",
"248 911 CURVE SMOOTH",
"165 911 OFFCURVE",
"141 817 OFFCURVE",
"141 796 CURVE",
"203 796 LINE",
"203 800 OFFCURVE",
"207 844 OFFCURVE",
"252 844 CURVE SMOOTH",
"295 844 OFFCURVE",
"321 801 OFFCURVE",
"382 801 CURVE SMOOTH"
);
}
);
width = 640;
}
);
unicode = 1EF8;
},
{
glyphname = Z;
layers = (
{
layerId = "AC509B01-5F4C-4AA2-97FB-92B74F0D1424";
name = Bold;
paths = (
{
closed = 1;
nodes = (
"28 0 LINE",
"591 0 LINE",
"591 99 LINE",
"169 99 LINE",
"589 624 LINE",
"589 710 LINE",
"38 710 LINE",
"38 611 LINE",
"459 611 LINE",
"28 86 LINE"
);
}
);
width = 624;
}
);
unicode = 005A;
},
{
glyphname = Z.sc;
layers = (
{
layerId = "AC509B01-5F4C-4AA2-97FB-92B74F0D1424";
name = Bold;
paths = (
{
closed = 1;
nodes = (
"33 0 LINE",
"519 0 LINE",
"519 88 LINE",
"158 88 LINE",
"518 479 LINE",
"518 555 LINE",
"42 555 LINE",
"42 467 LINE",
"401 467 LINE",
"33 76 LINE"
);
}
);
width = 556;
}
);
},
{
glyphname = Zacute;
layers = (
{
layerId = "AC509B01-5F4C-4AA2-97FB-92B74F0D1424";
name = Bold;
paths = (
{
closed = 1;
nodes = (
"440 916 LINE",
"335 916 LINE",
"278 806 LINE",
"350 784 LINE"
);
},
{
closed = 1;
nodes = (
"28 0 LINE",
"591 0 LINE",
"591 99 LINE",
"169 99 LINE",
"589 624 LINE",
"589 710 LINE",
"38 710 LINE",
"38 611 LINE",
"459 611 LINE",
"28 86 LINE"
);
}
);
width = 624;
}
);
unicode = 0179;
},
{
glyphname = Zcaron;
layers = (
{
layerId = "AC509B01-5F4C-4AA2-97FB-92B74F0D1424";
name = Bold;
paths = (
{
closed = 1;
nodes = (
"182 888 LINE",
"286 793 LINE",
"365 793 LINE",
"469 888 LINE",
"410 916 LINE",
"325 853 LINE",
"240 916 LINE"
);
},
{
closed = 1;
nodes = (
"28 0 LINE",
"591 0 LINE",
"591 99 LINE",
"169 99 LINE",
"589 624 LINE",
"589 710 LINE",
"38 710 LINE",
"38 611 LINE",
"459 611 LINE",
"28 86 LINE"
);
}
);
width = 624;
}
);
unicode = 017D;
},
{
glyphname = Zdotaccent;
layers = (
{
layerId = "AC509B01-5F4C-4AA2-97FB-92B74F0D1424";
name = Bold;
paths = (
{
closed = 1;
nodes = (
"28 0 LINE",
"591 0 LINE",
"591 99 LINE",
"169 99 LINE",
"589 624 LINE",
"589 710 LINE",
"38 710 LINE",
"38 611 LINE",
"459 611 LINE",
"28 86 LINE"
);
},
{
closed = 1;
nodes = (
"375 801 LINE",
"375 916 LINE",
"276 916 LINE",
"276 801 LINE"
);
}
);
width = 624;
}
);
unicode = 017B;
},
{
glyphname = a;
layers = (
{
layerId = "AC509B01-5F4C-4AA2-97FB-92B74F0D1424";
name = Bold;
paths = (
{
closed = 1;
nodes = (
"283 -10 OFFCURVE",
"355 24 OFFCURVE",
"402 85 CURVE",
"405 52 LINE",
"410 19 OFFCURVE",
"432 -2 OFFCURVE",
"474 -5 CURVE",
"488 -5 OFFCURVE",
"507 -4 OFFCURVE",
"528 0 CURVE",
"528 94 LINE",
"505 95 OFFCURVE",
"497 105 OFFCURVE",
"497 130 CURVE SMOOTH",
"497 319 LINE SMOOTH",
"497 455 OFFCURVE",
"412 532 OFFCURVE",
"269 532 CURVE SMOOTH",
"195 532 OFFCURVE",
"126 509 OFFCURVE",
"59 464 CURVE",
"93 394 LINE",
"150 433 OFFCURVE",
"204 454 OFFCURVE",
"259 454 CURVE SMOOTH",
"341 454 OFFCURVE",
"387 408 OFFCURVE",
"387 331 CURVE SMOOTH",
"387 295 LINE",
"349 310 OFFCURVE",
"298 319 OFFCURVE",
"249 319 CURVE SMOOTH",
"119 319 OFFCURVE",
"28 252 OFFCURVE",
"28 154 CURVE SMOOTH",
"28 61 OFFCURVE",
"104 -10 OFFCURVE",
"205 -10 CURVE SMOOTH"
);
},
{
closed = 1;
nodes = (
"176 71 OFFCURVE",
"132 111 OFFCURVE",
"132 163 CURVE SMOOTH",
"132 218 OFFCURVE",
"188 256 OFFCURVE",
"266 256 CURVE SMOOTH",
"306 256 OFFCURVE",
"350 247 OFFCURVE",
"387 233 CURVE",
"387 164 LINE SMOOTH",
"387 152 OFFCURVE",
"379 137 OFFCURVE",
"366 126 CURVE",
"340 92 OFFCURVE",
"288 71 OFFCURVE",
"235 71 CURVE SMOOTH"
);
}
);
width = 567;
}
);
unicode = 0061;
},
{
glyphname = aacute;
layers = (
{
layerId = "AC509B01-5F4C-4AA2-97FB-92B74F0D1424";
name = Bold;
paths = (
{
closed = 1;
nodes = (
"283 -10 OFFCURVE",
"355 24 OFFCURVE",
"402 85 CURVE",
"405 52 LINE",
"410 19 OFFCURVE",
"432 -2 OFFCURVE",
"474 -5 CURVE",
"488 -5 OFFCURVE",
"507 -4 OFFCURVE",
"528 0 CURVE",
"528 94 LINE",
"505 95 OFFCURVE",
"497 105 OFFCURVE",
"497 130 CURVE SMOOTH",
"497 319 LINE SMOOTH",
"497 455 OFFCURVE",
"412 532 OFFCURVE",
"269 532 CURVE SMOOTH",
"195 532 OFFCURVE",
"126 509 OFFCURVE",
"59 464 CURVE",
"93 394 LINE",
"150 433 OFFCURVE",
"204 454 OFFCURVE",
"259 454 CURVE SMOOTH",
"341 454 OFFCURVE",
"387 408 OFFCURVE",
"387 331 CURVE SMOOTH",
"387 295 LINE",
"349 310 OFFCURVE",
"298 319 OFFCURVE",
"249 319 CURVE SMOOTH",
"119 319 OFFCURVE",
"28 252 OFFCURVE",
"28 154 CURVE SMOOTH",
"28 61 OFFCURVE",
"104 -10 OFFCURVE",
"205 -10 CURVE SMOOTH"
);
},
{
closed = 1;
nodes = (
"176 71 OFFCURVE",
"132 111 OFFCURVE",
"132 163 CURVE SMOOTH",
"132 218 OFFCURVE",
"188 256 OFFCURVE",
"266 256 CURVE SMOOTH",
"306 256 OFFCURVE",
"350 247 OFFCURVE",
"387 233 CURVE",
"387 164 LINE SMOOTH",
"387 152 OFFCURVE",
"379 137 OFFCURVE",
"366 126 CURVE",
"340 92 OFFCURVE",
"288 71 OFFCURVE",
"235 71 CURVE SMOOTH"
);
},
{
closed = 1;
nodes = (
"384 730 LINE",
"279 730 LINE",
"222 620 LINE",
"294 598 LINE"
);
}
);
width = 567;
}
);
unicode = 00E1;
},
{
glyphname = abreve;
layers = (
{
layerId = "AC509B01-5F4C-4AA2-97FB-92B74F0D1424";
name = Bold;
paths = (
{
closed = 1;
nodes = (
"283 -10 OFFCURVE",
"355 24 OFFCURVE",
"402 85 CURVE",
"405 52 LINE",
"410 19 OFFCURVE",
"432 -2 OFFCURVE",
"474 -5 CURVE",
"488 -5 OFFCURVE",
"507 -4 OFFCURVE",
"528 0 CURVE",
"528 94 LINE",
"505 95 OFFCURVE",
"497 105 OFFCURVE",
"497 130 CURVE SMOOTH",
"497 319 LINE SMOOTH",
"497 455 OFFCURVE",
"412 532 OFFCURVE",
"269 532 CURVE SMOOTH",
"195 532 OFFCURVE",
"126 509 OFFCURVE",
"59 464 CURVE",
"93 394 LINE",
"150 433 OFFCURVE",
"204 454 OFFCURVE",
"259 454 CURVE SMOOTH",
"341 454 OFFCURVE",
"387 408 OFFCURVE",
"387 331 CURVE SMOOTH",
"387 295 LINE",
"349 310 OFFCURVE",
"298 319 OFFCURVE",
"249 319 CURVE SMOOTH",
"119 319 OFFCURVE",
"28 252 OFFCURVE",
"28 154 CURVE SMOOTH",
"28 61 OFFCURVE",
"104 -10 OFFCURVE",
"205 -10 CURVE SMOOTH"
);
},
{
closed = 1;
nodes = (
"176 71 OFFCURVE",
"132 111 OFFCURVE",
"132 163 CURVE SMOOTH",
"132 218 OFFCURVE",
"188 256 OFFCURVE",
"266 256 CURVE SMOOTH",
"306 256 OFFCURVE",
"350 247 OFFCURVE",
"387 233 CURVE",
"387 164 LINE SMOOTH",
"387 152 OFFCURVE",
"379 137 OFFCURVE",
"366 126 CURVE",
"340 92 OFFCURVE",
"288 71 OFFCURVE",
"235 71 CURVE SMOOTH"
);
},
{
closed = 1;
nodes = (
"238 659 OFFCURVE",
"211 692 OFFCURVE",
"211 730 CURVE",
"150 730 LINE",
"150 660 OFFCURVE",
"201 608 OFFCURVE",
"269 608 CURVE SMOOTH",
"337 608 OFFCURVE",
"388 660 OFFCURVE",
"388 730 CURVE",
"327 730 LINE",
"323 689 OFFCURVE",
"298 659 OFFCURVE",
"269 659 CURVE SMOOTH"
);
}
);
width = 567;
}
);
unicode = 0103;
},
{
glyphname = acircumflex;
layers = (
{
layerId = "AC509B01-5F4C-4AA2-97FB-92B74F0D1424";
name = Bold;
paths = (
{
closed = 1;
nodes = (
"283 -10 OFFCURVE",
"355 24 OFFCURVE",
"402 85 CURVE",
"405 52 LINE",
"410 19 OFFCURVE",
"432 -2 OFFCURVE",
"474 -5 CURVE",
"488 -5 OFFCURVE",
"507 -4 OFFCURVE",
"528 0 CURVE",
"528 94 LINE",
"505 95 OFFCURVE",
"497 105 OFFCURVE",
"497 130 CURVE SMOOTH",
"497 319 LINE SMOOTH",
"497 455 OFFCURVE",
"412 532 OFFCURVE",
"269 532 CURVE SMOOTH",
"195 532 OFFCURVE",
"126 509 OFFCURVE",
"59 464 CURVE",
"93 394 LINE",
"150 433 OFFCURVE",
"204 454 OFFCURVE",
"259 454 CURVE SMOOTH",
"341 454 OFFCURVE",
"387 408 OFFCURVE",
"387 331 CURVE SMOOTH",
"387 295 LINE",
"349 310 OFFCURVE",
"298 319 OFFCURVE",
"249 319 CURVE SMOOTH",
"119 319 OFFCURVE",
"28 252 OFFCURVE",
"28 154 CURVE SMOOTH",
"28 61 OFFCURVE",
"104 -10 OFFCURVE",
"205 -10 CURVE SMOOTH"
);
},
{
closed = 1;
nodes = (
"176 71 OFFCURVE",
"132 111 OFFCURVE",
"132 163 CURVE SMOOTH",
"132 218 OFFCURVE",
"188 256 OFFCURVE",
"266 256 CURVE SMOOTH",
"306 256 OFFCURVE",
"350 247 OFFCURVE",
"387 233 CURVE",
"387 164 LINE SMOOTH",
"387 152 OFFCURVE",
"379 137 OFFCURVE",
"366 126 CURVE",
"340 92 OFFCURVE",
"288 71 OFFCURVE",
"235 71 CURVE SMOOTH"
);
},
{
closed = 1;
nodes = (
"184 607 LINE",
"269 670 LINE",
"354 607 LINE",
"413 635 LINE",
"309 730 LINE",
"230 730 LINE",
"126 635 LINE"
);
}
);
width = 567;
}
);
unicode = 00E2;
},
{
glyphname = adieresis;
layers = (
{
layerId = "AC509B01-5F4C-4AA2-97FB-92B74F0D1424";
name = Bold;
paths = (
{
closed = 1;
nodes = (
"283 -10 OFFCURVE",
"355 24 OFFCURVE",
"402 85 CURVE",
"405 52 LINE",
"410 19 OFFCURVE",
"432 -2 OFFCURVE",
"474 -5 CURVE",
"488 -5 OFFCURVE",
"507 -4 OFFCURVE",
"528 0 CURVE",
"528 94 LINE",
"505 95 OFFCURVE",
"497 105 OFFCURVE",
"497 130 CURVE SMOOTH",
"497 319 LINE SMOOTH",
"497 455 OFFCURVE",
"412 532 OFFCURVE",
"269 532 CURVE SMOOTH",
"195 532 OFFCURVE",
"126 509 OFFCURVE",
"59 464 CURVE",
"93 394 LINE",
"150 433 OFFCURVE",
"204 454 OFFCURVE",
"259 454 CURVE SMOOTH",
"341 454 OFFCURVE",
"387 408 OFFCURVE",
"387 331 CURVE SMOOTH",
"387 295 LINE",
"349 310 OFFCURVE",
"298 319 OFFCURVE",
"249 319 CURVE SMOOTH",
"119 319 OFFCURVE",
"28 252 OFFCURVE",
"28 154 CURVE SMOOTH",
"28 61 OFFCURVE",
"104 -10 OFFCURVE",
"205 -10 CURVE SMOOTH"
);
},
{
closed = 1;
nodes = (
"176 71 OFFCURVE",
"132 111 OFFCURVE",
"132 163 CURVE SMOOTH",
"132 218 OFFCURVE",
"188 256 OFFCURVE",
"266 256 CURVE SMOOTH",
"306 256 OFFCURVE",
"350 247 OFFCURVE",
"387 233 CURVE",
"387 164 LINE SMOOTH",
"387 152 OFFCURVE",
"379 137 OFFCURVE",
"366 126 CURVE",
"340 92 OFFCURVE",
"288 71 OFFCURVE",
"235 71 CURVE SMOOTH"
);
},
{
closed = 1;
nodes = (
"227 615 LINE",
"227 725 LINE",
"135 725 LINE",
"135 615 LINE"
);
},
{
closed = 1;
nodes = (
"404 615 LINE",
"404 725 LINE",
"312 725 LINE",
"312 615 LINE"
);
}
);
width = 567;
}
);
unicode = 00E4;
},
{
glyphname = ae;
layers = (
{
layerId = "AC509B01-5F4C-4AA2-97FB-92B74F0D1424";
name = Bold;
paths = (
{
closed = 1;
nodes = (
"281 -10 OFFCURVE",
"377 22 OFFCURVE",
"423 101 CURVE",
"470 34 OFFCURVE",
"548 -10 OFFCURVE",
"645 -10 CURVE SMOOTH",
"755 -10 OFFCURVE",
"844 46 OFFCURVE",
"880 124 CURVE",
"786 151 LINE",
"766 103 OFFCURVE",
"707 71 OFFCURVE",
"648 71 CURVE SMOOTH",
"563 71 OFFCURVE",
"490 133 OFFCURVE",
"483 225 CURVE",
"910 225 LINE",
"911 234 OFFCURVE",
"912 251 OFFCURVE",
"912 261 CURVE SMOOTH",
"912 408 OFFCURVE",
"807 532 OFFCURVE",
"642 532 CURVE SMOOTH",
"563 532 OFFCURVE",
"496 498 OFFCURVE",
"452 447 CURVE",
"416 501 OFFCURVE",
"353 532 OFFCURVE",
"270 532 CURVE SMOOTH",
"197 532 OFFCURVE",
"128 509 OFFCURVE",
"59 464 CURVE",
"94 394 LINE",
"152 433 OFFCURVE",
"205 454 OFFCURVE",
"259 454 CURVE SMOOTH",
"334 454 OFFCURVE",
"377 418 OFFCURVE",
"385 355 CURVE",
"379 340 OFFCURVE",
"376 316 OFFCURVE",
"374 299 CURVE",
"339 312 OFFCURVE",
"294 319 OFFCURVE",
"250 319 CURVE SMOOTH",
"120 319 OFFCURVE",
"29 252 OFFCURVE",
"29 154 CURVE SMOOTH",
"29 61 OFFCURVE",
"106 -10 OFFCURVE",
"205 -10 CURVE SMOOTH"
);
},
{
closed = 1;
nodes = (
"178 71 OFFCURVE",
"133 111 OFFCURVE",
"133 163 CURVE SMOOTH",
"133 218 OFFCURVE",
"188 256 OFFCURVE",
"267 256 CURVE SMOOTH",
"302 256 OFFCURVE",
"341 249 OFFCURVE",
"374 238 CURVE",
"375 218 OFFCURVE",
"379 178 OFFCURVE",
"388 161 CURVE",
"387 150 OFFCURVE",
"380 136 OFFCURVE",
"368 126 CURVE",
"341 92 OFFCURVE",
"290 71 OFFCURVE",
"236 71 CURVE SMOOTH"
);
},
{
closed = 1;
nodes = (
"481 295 LINE",
"487 386 OFFCURVE",
"553 451 OFFCURVE",
"641 451 CURVE SMOOTH",
"729 451 OFFCURVE",
"795 387 OFFCURVE",
"802 295 CURVE"
);
}
);
width = 936;
}
);
unicode = 00E6;
},
{
glyphname = aeacute;
layers = (
{
layerId = "AC509B01-5F4C-4AA2-97FB-92B74F0D1424";
name = Bold;
paths = (
{
closed = 1;
nodes = (
"565 730 LINE",
"460 730 LINE",
"403 620 LINE",
"475 598 LINE"
);
},
{
closed = 1;
nodes = (
"281 -10 OFFCURVE",
"377 22 OFFCURVE",
"423 101 CURVE",
"470 34 OFFCURVE",
"548 -10 OFFCURVE",
"645 -10 CURVE SMOOTH",
"755 -10 OFFCURVE",
"844 46 OFFCURVE",
"880 124 CURVE",
"786 151 LINE",
"766 103 OFFCURVE",
"707 71 OFFCURVE",
"648 71 CURVE SMOOTH",
"563 71 OFFCURVE",
"490 133 OFFCURVE",
"483 225 CURVE",
"910 225 LINE",
"911 234 OFFCURVE",
"912 251 OFFCURVE",
"912 261 CURVE SMOOTH",
"912 408 OFFCURVE",
"807 532 OFFCURVE",
"642 532 CURVE SMOOTH",
"563 532 OFFCURVE",
"496 498 OFFCURVE",
"452 447 CURVE",
"416 501 OFFCURVE",
"353 532 OFFCURVE",
"270 532 CURVE SMOOTH",
"197 532 OFFCURVE",
"128 509 OFFCURVE",
"59 464 CURVE",
"94 394 LINE",
"152 433 OFFCURVE",
"205 454 OFFCURVE",
"259 454 CURVE SMOOTH",
"334 454 OFFCURVE",
"377 418 OFFCURVE",
"385 355 CURVE",
"379 340 OFFCURVE",
"376 316 OFFCURVE",
"374 299 CURVE",
"339 312 OFFCURVE",
"294 319 OFFCURVE",
"250 319 CURVE SMOOTH",
"120 319 OFFCURVE",
"29 252 OFFCURVE",
"29 154 CURVE SMOOTH",
"29 61 OFFCURVE",
"106 -10 OFFCURVE",
"205 -10 CURVE SMOOTH"
);
},
{
closed = 1;
nodes = (
"178 71 OFFCURVE",
"133 111 OFFCURVE",
"133 163 CURVE SMOOTH",
"133 218 OFFCURVE",
"188 256 OFFCURVE",
"267 256 CURVE SMOOTH",
"302 256 OFFCURVE",
"341 249 OFFCURVE",
"374 238 CURVE",
"375 218 OFFCURVE",
"379 178 OFFCURVE",
"388 161 CURVE",
"387 150 OFFCURVE",
"380 136 OFFCURVE",
"368 126 CURVE",
"341 92 OFFCURVE",
"290 71 OFFCURVE",
"236 71 CURVE SMOOTH"
);
},
{
closed = 1;
nodes = (
"481 295 LINE",
"487 386 OFFCURVE",
"553 451 OFFCURVE",
"641 451 CURVE SMOOTH",
"729 451 OFFCURVE",
"795 387 OFFCURVE",
"802 295 CURVE"
);
}
);
width = 936;
}
);
unicode = 01FD;
},
{
glyphname = agrave;
layers = (
{
layerId = "AC509B01-5F4C-4AA2-97FB-92B74F0D1424";
name = Bold;
paths = (
{
closed = 1;
nodes = (
"283 -10 OFFCURVE",
"355 24 OFFCURVE",
"402 85 CURVE",
"405 52 LINE",
"410 19 OFFCURVE",
"432 -2 OFFCURVE",
"474 -5 CURVE",
"488 -5 OFFCURVE",
"507 -4 OFFCURVE",
"528 0 CURVE",
"528 94 LINE",
"505 95 OFFCURVE",
"497 105 OFFCURVE",
"497 130 CURVE SMOOTH",
"497 319 LINE SMOOTH",
"497 455 OFFCURVE",
"412 532 OFFCURVE",
"269 532 CURVE SMOOTH",
"195 532 OFFCURVE",
"126 509 OFFCURVE",
"59 464 CURVE",
"93 394 LINE",
"150 433 OFFCURVE",
"204 454 OFFCURVE",
"259 454 CURVE SMOOTH",
"341 454 OFFCURVE",
"387 408 OFFCURVE",
"387 331 CURVE SMOOTH",
"387 295 LINE",
"349 310 OFFCURVE",
"298 319 OFFCURVE",
"249 319 CURVE SMOOTH",
"119 319 OFFCURVE",
"28 252 OFFCURVE",
"28 154 CURVE SMOOTH",
"28 61 OFFCURVE",
"104 -10 OFFCURVE",
"205 -10 CURVE SMOOTH"
);
},
{
closed = 1;
nodes = (
"176 71 OFFCURVE",
"132 111 OFFCURVE",
"132 163 CURVE SMOOTH",
"132 218 OFFCURVE",
"188 256 OFFCURVE",
"266 256 CURVE SMOOTH",
"306 256 OFFCURVE",
"350 247 OFFCURVE",
"387 233 CURVE",
"387 164 LINE SMOOTH",
"387 152 OFFCURVE",
"379 137 OFFCURVE",
"366 126 CURVE",
"340 92 OFFCURVE",
"288 71 OFFCURVE",
"235 71 CURVE SMOOTH"
);
},
{
closed = 1;
nodes = (
"245 598 LINE",
"315 620 LINE",
"258 730 LINE",
"153 730 LINE"
);
}
);
width = 567;
}
);
unicode = 00E0;
},
{
glyphname = amacron;
layers = (
{
layerId = "AC509B01-5F4C-4AA2-97FB-92B74F0D1424";
name = Bold;
paths = (
{
closed = 1;
nodes = (
"283 -10 OFFCURVE",
"355 24 OFFCURVE",
"402 85 CURVE",
"405 52 LINE",
"410 19 OFFCURVE",
"432 -2 OFFCURVE",
"474 -5 CURVE",
"488 -5 OFFCURVE",
"507 -4 OFFCURVE",
"528 0 CURVE",
"528 94 LINE",
"505 95 OFFCURVE",
"497 105 OFFCURVE",
"497 130 CURVE SMOOTH",
"497 319 LINE SMOOTH",
"497 455 OFFCURVE",
"412 532 OFFCURVE",
"269 532 CURVE SMOOTH",
"195 532 OFFCURVE",
"126 509 OFFCURVE",
"59 464 CURVE",
"93 394 LINE",
"150 433 OFFCURVE",
"204 454 OFFCURVE",
"259 454 CURVE SMOOTH",
"341 454 OFFCURVE",
"387 408 OFFCURVE",
"387 331 CURVE SMOOTH",
"387 295 LINE",
"349 310 OFFCURVE",
"298 319 OFFCURVE",
"249 319 CURVE SMOOTH",
"119 319 OFFCURVE",
"28 252 OFFCURVE",
"28 154 CURVE SMOOTH",
"28 61 OFFCURVE",
"104 -10 OFFCURVE",
"205 -10 CURVE SMOOTH"
);
},
{
closed = 1;
nodes = (
"176 71 OFFCURVE",
"132 111 OFFCURVE",
"132 163 CURVE SMOOTH",
"132 218 OFFCURVE",
"188 256 OFFCURVE",
"266 256 CURVE SMOOTH",
"306 256 OFFCURVE",
"350 247 OFFCURVE",
"387 233 CURVE",
"387 164 LINE SMOOTH",
"387 152 OFFCURVE",
"379 137 OFFCURVE",
"366 126 CURVE",
"340 92 OFFCURVE",
"288 71 OFFCURVE",
"235 71 CURVE SMOOTH"
);
},
{
closed = 1;
nodes = (
"418 644 LINE",
"418 714 LINE",
"122 714 LINE",
"122 644 LINE"
);
}
);
width = 567;
}
);
unicode = 0101;
},
{
glyphname = ampersand;
layers = (
{
layerId = "AC509B01-5F4C-4AA2-97FB-92B74F0D1424";
name = Bold;
paths = (
{
closed = 1;
nodes = (
"694 0 LINE",
"552 148 LINE",
"590 210 OFFCURVE",
"613 288 OFFCURVE",
"614 377 CURVE",
"523 377 LINE",
"523 316 OFFCURVE",
"509 262 OFFCURVE",
"487 216 CURVE",
"328 383 LINE",
"404 434 OFFCURVE",
"462 489 OFFCURVE",
"462 568 CURVE SMOOTH",
"462 665 OFFCURVE",
"378 719 OFFCURVE",
"281 719 CURVE SMOOTH",
"174 719 OFFCURVE",
"93 651 OFFCURVE",
"93 554 CURVE SMOOTH",
"93 504 OFFCURVE",
"114 464 OFFCURVE",
"175 396 CURVE",
"106 346 OFFCURVE",
"44 286 OFFCURVE",
"44 194 CURVE SMOOTH",
"44 81 OFFCURVE",
"140 -10 OFFCURVE",
"278 -10 CURVE SMOOTH",
"354 -10 OFFCURVE",
"426 18 OFFCURVE",
"484 68 CURVE",
"549 0 LINE"
);
},
{
closed = 1;
nodes = (
"213 77 OFFCURVE",
"150 124 OFFCURVE",
"150 193 CURVE SMOOTH",
"150 246 OFFCURVE",
"186 287 OFFCURVE",
"240 326 CURVE",
"425 131 LINE",
"386 97 OFFCURVE",
"339 77 OFFCURVE",
"289 77 CURVE SMOOTH"
);
},
{
closed = 1;
nodes = (
"193 601 OFFCURVE",
"230 637 OFFCURVE",
"281 637 CURVE SMOOTH",
"327 637 OFFCURVE",
"361 608 OFFCURVE",
"361 566 CURVE SMOOTH",
"361 523 OFFCURVE",
"322 493 OFFCURVE",
"261 453 CURVE",
"207 510 OFFCURVE",
"193 530 OFFCURVE",
"193 557 CURVE SMOOTH"
);
}
);
width = 700;
}
);
unicode = 0026;
},
{
glyphname = aogonek;
layers = (
{
layerId = "AC509B01-5F4C-4AA2-97FB-92B74F0D1424";
name = Bold;
paths = (
{
closed = 1;
nodes = (
"505 -133 LINE",
"465 -129 OFFCURVE",
"446 -114 OFFCURVE",
"446 -91 CURVE SMOOTH",
"446 -63 OFFCURVE",
"471 -34 OFFCURVE",
"528 0 CURVE",
"528 94 LINE",
"505 95 OFFCURVE",
"497 105 OFFCURVE",
"497 130 CURVE SMOOTH",
"497 319 LINE SMOOTH",
"497 455 OFFCURVE",
"412 532 OFFCURVE",
"269 532 CURVE SMOOTH",
"195 532 OFFCURVE",
"126 509 OFFCURVE",
"59 464 CURVE",
"93 394 LINE",
"150 433 OFFCURVE",
"204 454 OFFCURVE",
"259 454 CURVE SMOOTH",
"341 454 OFFCURVE",
"387 408 OFFCURVE",
"387 331 CURVE SMOOTH",
"387 295 LINE",
"349 310 OFFCURVE",
"298 319 OFFCURVE",
"249 319 CURVE SMOOTH",
"119 319 OFFCURVE",
"28 252 OFFCURVE",
"28 154 CURVE SMOOTH",
"28 61 OFFCURVE",
"104 -10 OFFCURVE",
"205 -10 CURVE SMOOTH",
"283 -10 OFFCURVE",
"355 24 OFFCURVE",
"402 85 CURVE",
"405 52 LINE SMOOTH",
"408 23 OFFCURVE",
"427 3 OFFCURVE",
"459 -3 CURVE",
"409 -37 OFFCURVE",
"385 -71 OFFCURVE",
"385 -106 CURVE SMOOTH",
"385 -145 OFFCURVE",
"417 -178 OFFCURVE",
"480 -188 CURVE"
);
},
{
closed = 1;
nodes = (
"176 71 OFFCURVE",
"132 111 OFFCURVE",
"132 163 CURVE SMOOTH",
"132 218 OFFCURVE",
"188 256 OFFCURVE",
"266 256 CURVE SMOOTH",
"306 256 OFFCURVE",
"350 247 OFFCURVE",
"387 233 CURVE",
"387 164 LINE SMOOTH",
"387 152 OFFCURVE",
"379 137 OFFCURVE",
"366 126 CURVE",
"340 92 OFFCURVE",
"288 71 OFFCURVE",
"235 71 CURVE SMOOTH"
);
}
);
width = 567;
}
);
unicode = 0105;
},
{
glyphname = apostrophe;
layers = (
{
layerId = "AC509B01-5F4C-4AA2-97FB-92B74F0D1424";
name = Bold;
paths = (
{
closed = 1;
nodes = (
"285 730 LINE",
"154 730 LINE",
"159 688 LINE",
"123 620 LINE",
"194 598 LINE"
);
}
);
width = 373;
}
);
unicode = 02BC;
},
{
glyphname = aring;
layers = (
{
layerId = "AC509B01-5F4C-4AA2-97FB-92B74F0D1424";
name = Bold;
paths = (
{
closed = 1;
nodes = (
"283 -10 OFFCURVE",
"355 24 OFFCURVE",
"402 85 CURVE",
"405 52 LINE",
"410 19 OFFCURVE",
"432 -2 OFFCURVE",
"474 -5 CURVE",
"488 -5 OFFCURVE",
"507 -4 OFFCURVE",
"528 0 CURVE",
"528 94 LINE",
"505 95 OFFCURVE",
"497 105 OFFCURVE",
"497 130 CURVE SMOOTH",
"497 319 LINE SMOOTH",
"497 455 OFFCURVE",
"412 532 OFFCURVE",
"269 532 CURVE SMOOTH",
"195 532 OFFCURVE",
"126 509 OFFCURVE",
"59 464 CURVE",
"93 394 LINE",
"150 433 OFFCURVE",
"204 454 OFFCURVE",
"259 454 CURVE SMOOTH",
"341 454 OFFCURVE",
"387 408 OFFCURVE",
"387 331 CURVE SMOOTH",
"387 295 LINE",
"349 310 OFFCURVE",
"298 319 OFFCURVE",
"249 319 CURVE SMOOTH",
"119 319 OFFCURVE",
"28 252 OFFCURVE",
"28 154 CURVE SMOOTH",
"28 61 OFFCURVE",
"104 -10 OFFCURVE",
"205 -10 CURVE SMOOTH"
);
},
{
closed = 1;
nodes = (
"176 71 OFFCURVE",
"132 111 OFFCURVE",
"132 163 CURVE SMOOTH",
"132 218 OFFCURVE",
"188 256 OFFCURVE",
"266 256 CURVE SMOOTH",
"306 256 OFFCURVE",
"350 247 OFFCURVE",
"387 233 CURVE",
"387 164 LINE SMOOTH",
"387 152 OFFCURVE",
"379 137 OFFCURVE",
"366 126 CURVE",
"340 92 OFFCURVE",
"288 71 OFFCURVE",
"235 71 CURVE SMOOTH"
);
},
{
closed = 1;
nodes = (
"180 612 OFFCURVE",
"216 584 OFFCURVE",
"268 584 CURVE SMOOTH",
"321 584 OFFCURVE",
"357 612 OFFCURVE",
"357 657 CURVE SMOOTH",
"357 703 OFFCURVE",
"321 730 OFFCURVE",
"268 730 CURVE SMOOTH",
"216 730 OFFCURVE",
"180 703 OFFCURVE",
"180 657 CURVE SMOOTH"
);
},
{
closed = 1;
nodes = (
"291 694 OFFCURVE",
"309 679 OFFCURVE",
"309 657 CURVE SMOOTH",
"309 636 OFFCURVE",
"290 620 OFFCURVE",
"268 620 CURVE SMOOTH",
"245 620 OFFCURVE",
"228 637 OFFCURVE",
"228 657 CURVE SMOOTH",
"228 679 OFFCURVE",
"246 694 OFFCURVE",
"268 694 CURVE SMOOTH"
);
}
);
width = 567;
}
);
unicode = 00E5;
},
{
glyphname = aringacute;
layers = (
{
layerId = "AC509B01-5F4C-4AA2-97FB-92B74F0D1424";
name = Bold;
paths = (
{
closed = 1;
nodes = (
"283 -10 OFFCURVE",
"355 24 OFFCURVE",
"402 85 CURVE",
"405 52 LINE",
"410 19 OFFCURVE",
"432 -2 OFFCURVE",
"474 -5 CURVE",
"488 -5 OFFCURVE",
"507 -4 OFFCURVE",
"528 0 CURVE",
"528 94 LINE",
"505 95 OFFCURVE",
"497 105 OFFCURVE",
"497 130 CURVE SMOOTH",
"497 319 LINE SMOOTH",
"497 455 OFFCURVE",
"412 532 OFFCURVE",
"269 532 CURVE SMOOTH",
"195 532 OFFCURVE",
"126 509 OFFCURVE",
"59 464 CURVE",
"93 394 LINE",
"150 433 OFFCURVE",
"204 454 OFFCURVE",
"259 454 CURVE SMOOTH",
"341 454 OFFCURVE",
"387 408 OFFCURVE",
"387 331 CURVE SMOOTH",
"387 295 LINE",
"349 310 OFFCURVE",
"298 319 OFFCURVE",
"249 319 CURVE SMOOTH",
"119 319 OFFCURVE",
"28 252 OFFCURVE",
"28 154 CURVE SMOOTH",
"28 61 OFFCURVE",
"104 -10 OFFCURVE",
"205 -10 CURVE SMOOTH"
);
},
{
closed = 1;
nodes = (
"176 71 OFFCURVE",
"132 111 OFFCURVE",
"132 163 CURVE SMOOTH",
"132 218 OFFCURVE",
"188 256 OFFCURVE",
"266 256 CURVE SMOOTH",
"306 256 OFFCURVE",
"350 247 OFFCURVE",
"387 233 CURVE",
"387 164 LINE SMOOTH",
"387 152 OFFCURVE",
"379 137 OFFCURVE",
"366 126 CURVE",
"340 92 OFFCURVE",
"288 71 OFFCURVE",
"235 71 CURVE SMOOTH"
);
},
{
closed = 1;
nodes = (
"384 893 LINE",
"279 893 LINE",
"222 783 LINE",
"294 761 LINE"
);
},
{
closed = 1;
nodes = (
"180 612 OFFCURVE",
"216 584 OFFCURVE",
"268 584 CURVE SMOOTH",
"321 584 OFFCURVE",
"357 612 OFFCURVE",
"357 657 CURVE SMOOTH",
"357 703 OFFCURVE",
"321 730 OFFCURVE",
"268 730 CURVE SMOOTH",
"216 730 OFFCURVE",
"180 703 OFFCURVE",
"180 657 CURVE SMOOTH"
);
},
{
closed = 1;
nodes = (
"291 694 OFFCURVE",
"309 679 OFFCURVE",
"309 657 CURVE SMOOTH",
"309 636 OFFCURVE",
"290 620 OFFCURVE",
"268 620 CURVE SMOOTH",
"245 620 OFFCURVE",
"228 637 OFFCURVE",
"228 657 CURVE SMOOTH",
"228 679 OFFCURVE",
"246 694 OFFCURVE",
"268 694 CURVE SMOOTH"
);
}
);
width = 567;
}
);
unicode = 01FB;
},
{
glyphname = asciicircum;
layers = (
{
layerId = "AC509B01-5F4C-4AA2-97FB-92B74F0D1424";
name = Bold;
paths = (
{
closed = 1;
nodes = (
"131 303 LINE",
"286 615 LINE",
"437 303 LINE",
"529 303 LINE",
"332 710 LINE",
"239 710 LINE",
"41 303 LINE"
);
}
);
width = 570;
}
);
unicode = 005E;
},
{
glyphname = asciitilde;
layers = (
{
layerId = "AC509B01-5F4C-4AA2-97FB-92B74F0D1424";
name = Bold;
paths = (
{
closed = 1;
nodes = (
"121 232 LINE",
"121 234 OFFCURVE",
"133 287 OFFCURVE",
"185 287 CURVE SMOOTH",
"239 287 OFFCURVE",
"285 232 OFFCURVE",
"355 232 CURVE SMOOTH",
"456 232 OFFCURVE",
"487 340 OFFCURVE",
"487 350 CURVE",
"425 350 LINE",
"425 346 OFFCURVE",
"410 299 OFFCURVE",
"356 299 CURVE SMOOTH",
"298 299 OFFCURVE",
"254 354 OFFCURVE",
"186 354 CURVE SMOOTH",
"90 354 OFFCURVE",
"58 252 OFFCURVE",
"58 232 CURVE"
);
}
);
width = 542;
}
);
unicode = 007E;
},
{
glyphname = asterisk;
layers = (
{
layerId = "AC509B01-5F4C-4AA2-97FB-92B74F0D1424";
name = Bold;
paths = (
{
closed = 1;
nodes = (
"124 500 LINE",
"169 571 LINE",
"213 500 LINE",
"257 530 LINE",
"212 597 LINE",
"281 619 LINE",
"266 669 LINE",
"195 640 LINE",
"199 716 LINE",
"138 716 LINE",
"142 640 LINE",
"71 669 LINE",
"55 619 LINE",
"125 597 LINE",
"80 530 LINE"
);
}
);
width = 337;
}
);
unicode = 002A;
},
{
glyphname = at;
layers = (
{
layerId = "AC509B01-5F4C-4AA2-97FB-92B74F0D1424";
name = Bold;
paths = (
{
closed = 1;
nodes = (
"225 603 OFFCURVE",
"46 463 OFFCURVE",
"46 230 CURVE SMOOTH",
"46 9 OFFCURVE",
"210 -146 OFFCURVE",
"409 -146 CURVE SMOOTH",
"466 -146 OFFCURVE",
"526 -133 OFFCURVE",
"580 -106 CURVE",
"565 -62 LINE",
"516 -84 OFFCURVE",
"471 -100 OFFCURVE",
"410 -100 CURVE SMOOTH",
"223 -100 OFFCURVE",
"95 48 OFFCURVE",
"95 230 CURVE SMOOTH",
"95 419 OFFCURVE",
"233 557 OFFCURVE",
"419 557 CURVE SMOOTH",
"609 557 OFFCURVE",
"744 413 OFFCURVE",
"744 224 CURVE SMOOTH",
"744 162 OFFCURVE",
"727 36 OFFCURVE",
"651 36 CURVE SMOOTH",
"605 36 OFFCURVE",
"600 85 OFFCURVE",
"600 144 CURVE SMOOTH",
"600 252 LINE SMOOTH",
"600 344 OFFCURVE",
"589 459 OFFCURVE",
"425 459 CURVE SMOOTH",
"362 459 OFFCURVE",
"305 441 OFFCURVE",
"257 409 CURVE",
"279 349 LINE",
"314 377 OFFCURVE",
"361 394 OFFCURVE",
"415 394 CURVE SMOOTH",
"508 394 OFFCURVE",
"533 339 OFFCURVE",
"533 258 CURVE",
"512 266 OFFCURVE",
"470 281 OFFCURVE",
"414 281 CURVE SMOOTH",
"324 281 OFFCURVE",
"225 246 OFFCURVE",
"225 138 CURVE SMOOTH",
"225 58 OFFCURVE",
"279 -1 OFFCURVE",
"379 -1 CURVE SMOOTH",
"449 -1 OFFCURVE",
"510 29 OFFCURVE",
"550 70 CURVE",
"555 28 OFFCURVE",
"571 -16 OFFCURVE",
"641 -16 CURVE SMOOTH",
"782 -16 OFFCURVE",
"792 165 OFFCURVE",
"792 222 CURVE SMOOTH",
"792 462 OFFCURVE",
"619 603 OFFCURVE",
"422 603 CURVE SMOOTH"
);
},
{
closed = 1;
nodes = (
"449 71 OFFCURVE",
"415 61 OFFCURVE",
"384 61 CURVE SMOOTH",
"326 61 OFFCURVE",
"294 99 OFFCURVE",
"294 142 CURVE SMOOTH",
"294 204 OFFCURVE",
"349 225 OFFCURVE",
"414 225 CURVE SMOOTH",
"469 225 OFFCURVE",
"514 208 OFFCURVE",
"532 204 CURVE",
"532 170 LINE SMOOTH",
"532 137 OFFCURVE",
"522 105 OFFCURVE",
"474 83 CURVE SMOOTH"
);
}
);
width = 832;
}
);
unicode = 0040;
},
{
glyphname = atilde;
layers = (
{
layerId = "AC509B01-5F4C-4AA2-97FB-92B74F0D1424";
name = Bold;
paths = (
{
closed = 1;
nodes = (
"283 -10 OFFCURVE",
"355 24 OFFCURVE",
"402 85 CURVE",
"405 52 LINE",
"410 19 OFFCURVE",
"432 -2 OFFCURVE",
"474 -5 CURVE",
"488 -5 OFFCURVE",
"507 -4 OFFCURVE",
"528 0 CURVE",
"528 94 LINE",
"505 95 OFFCURVE",
"497 105 OFFCURVE",
"497 130 CURVE SMOOTH",
"497 319 LINE SMOOTH",
"497 455 OFFCURVE",
"412 532 OFFCURVE",
"269 532 CURVE SMOOTH",
"195 532 OFFCURVE",
"126 509 OFFCURVE",
"59 464 CURVE",
"93 394 LINE",
"150 433 OFFCURVE",
"204 454 OFFCURVE",
"259 454 CURVE SMOOTH",
"341 454 OFFCURVE",
"387 408 OFFCURVE",
"387 331 CURVE SMOOTH",
"387 295 LINE",
"349 310 OFFCURVE",
"298 319 OFFCURVE",
"249 319 CURVE SMOOTH",
"119 319 OFFCURVE",
"28 252 OFFCURVE",
"28 154 CURVE SMOOTH",
"28 61 OFFCURVE",
"104 -10 OFFCURVE",
"205 -10 CURVE SMOOTH"
);
},
{
closed = 1;
nodes = (
"176 71 OFFCURVE",
"132 111 OFFCURVE",
"132 163 CURVE SMOOTH",
"132 218 OFFCURVE",
"188 256 OFFCURVE",
"266 256 CURVE SMOOTH",
"306 256 OFFCURVE",
"350 247 OFFCURVE",
"387 233 CURVE",
"387 164 LINE SMOOTH",
"387 152 OFFCURVE",
"379 137 OFFCURVE",
"366 126 CURVE",
"340 92 OFFCURVE",
"288 71 OFFCURVE",
"235 71 CURVE SMOOTH"
);
},
{
closed = 1;
nodes = (
"421 615 OFFCURVE",
"446 713 OFFCURVE",
"446 730 CURVE",
"383 730 LINE",
"383 726 OFFCURVE",
"378 681 OFFCURVE",
"329 681 CURVE SMOOTH",
"280 681 OFFCURVE",
"257 725 OFFCURVE",
"198 725 CURVE SMOOTH",
"115 725 OFFCURVE",
"91 631 OFFCURVE",
"91 610 CURVE",
"153 610 LINE",
"153 614 OFFCURVE",
"157 658 OFFCURVE",
"202 658 CURVE SMOOTH",
"245 658 OFFCURVE",
"271 615 OFFCURVE",
"332 615 CURVE SMOOTH"
);
}
);
width = 567;
}
);
unicode = 00E3;
},
{
glyphname = b;
layers = (
{
layerId = "AC509B01-5F4C-4AA2-97FB-92B74F0D1424";
name = Bold;
paths = (
{
closed = 1;
nodes = (
"487 -10 OFFCURVE",
"593 110 OFFCURVE",
"593 259 CURVE SMOOTH",
"593 403 OFFCURVE",
"501 532 OFFCURVE",
"361 532 CURVE SMOOTH",
"278 532 OFFCURVE",
"215 490 OFFCURVE",
"174 424 CURVE",
"174 730 LINE",
"64 730 LINE",
"64 0 LINE",
"161 0 LINE",
"161 95 LINE",
"198 31 OFFCURVE",
"266 -10 OFFCURVE",
"347 -10 CURVE SMOOTH"
);
},
{
closed = 1;
nodes = (
"261 84 OFFCURVE",
"190 127 OFFCURVE",
"174 187 CURVE",
"174 325 LINE",
"203 387 OFFCURVE",
"258 438 OFFCURVE",
"326 438 CURVE SMOOTH",
"417 438 OFFCURVE",
"481 353 OFFCURVE",
"481 259 CURVE SMOOTH",
"481 167 OFFCURVE",
"414 84 OFFCURVE",
"318 84 CURVE SMOOTH"
);
}
);
width = 627;
}
);
unicode = 0062;
},
{
glyphname = backslash;
layers = (
{
layerId = "AC509B01-5F4C-4AA2-97FB-92B74F0D1424";
name = Bold;
paths = (
{
closed = 1;
nodes = (
"27 710 LINE",
"463 0 LINE",
"585 0 LINE",
"150 710 LINE"
);
}
);
width = 613;
}
);
unicode = 005C;
},
{
glyphname = bar;
layers = (
{
layerId = "AC509B01-5F4C-4AA2-97FB-92B74F0D1424";
name = Bold;
paths = (
{
closed = 1;
nodes = (
"168 -130 LINE",
"168 775 LINE",
"74 775 LINE",
"74 -130 LINE"
);
}
);
width = 242;
}
);
unicode = 007C;
},
{
glyphname = braceleft;
layers = (
{
layerId = "AC509B01-5F4C-4AA2-97FB-92B74F0D1424";
name = Bold;
paths = (
{
closed = 1;
nodes = (
"245 651 LINE",
"245 740 LINE",
"113 740 LINE SMOOTH",
"106 740 OFFCURVE",
"90 735 OFFCURVE",
"90 710 CURVE SMOOTH",
"90 461 LINE SMOOTH",
"90 437 OFFCURVE",
"72 400 OFFCURVE",
"44 400 CURVE",
"44 322 LINE",
"70 317 OFFCURVE",
"90 291 OFFCURVE",
"90 259 CURVE SMOOTH",
"90 -1 LINE SMOOTH",
"90 -24 OFFCURVE",
"104 -31 OFFCURVE",
"113 -31 CURVE SMOOTH",
"245 -31 LINE",
"245 58 LINE",
"190 58 LINE",
"190 293 LINE SMOOTH",
"190 315 OFFCURVE",
"178 342 OFFCURVE",
"158 360 CURVE",
"179 379 OFFCURVE",
"190 404 OFFCURVE",
"190 427 CURVE SMOOTH",
"190 651 LINE"
);
}
);
width = 287;
}
);
unicode = 007B;
},
{
glyphname = braceright;
layers = (
{
layerId = "AC509B01-5F4C-4AA2-97FB-92B74F0D1424";
name = Bold;
paths = (
{
closed = 1;
nodes = (
"98 651 LINE",
"98 427 LINE SMOOTH",
"98 404 OFFCURVE",
"109 379 OFFCURVE",
"130 360 CURVE",
"109 342 OFFCURVE",
"98 315 OFFCURVE",
"98 293 CURVE SMOOTH",
"98 58 LINE",
"43 58 LINE",
"43 -31 LINE",
"175 -31 LINE SMOOTH",
"183 -31 OFFCURVE",
"198 -24 OFFCURVE",
"198 -1 CURVE SMOOTH",
"198 259 LINE SMOOTH",
"198 291 OFFCURVE",
"217 317 OFFCURVE",
"243 322 CURVE",
"243 400 LINE",
"215 400 OFFCURVE",
"198 437 OFFCURVE",
"198 461 CURVE SMOOTH",
"198 710 LINE SMOOTH",
"198 735 OFFCURVE",
"181 740 OFFCURVE",
"175 740 CURVE SMOOTH",
"43 740 LINE",
"43 651 LINE"
);
}
);
width = 287;
}
);
unicode = 007D;
},
{
glyphname = bracketleft;
layers = (
{
layerId = "AC509B01-5F4C-4AA2-97FB-92B74F0D1424";
name = Bold;
paths = (
{
closed = 1;
nodes = (
"239 -40 LINE",
"239 49 LINE",
"178 49 LINE",
"178 651 LINE",
"239 651 LINE",
"239 740 LINE",
"76 740 LINE",
"76 -40 LINE"
);
}
);
width = 281;
}
);
unicode = 005B;
},
{
glyphname = bracketright;
layers = (
{
layerId = "AC509B01-5F4C-4AA2-97FB-92B74F0D1424";
name = Bold;
paths = (
{
closed = 1;
nodes = (
"206 -40 LINE",
"206 740 LINE",
"43 740 LINE",
"43 651 LINE",
"104 651 LINE",
"104 49 LINE",
"43 49 LINE",
"43 -40 LINE"
);
}
);
width = 281;
}
);
unicode = 005D;
},
{
glyphname = brokenbar;
layers = (
{
layerId = "AC509B01-5F4C-4AA2-97FB-92B74F0D1424";
name = Bold;
paths = (
{
closed = 1;
nodes = (
"76 269 LINE",
"76 -130 LINE",
"170 -130 LINE",
"170 269 LINE"
);
},
{
closed = 1;
nodes = (
"76 775 LINE",
"76 376 LINE",
"170 376 LINE",
"170 775 LINE"
);
}
);
width = 246;
}
);
unicode = 00A6;
},
{
glyphname = bullet;
layers = (
{
layerId = "AC509B01-5F4C-4AA2-97FB-92B74F0D1424";
name = Bold;
paths = (
{
closed = 1;
nodes = (
"279 402 OFFCURVE",
"235 447 OFFCURVE",
"180 447 CURVE SMOOTH",
"126 447 OFFCURVE",
"81 402 OFFCURVE",
"81 348 CURVE SMOOTH",
"81 293 OFFCURVE",
"126 249 OFFCURVE",
"180 249 CURVE SMOOTH",
"235 249 OFFCURVE",
"279 293 OFFCURVE",
"279 348 CURVE SMOOTH"
);
}
);
width = 360;
}
);
unicode = 2022;
},
{
glyphname = c;
layers = (
{
layerId = "AC509B01-5F4C-4AA2-97FB-92B74F0D1424";
name = Bold;
paths = (
{
closed = 1;
nodes = (
"32 116 OFFCURVE",
"140 -10 OFFCURVE",
"303 -10 CURVE SMOOTH",
"413 -10 OFFCURVE",
"500 46 OFFCURVE",
"534 124 CURVE",
"426 156 LINE",
"410 116 OFFCURVE",
"356 84 OFFCURVE",
"302 84 CURVE SMOOTH",
"216 84 OFFCURVE",
"145 161 OFFCURVE",
"145 262 CURVE SMOOTH",
"145 365 OFFCURVE",
"213 438 OFFCURVE",
"301 438 CURVE SMOOTH",
"353 438 OFFCURVE",
"398 412 OFFCURVE",
"423 368 CURVE",
"530 402 LINE",
"491 480 OFFCURVE",
"411 532 OFFCURVE",
"303 532 CURVE SMOOTH",
"138 532 OFFCURVE",
"32 409 OFFCURVE",
"32 262 CURVE SMOOTH"
);
}
);
width = 559;
}
);
unicode = 0063;
},
{
glyphname = cacute;
layers = (
{
layerId = "AC509B01-5F4C-4AA2-97FB-92B74F0D1424";
name = Bold;
paths = (
{
closed = 1;
nodes = (
"416 730 LINE",
"311 730 LINE",
"254 620 LINE",
"326 598 LINE"
);
},
{
closed = 1;
nodes = (
"32 116 OFFCURVE",
"140 -10 OFFCURVE",
"303 -10 CURVE SMOOTH",
"413 -10 OFFCURVE",
"500 46 OFFCURVE",
"534 124 CURVE",
"426 156 LINE",
"410 116 OFFCURVE",
"356 84 OFFCURVE",
"302 84 CURVE SMOOTH",
"216 84 OFFCURVE",
"145 161 OFFCURVE",
"145 262 CURVE SMOOTH",
"145 365 OFFCURVE",
"213 438 OFFCURVE",
"301 438 CURVE SMOOTH",
"353 438 OFFCURVE",
"398 412 OFFCURVE",
"423 368 CURVE",
"530 402 LINE",
"491 480 OFFCURVE",
"411 532 OFFCURVE",
"303 532 CURVE SMOOTH",
"138 532 OFFCURVE",
"32 409 OFFCURVE",
"32 262 CURVE SMOOTH"
);
}
);
width = 559;
}
);
unicode = 0107;
},
{
glyphname = ccaron;
layers = (
{
layerId = "AC509B01-5F4C-4AA2-97FB-92B74F0D1424";
name = Bold;
paths = (
{
closed = 1;
nodes = (
"158 702 LINE",
"262 607 LINE",
"341 607 LINE",
"445 702 LINE",
"386 730 LINE",
"301 667 LINE",
"216 730 LINE"
);
},
{
closed = 1;
nodes = (
"32 116 OFFCURVE",
"140 -10 OFFCURVE",
"303 -10 CURVE SMOOTH",
"413 -10 OFFCURVE",
"500 46 OFFCURVE",
"534 124 CURVE",
"426 156 LINE",
"410 116 OFFCURVE",
"356 84 OFFCURVE",
"302 84 CURVE SMOOTH",
"216 84 OFFCURVE",
"145 161 OFFCURVE",
"145 262 CURVE SMOOTH",
"145 365 OFFCURVE",
"213 438 OFFCURVE",
"301 438 CURVE SMOOTH",
"353 438 OFFCURVE",
"398 412 OFFCURVE",
"423 368 CURVE",
"530 402 LINE",
"491 480 OFFCURVE",
"411 532 OFFCURVE",
"303 532 CURVE SMOOTH",
"138 532 OFFCURVE",
"32 409 OFFCURVE",
"32 262 CURVE SMOOTH"
);
}
);
width = 559;
}
);
unicode = 010D;
},
{
glyphname = ccedilla;
layers = (
{
layerId = "AC509B01-5F4C-4AA2-97FB-92B74F0D1424";
name = Bold;
paths = (
{
closed = 1;
nodes = (
"203 -169 LINE",
"229 -179 OFFCURVE",
"264 -189 OFFCURVE",
"306 -189 CURVE SMOOTH",
"385 -189 OFFCURVE",
"425 -156 OFFCURVE",
"425 -108 CURVE SMOOTH",
"425 -62 OFFCURVE",
"390 -41 OFFCURVE",
"343 -41 CURVE SMOOTH",
"333 -41 OFFCURVE",
"319 -42 OFFCURVE",
"309 -45 CURVE",
"332 -9 LINE",
"429 0 OFFCURVE",
"504 53 OFFCURVE",
"535 124 CURVE",
"427 156 LINE",
"411 116 OFFCURVE",
"357 84 OFFCURVE",
"303 84 CURVE SMOOTH",
"217 84 OFFCURVE",
"146 161 OFFCURVE",
"146 262 CURVE SMOOTH",
"146 365 OFFCURVE",
"214 438 OFFCURVE",
"302 438 CURVE SMOOTH",
"354 438 OFFCURVE",
"399 412 OFFCURVE",
"424 368 CURVE",
"531 402 LINE",
"492 480 OFFCURVE",
"412 532 OFFCURVE",
"304 532 CURVE SMOOTH",
"139 532 OFFCURVE",
"33 409 OFFCURVE",
"33 262 CURVE SMOOTH",
"33 123 OFFCURVE",
"131 2 OFFCURVE",
"281 -9 CURVE",
"239 -90 LINE",
"256 -85 OFFCURVE",
"291 -78 OFFCURVE",
"319 -78 CURVE SMOOTH",
"350 -78 OFFCURVE",
"371 -86 OFFCURVE",
"371 -112 CURVE SMOOTH",
"371 -136 OFFCURVE",
"349 -146 OFFCURVE",
"314 -146 CURVE SMOOTH",
"279 -146 OFFCURVE",
"242 -135 OFFCURVE",
"226 -126 CURVE"
);
}
);
width = 561;
}
);
unicode = 00E7;
},
{
glyphname = ccircumflex;
layers = (
{
layerId = "AC509B01-5F4C-4AA2-97FB-92B74F0D1424";
name = Bold;
paths = (
{
closed = 1;
nodes = (
"216 607 LINE",
"301 670 LINE",
"386 607 LINE",
"445 635 LINE",
"341 730 LINE",
"262 730 LINE",
"158 635 LINE"
);
},
{
closed = 1;
nodes = (
"32 116 OFFCURVE",
"140 -10 OFFCURVE",
"303 -10 CURVE SMOOTH",
"413 -10 OFFCURVE",
"500 46 OFFCURVE",
"534 124 CURVE",
"426 156 LINE",
"410 116 OFFCURVE",
"356 84 OFFCURVE",
"302 84 CURVE SMOOTH",
"216 84 OFFCURVE",
"145 161 OFFCURVE",
"145 262 CURVE SMOOTH",
"145 365 OFFCURVE",
"213 438 OFFCURVE",
"301 438 CURVE SMOOTH",
"353 438 OFFCURVE",
"398 412 OFFCURVE",
"423 368 CURVE",
"530 402 LINE",
"491 480 OFFCURVE",
"411 532 OFFCURVE",
"303 532 CURVE SMOOTH",
"138 532 OFFCURVE",
"32 409 OFFCURVE",
"32 262 CURVE SMOOTH"
);
}
);
width = 559;
}
);
unicode = 0109;
},
{
glyphname = cdotaccent;
layers = (
{
layerId = "AC509B01-5F4C-4AA2-97FB-92B74F0D1424";
name = Bold;
paths = (
{
closed = 1;
nodes = (
"32 116 OFFCURVE",
"140 -10 OFFCURVE",
"303 -10 CURVE SMOOTH",
"413 -10 OFFCURVE",
"500 46 OFFCURVE",
"534 124 CURVE",
"426 156 LINE",
"410 116 OFFCURVE",
"356 84 OFFCURVE",
"302 84 CURVE SMOOTH",
"216 84 OFFCURVE",
"145 161 OFFCURVE",
"145 262 CURVE SMOOTH",
"145 365 OFFCURVE",
"213 438 OFFCURVE",
"301 438 CURVE SMOOTH",
"353 438 OFFCURVE",
"398 412 OFFCURVE",
"423 368 CURVE",
"530 402 LINE",
"491 480 OFFCURVE",
"411 532 OFFCURVE",
"303 532 CURVE SMOOTH",
"138 532 OFFCURVE",
"32 409 OFFCURVE",
"32 262 CURVE SMOOTH"
);
},
{
closed = 1;
nodes = (
"351 615 LINE",
"351 730 LINE",
"252 730 LINE",
"252 615 LINE"
);
}
);
width = 559;
}
);
unicode = 010B;
},
{
glyphname = cent;
layers = (
{
layerId = "AC509B01-5F4C-4AA2-97FB-92B74F0D1424";
name = Bold;
paths = (
{
closed = 1;
nodes = (
"330 -120 LINE",
"330 -10 LINE",
"400 -10 OFFCURVE",
"509 35 OFFCURVE",
"546 124 CURVE",
"438 156 LINE",
"426 118 OFFCURVE",
"372 92 OFFCURVE",
"330 87 CURVE",
"330 434 LINE",
"373 431 OFFCURVE",
"412 409 OFFCURVE",
"435 368 CURVE",
"542 402 LINE",
"500 482 OFFCURVE",
"425 528 OFFCURVE",
"330 531 CURVE",
"330 645 LINE",
"279 645 LINE",
"279 531 LINE",
"130 512 OFFCURVE",
"43 393 OFFCURVE",
"43 258 CURVE SMOOTH",
"43 131 OFFCURVE",
"141 2 OFFCURVE",
"279 -9 CURVE",
"279 -120 LINE"
);
},
{
closed = 1;
nodes = (
"156 338 OFFCURVE",
"201 418 OFFCURVE",
"279 430 CURVE",
"279 92 LINE",
"206 109 OFFCURVE",
"156 180 OFFCURVE",
"156 258 CURVE SMOOTH"
);
}
);
width = 585;
}
);
unicode = 00A2;
},
{
glyphname = colon;
layers = (
{
layerId = "AC509B01-5F4C-4AA2-97FB-92B74F0D1424";
name = Bold;
paths = (
{
closed = 1;
nodes = (
"158 391 LINE",
"158 518 LINE",
"68 518 LINE",
"68 391 LINE"
);
},
{
closed = 1;
nodes = (
"158 0 LINE",
"158 128 LINE",
"68 128 LINE",
"68 0 LINE"
);
}
);
width = 226;
}
);
unicode = 003A;
},
{
glyphname = comma;
layers = (
{
layerId = "AC509B01-5F4C-4AA2-97FB-92B74F0D1424";
name = Bold;
paths = (
{
closed = 1;
nodes = (
"40 -97 LINE",
"93 -97 OFFCURVE",
"160 -76 OFFCURVE",
"160 -9 CURVE SMOOTH",
"160 128 LINE",
"69 128 LINE",
"69 11 LINE SMOOTH",
"69 -13 OFFCURVE",
"49 -17 OFFCURVE",
"40 -17 CURVE"
);
}
);
width = 225;
}
);
unicode = 002C;
},
{
glyphname = copyright;
layers = (
{
layerId = "AC509B01-5F4C-4AA2-97FB-92B74F0D1424";
name = Bold;
paths = (
{
closed = 1;
nodes = (
"635 -7 OFFCURVE",
"795 148 OFFCURVE",
"795 355 CURVE SMOOTH",
"795 561 OFFCURVE",
"635 715 OFFCURVE",
"418 715 CURVE SMOOTH",
"205 715 OFFCURVE",
"47 561 OFFCURVE",
"47 355 CURVE SMOOTH",
"47 148 OFFCURVE",
"205 -7 OFFCURVE",
"418 -7 CURVE SMOOTH"
);
},
{
closed = 1;
nodes = (
"232 37 OFFCURVE",
"93 175 OFFCURVE",
"93 354 CURVE SMOOTH",
"93 534 OFFCURVE",
"233 671 OFFCURVE",
"418 671 CURVE SMOOTH",
"608 671 OFFCURVE",
"748 534 OFFCURVE",
"748 353 CURVE SMOOTH",
"748 166 OFFCURVE",
"604 37 OFFCURVE",
"418 37 CURVE SMOOTH"
);
},
{
closed = 1;
nodes = (
"535 119 OFFCURVE",
"612 183 OFFCURVE",
"638 244 CURVE",
"532 276 LINE",
"512 236 OFFCURVE",
"466 213 OFFCURVE",
"424 213 CURVE SMOOTH",
"363 213 OFFCURVE",
"294 264 OFFCURVE",
"294 355 CURVE SMOOTH",
"294 428 OFFCURVE",
"339 497 OFFCURVE",
"423 497 CURVE SMOOTH",
"457 497 OFFCURVE",
"504 484 OFFCURVE",
"527 436 CURVE",
"634 470 LINE",
"600 546 OFFCURVE",
"522 592 OFFCURVE",
"423 592 CURVE SMOOTH",
"261 592 OFFCURVE",
"181 473 OFFCURVE",
"181 355 CURVE SMOOTH",
"181 218 OFFCURVE",
"287 119 OFFCURVE",
"427 119 CURVE SMOOTH"
);
}
);
width = 841;
}
);
unicode = 00A9;
},
{
glyphname = d;
layers = (
{
layerId = "AC509B01-5F4C-4AA2-97FB-92B74F0D1424";
name = Bold;
paths = (
{
closed = 1;
nodes = (
"355 -10 OFFCURVE",
"428 28 OFFCURVE",
"468 95 CURVE",
"470 52 LINE",
"475 19 OFFCURVE",
"499 -1 OFFCURVE",
"540 -5 CURVE",
"554 -5 OFFCURVE",
"571 -4 OFFCURVE",
"594 0 CURVE",
"594 94 LINE",
"571 95 OFFCURVE",
"562 105 OFFCURVE",
"562 130 CURVE SMOOTH",
"562 730 LINE",
"452 730 LINE",
"452 424 LINE",
"416 486 OFFCURVE",
"349 532 OFFCURVE",
"268 532 CURVE SMOOTH",
"131 532 OFFCURVE",
"33 410 OFFCURVE",
"33 261 CURVE SMOOTH",
"33 113 OFFCURVE",
"136 -10 OFFCURVE",
"281 -10 CURVE SMOOTH"
);
},
{
closed = 1;
nodes = (
"216 84 OFFCURVE",
"146 163 OFFCURVE",
"146 259 CURVE SMOOTH",
"146 351 OFFCURVE",
"208 438 OFFCURVE",
"301 438 CURVE SMOOTH",
"361 438 OFFCURVE",
"429 389 OFFCURVE",
"452 325 CURVE",
"452 188 LINE",
"437 129 OFFCURVE",
"366 84 OFFCURVE",
"309 84 CURVE SMOOTH"
);
}
);
width = 640;
}
);
unicode = 0064;
},
{
glyphname = d.alt;
layers = (
{
layerId = "AC509B01-5F4C-4AA2-97FB-92B74F0D1424";
name = Bold;
paths = (
{
closed = 1;
nodes = (
"562 0 LINE",
"562 730 LINE",
"452 730 LINE",
"452 424 LINE",
"414 486 OFFCURVE",
"349 532 OFFCURVE",
"267 532 CURVE SMOOTH",
"132 532 OFFCURVE",
"33 410 OFFCURVE",
"33 261 CURVE SMOOTH",
"33 113 OFFCURVE",
"136 -10 OFFCURVE",
"281 -10 CURVE SMOOTH",
"355 -10 OFFCURVE",
"416 27 OFFCURVE",
"452 87 CURVE",
"452 0 LINE"
);
},
{
closed = 1;
nodes = (
"452 188 LINE",
"438 129 OFFCURVE",
"367 84 OFFCURVE",
"309 84 CURVE SMOOTH",
"217 84 OFFCURVE",
"146 163 OFFCURVE",
"146 259 CURVE SMOOTH",
"146 350 OFFCURVE",
"208 438 OFFCURVE",
"300 438 CURVE SMOOTH",
"361 438 OFFCURVE",
"429 390 OFFCURVE",
"452 325 CURVE"
);
}
);
width = 627;
}
);
},
{
glyphname = dagger;
layers = (
{
layerId = "AC509B01-5F4C-4AA2-97FB-92B74F0D1424";
name = Bold;
paths = (
{
closed = 1;
nodes = (
"276 -130 LINE",
"276 221 LINE",
"407 221 LINE",
"407 321 LINE",
"276 321 LINE",
"276 775 LINE",
"171 775 LINE",
"171 321 LINE",
"39 321 LINE",
"39 221 LINE",
"171 221 LINE",
"171 -130 LINE"
);
}
);
width = 447;
}
);
unicode = 2020;
},
{
glyphname = daggerdbl;
layers = (
{
layerId = "AC509B01-5F4C-4AA2-97FB-92B74F0D1424";
name = Bold;
paths = (
{
closed = 1;
nodes = (
"281 -130 LINE",
"281 123 LINE",
"412 123 LINE",
"412 222 LINE",
"281 222 LINE",
"281 334 LINE",
"412 334 LINE",
"412 433 LINE",
"281 433 LINE",
"281 775 LINE",
"176 775 LINE",
"176 433 LINE",
"44 433 LINE",
"44 334 LINE",
"176 334 LINE",
"176 222 LINE",
"44 222 LINE",
"44 123 LINE",
"176 123 LINE",
"176 -130 LINE"
);
}
);
width = 457;
}
);
unicode = 2021;
},
{
glyphname = dcaron;
layers = (
{
layerId = "AC509B01-5F4C-4AA2-97FB-92B74F0D1424";
name = Bold;
paths = (
{
closed = 1;
nodes = (
"754 730 LINE",
"649 730 LINE",
"592 620 LINE",
"664 598 LINE"
);
},
{
closed = 1;
nodes = (
"355 -10 OFFCURVE",
"428 28 OFFCURVE",
"468 95 CURVE",
"470 52 LINE",
"475 19 OFFCURVE",
"499 -1 OFFCURVE",
"540 -5 CURVE",
"554 -5 OFFCURVE",
"571 -4 OFFCURVE",
"594 0 CURVE",
"594 94 LINE",
"571 95 OFFCURVE",
"562 105 OFFCURVE",
"562 130 CURVE SMOOTH",
"562 730 LINE",
"452 730 LINE",
"452 424 LINE",
"416 486 OFFCURVE",
"349 532 OFFCURVE",
"268 532 CURVE SMOOTH",
"131 532 OFFCURVE",
"33 410 OFFCURVE",
"33 261 CURVE SMOOTH",
"33 113 OFFCURVE",
"136 -10 OFFCURVE",
"281 -10 CURVE SMOOTH"
);
},
{
closed = 1;
nodes = (
"216 84 OFFCURVE",
"146 163 OFFCURVE",
"146 259 CURVE SMOOTH",
"146 351 OFFCURVE",
"208 438 OFFCURVE",
"301 438 CURVE SMOOTH",
"361 438 OFFCURVE",
"429 389 OFFCURVE",
"452 325 CURVE",
"452 188 LINE",
"437 129 OFFCURVE",
"366 84 OFFCURVE",
"309 84 CURVE SMOOTH"
);
}
);
width = 640;
}
);
unicode = 010F;
},
{
glyphname = dcroat;
layers = (
{
layerId = "AC509B01-5F4C-4AA2-97FB-92B74F0D1424";
name = Bold;
paths = (
{
closed = 1;
nodes = (
"355 -10 OFFCURVE",
"428 28 OFFCURVE",
"468 95 CURVE",
"470 52 LINE",
"475 19 OFFCURVE",
"499 -1 OFFCURVE",
"540 -5 CURVE",
"554 -5 OFFCURVE",
"571 -4 OFFCURVE",
"594 0 CURVE",
"594 94 LINE",
"571 95 OFFCURVE",
"562 105 OFFCURVE",
"562 130 CURVE SMOOTH",
"562 604 LINE",
"628 604 LINE",
"628 672 LINE",
"562 672 LINE",
"562 730 LINE",
"452 730 LINE",
"452 672 LINE",
"347 672 LINE",
"347 604 LINE",
"452 604 LINE",
"452 424 LINE",
"416 486 OFFCURVE",
"349 532 OFFCURVE",
"268 532 CURVE SMOOTH",
"131 532 OFFCURVE",
"33 410 OFFCURVE",
"33 261 CURVE SMOOTH",
"33 113 OFFCURVE",
"136 -10 OFFCURVE",
"281 -10 CURVE SMOOTH"
);
},
{
closed = 1;
nodes = (
"216 84 OFFCURVE",
"146 163 OFFCURVE",
"146 259 CURVE SMOOTH",
"146 351 OFFCURVE",
"208 438 OFFCURVE",
"301 438 CURVE SMOOTH",
"361 438 OFFCURVE",
"429 389 OFFCURVE",
"452 325 CURVE",
"452 188 LINE",
"437 129 OFFCURVE",
"366 84 OFFCURVE",
"309 84 CURVE SMOOTH"
);
}
);
width = 640;
}
);
unicode = 0111;
},
{
glyphname = degree;
layers = (
{
layerId = "AC509B01-5F4C-4AA2-97FB-92B74F0D1424";
name = Bold;
paths = (
{
closed = 1;
nodes = (
"44 575 OFFCURVE",
"85 533 OFFCURVE",
"139 533 CURVE SMOOTH",
"195 533 OFFCURVE",
"235 573 OFFCURVE",
"235 631 CURVE SMOOTH",
"235 684 OFFCURVE",
"195 724 OFFCURVE",
"139 724 CURVE SMOOTH",
"85 724 OFFCURVE",
"44 684 OFFCURVE",
"44 631 CURVE SMOOTH"
);
},
{
closed = 1;
nodes = (
"162 668 OFFCURVE",
"179 651 OFFCURVE",
"179 629 CURVE SMOOTH",
"179 606 OFFCURVE",
"161 589 OFFCURVE",
"139 589 CURVE SMOOTH",
"119 589 OFFCURVE",
"100 605 OFFCURVE",
"100 629 CURVE SMOOTH",
"100 652 OFFCURVE",
"119 668 OFFCURVE",
"139 668 CURVE SMOOTH"
);
}
);
width = 280;
}
);
unicode = 00B0;
},
{
glyphname = divide;
layers = (
{
layerId = "AC509B01-5F4C-4AA2-97FB-92B74F0D1424";
name = Bold;
paths = (
{
closed = 1;
nodes = (
"306 411 LINE",
"306 526 LINE",
"213 526 LINE",
"213 411 LINE"
);
},
{
closed = 1;
nodes = (
"306 58 LINE",
"306 172 LINE",
"213 172 LINE",
"213 58 LINE"
);
},
{
closed = 1;
nodes = (
"461 248 LINE",
"461 336 LINE",
"57 336 LINE",
"57 248 LINE"
);
}
);
width = 518;
}
);
unicode = 00F7;
},
{
glyphname = dollar;
layers = (
{
layerId = "AC509B01-5F4C-4AA2-97FB-92B74F0D1424";
name = Bold;
paths = (
{
closed = 1;
nodes = (
"560 635 LINE",
"504 676 OFFCURVE",
"431 709 OFFCURVE",
"344 714 CURVE",
"344 815 LINE",
"292 815 LINE",
"292 714 LINE",
"161 705 OFFCURVE",
"63 630 OFFCURVE",
"63 499 CURVE SMOOTH",
"63 388 OFFCURVE",
"134 346 OFFCURVE",
"299 302 CURVE",
"299 95 LINE",
"201 105 OFFCURVE",
"117 153 OFFCURVE",
"87 185 CURVE",
"35 89 LINE",
"107 34 OFFCURVE",
"197 1 OFFCURVE",
"292 -5 CURVE",
"292 -112 LINE",
"344 -112 LINE",
"344 -7 LINE",
"478 -3 OFFCURVE",
"589 56 OFFCURVE",
"589 199 CURVE SMOOTH",
"589 330 OFFCURVE",
"495 367 OFFCURVE",
"336 407 CURVE",
"336 614 LINE",
"418 608 OFFCURVE",
"484 569 OFFCURVE",
"509 543 CURVE"
);
},
{
closed = 1;
nodes = (
"468 126 OFFCURVE",
"419 95 OFFCURVE",
"336 94 CURVE",
"336 292 LINE",
"420 268 OFFCURVE",
"468 244 OFFCURVE",
"468 186 CURVE SMOOTH"
);
},
{
closed = 1;
nodes = (
"179 574 OFFCURVE",
"221 610 OFFCURVE",
"299 614 CURVE",
"299 417 LINE",
"218 439 OFFCURVE",
"179 460 OFFCURVE",
"179 516 CURVE SMOOTH"
);
}
);
width = 628;
}
);
unicode = 0024;
},
{
glyphname = dotlessi;
layers = (
{
layerId = "AC509B01-5F4C-4AA2-97FB-92B74F0D1424";
name = Bold;
paths = (
{
closed = 1;
nodes = (
"174 0 LINE",
"174 523 LINE",
"64 523 LINE",
"64 0 LINE"
);
}
);
width = 239;
}
);
unicode = 0131;
},
{
glyphname = dotlessj;
layers = (
{
layerId = "AC509B01-5F4C-4AA2-97FB-92B74F0D1424";
name = Bold;
paths = (
{
closed = 1;
nodes = (
"96 -191 OFFCURVE",
"174 -117 OFFCURVE",
"174 -11 CURVE SMOOTH",
"174 523 LINE",
"64 523 LINE",
"64 -19 LINE SMOOTH",
"64 -63 OFFCURVE",
"29 -95 OFFCURVE",
"-10 -95 CURVE SMOOTH",
"-33 -95 OFFCURVE",
"-57 -88 OFFCURVE",
"-74 -72 CURVE",
"-123 -146 LINE",
"-89 -177 OFFCURVE",
"-45 -191 OFFCURVE",
"3 -191 CURVE SMOOTH"
);
}
);
width = 239;
}
);
unicode = 0237;
},
{
glyphname = e;
layers = (
{
layerId = "AC509B01-5F4C-4AA2-97FB-92B74F0D1424";
name = Bold;
paths = (
{
closed = 1;
nodes = (
"413 -10 OFFCURVE",
"502 46 OFFCURVE",
"538 124 CURVE",
"444 151 LINE",
"424 103 OFFCURVE",
"366 71 OFFCURVE",
"307 71 CURVE SMOOTH",
"226 71 OFFCURVE",
"156 133 OFFCURVE",
"149 225 CURVE",
"568 225 LINE",
"569 234 OFFCURVE",
"571 249 OFFCURVE",
"571 265 CURVE SMOOTH",
"571 406 OFFCURVE",
"468 532 OFFCURVE",
"304 532 CURVE SMOOTH",
"140 532 OFFCURVE",
"32 408 OFFCURVE",
"32 260 CURVE SMOOTH",
"32 114 OFFCURVE",
"140 -10 OFFCURVE",
"303 -10 CURVE SMOOTH"
);
},
{
closed = 1;
nodes = (
"146 301 LINE",
"153 390 OFFCURVE",
"220 451 OFFCURVE",
"303 451 CURVE SMOOTH",
"387 451 OFFCURVE",
"453 390 OFFCURVE",
"462 301 CURVE"
);
}
);
width = 595;
}
);
unicode = 0065;
},
{
glyphname = eacute;
layers = (
{
layerId = "AC509B01-5F4C-4AA2-97FB-92B74F0D1424";
name = Bold;
paths = (
{
closed = 1;
nodes = (
"415 730 LINE",
"310 730 LINE",
"253 620 LINE",
"325 598 LINE"
);
},
{
closed = 1;
nodes = (
"413 -10 OFFCURVE",
"502 46 OFFCURVE",
"538 124 CURVE",
"444 151 LINE",
"424 103 OFFCURVE",
"366 71 OFFCURVE",
"307 71 CURVE SMOOTH",
"226 71 OFFCURVE",
"156 133 OFFCURVE",
"149 225 CURVE",
"568 225 LINE",
"569 234 OFFCURVE",
"571 249 OFFCURVE",
"571 265 CURVE SMOOTH",
"571 406 OFFCURVE",
"468 532 OFFCURVE",
"304 532 CURVE SMOOTH",
"140 532 OFFCURVE",
"32 408 OFFCURVE",
"32 260 CURVE SMOOTH",
"32 114 OFFCURVE",
"140 -10 OFFCURVE",
"303 -10 CURVE SMOOTH"
);
},
{
closed = 1;
nodes = (
"146 301 LINE",
"153 390 OFFCURVE",
"220 451 OFFCURVE",
"303 451 CURVE SMOOTH",
"387 451 OFFCURVE",
"453 390 OFFCURVE",
"462 301 CURVE"
);
}
);
width = 595;
}
);
unicode = 00E9;
},
{
glyphname = ebreve;
layers = (
{
layerId = "AC509B01-5F4C-4AA2-97FB-92B74F0D1424";
name = Bold;
paths = (
{
closed = 1;
nodes = (
"413 -10 OFFCURVE",
"502 46 OFFCURVE",
"538 124 CURVE",
"444 151 LINE",
"424 103 OFFCURVE",
"366 71 OFFCURVE",
"307 71 CURVE SMOOTH",
"226 71 OFFCURVE",
"156 133 OFFCURVE",
"149 225 CURVE",
"568 225 LINE",
"569 234 OFFCURVE",
"571 249 OFFCURVE",
"571 265 CURVE SMOOTH",
"571 406 OFFCURVE",
"468 532 OFFCURVE",
"304 532 CURVE SMOOTH",
"140 532 OFFCURVE",
"32 408 OFFCURVE",
"32 260 CURVE SMOOTH",
"32 114 OFFCURVE",
"140 -10 OFFCURVE",
"303 -10 CURVE SMOOTH"
);
},
{
closed = 1;
nodes = (
"146 301 LINE",
"153 390 OFFCURVE",
"220 451 OFFCURVE",
"303 451 CURVE SMOOTH",
"387 451 OFFCURVE",
"453 390 OFFCURVE",
"462 301 CURVE"
);
},
{
closed = 1;
nodes = (
"270 659 OFFCURVE",
"243 692 OFFCURVE",
"243 730 CURVE",
"182 730 LINE",
"182 660 OFFCURVE",
"233 608 OFFCURVE",
"301 608 CURVE SMOOTH",
"369 608 OFFCURVE",
"420 660 OFFCURVE",
"420 730 CURVE",
"359 730 LINE",
"355 689 OFFCURVE",
"330 659 OFFCURVE",
"301 659 CURVE SMOOTH"
);
}
);
width = 595;
}
);
unicode = 0115;
},
{
glyphname = ecaron;
layers = (
{
layerId = "AC509B01-5F4C-4AA2-97FB-92B74F0D1424";
name = Bold;
paths = (
{
closed = 1;
nodes = (
"157 702 LINE",
"261 607 LINE",
"340 607 LINE",
"444 702 LINE",
"385 730 LINE",
"300 667 LINE",
"215 730 LINE"
);
},
{
closed = 1;
nodes = (
"413 -10 OFFCURVE",
"502 46 OFFCURVE",
"538 124 CURVE",
"444 151 LINE",
"424 103 OFFCURVE",
"366 71 OFFCURVE",
"307 71 CURVE SMOOTH",
"226 71 OFFCURVE",
"156 133 OFFCURVE",
"149 225 CURVE",
"568 225 LINE",
"569 234 OFFCURVE",
"571 249 OFFCURVE",
"571 265 CURVE SMOOTH",
"571 406 OFFCURVE",
"468 532 OFFCURVE",
"304 532 CURVE SMOOTH",
"140 532 OFFCURVE",
"32 408 OFFCURVE",
"32 260 CURVE SMOOTH",
"32 114 OFFCURVE",
"140 -10 OFFCURVE",
"303 -10 CURVE SMOOTH"
);
},
{
closed = 1;
nodes = (
"146 301 LINE",
"153 390 OFFCURVE",
"220 451 OFFCURVE",
"303 451 CURVE SMOOTH",
"387 451 OFFCURVE",
"453 390 OFFCURVE",
"462 301 CURVE"
);
}
);
width = 595;
}
);
unicode = 011B;
},
{
glyphname = ecircumflex;
layers = (
{
layerId = "AC509B01-5F4C-4AA2-97FB-92B74F0D1424";
name = Bold;
paths = (
{
closed = 1;
nodes = (
"215 607 LINE",
"300 670 LINE",
"385 607 LINE",
"444 635 LINE",
"340 730 LINE",
"261 730 LINE",
"157 635 LINE"
);
},
{
closed = 1;
nodes = (
"413 -10 OFFCURVE",
"502 46 OFFCURVE",
"538 124 CURVE",
"444 151 LINE",
"424 103 OFFCURVE",
"366 71 OFFCURVE",
"307 71 CURVE SMOOTH",
"226 71 OFFCURVE",
"156 133 OFFCURVE",
"149 225 CURVE",
"568 225 LINE",
"569 234 OFFCURVE",
"571 249 OFFCURVE",
"571 265 CURVE SMOOTH",
"571 406 OFFCURVE",
"468 532 OFFCURVE",
"304 532 CURVE SMOOTH",
"140 532 OFFCURVE",
"32 408 OFFCURVE",
"32 260 CURVE SMOOTH",
"32 114 OFFCURVE",
"140 -10 OFFCURVE",
"303 -10 CURVE SMOOTH"
);
},
{
closed = 1;
nodes = (
"146 301 LINE",
"153 390 OFFCURVE",
"220 451 OFFCURVE",
"303 451 CURVE SMOOTH",
"387 451 OFFCURVE",
"453 390 OFFCURVE",
"462 301 CURVE"
);
}
);
width = 595;
}
);
unicode = 00EA;
},
{
glyphname = edieresis;
layers = (
{
layerId = "AC509B01-5F4C-4AA2-97FB-92B74F0D1424";
name = Bold;
paths = (
{
closed = 1;
nodes = (
"258 615 LINE",
"258 725 LINE",
"166 725 LINE",
"166 615 LINE"
);
},
{
closed = 1;
nodes = (
"435 615 LINE",
"435 725 LINE",
"343 725 LINE",
"343 615 LINE"
);
},
{
closed = 1;
nodes = (
"413 -10 OFFCURVE",
"502 46 OFFCURVE",
"538 124 CURVE",
"444 151 LINE",
"424 103 OFFCURVE",
"366 71 OFFCURVE",
"307 71 CURVE SMOOTH",
"226 71 OFFCURVE",
"156 133 OFFCURVE",
"149 225 CURVE",
"568 225 LINE",
"569 234 OFFCURVE",
"571 249 OFFCURVE",
"571 265 CURVE SMOOTH",
"571 406 OFFCURVE",
"468 532 OFFCURVE",
"304 532 CURVE SMOOTH",
"140 532 OFFCURVE",
"32 408 OFFCURVE",
"32 260 CURVE SMOOTH",
"32 114 OFFCURVE",
"140 -10 OFFCURVE",
"303 -10 CURVE SMOOTH"
);
},
{
closed = 1;
nodes = (
"146 301 LINE",
"153 390 OFFCURVE",
"220 451 OFFCURVE",
"303 451 CURVE SMOOTH",
"387 451 OFFCURVE",
"453 390 OFFCURVE",
"462 301 CURVE"
);
}
);
width = 595;
}
);
unicode = 00EB;
},
{
glyphname = edotaccent;
layers = (
{
layerId = "AC509B01-5F4C-4AA2-97FB-92B74F0D1424";
name = Bold;
paths = (
{
closed = 1;
nodes = (
"413 -10 OFFCURVE",
"502 46 OFFCURVE",
"538 124 CURVE",
"444 151 LINE",
"424 103 OFFCURVE",
"366 71 OFFCURVE",
"307 71 CURVE SMOOTH",
"226 71 OFFCURVE",
"156 133 OFFCURVE",
"149 225 CURVE",
"568 225 LINE",
"569 234 OFFCURVE",
"571 249 OFFCURVE",
"571 265 CURVE SMOOTH",
"571 406 OFFCURVE",
"468 532 OFFCURVE",
"304 532 CURVE SMOOTH",
"140 532 OFFCURVE",
"32 408 OFFCURVE",
"32 260 CURVE SMOOTH",
"32 114 OFFCURVE",
"140 -10 OFFCURVE",
"303 -10 CURVE SMOOTH"
);
},
{
closed = 1;
nodes = (
"146 301 LINE",
"153 390 OFFCURVE",
"220 451 OFFCURVE",
"303 451 CURVE SMOOTH",
"387 451 OFFCURVE",
"453 390 OFFCURVE",
"462 301 CURVE"
);
},
{
closed = 1;
nodes = (
"350 615 LINE",
"350 730 LINE",
"251 730 LINE",
"251 615 LINE"
);
}
);
width = 595;
}
);
unicode = 0117;
},
{
glyphname = egrave;
layers = (
{
layerId = "AC509B01-5F4C-4AA2-97FB-92B74F0D1424";
name = Bold;
paths = (
{
closed = 1;
nodes = (
"413 -10 OFFCURVE",
"502 46 OFFCURVE",
"538 124 CURVE",
"444 151 LINE",
"424 103 OFFCURVE",
"366 71 OFFCURVE",
"307 71 CURVE SMOOTH",
"226 71 OFFCURVE",
"156 133 OFFCURVE",
"149 225 CURVE",
"568 225 LINE",
"569 234 OFFCURVE",
"571 249 OFFCURVE",
"571 265 CURVE SMOOTH",
"571 406 OFFCURVE",
"468 532 OFFCURVE",
"304 532 CURVE SMOOTH",
"140 532 OFFCURVE",
"32 408 OFFCURVE",
"32 260 CURVE SMOOTH",
"32 114 OFFCURVE",
"140 -10 OFFCURVE",
"303 -10 CURVE SMOOTH"
);
},
{
closed = 1;
nodes = (
"146 301 LINE",
"153 390 OFFCURVE",
"220 451 OFFCURVE",
"303 451 CURVE SMOOTH",
"387 451 OFFCURVE",
"453 390 OFFCURVE",
"462 301 CURVE"
);
},
{
closed = 1;
nodes = (
"277 598 LINE",
"347 620 LINE",
"290 730 LINE",
"185 730 LINE"
);
}
);
width = 595;
}
);
unicode = 00E8;
},
{
glyphname = eight;
lastChange = "2014-10-22 14:47:11 +0100";
layers = (
{
layerId = "AC509B01-5F4C-4AA2-97FB-92B74F0D1424";
name = Bold;
paths = (
{
closed = 1;
nodes = (
"554 290 OFFCURVE",
"496 351 OFFCURVE",
"431 380 CURVE",
"486 404 OFFCURVE",
"532 458 OFFCURVE",
"532 520 CURVE SMOOTH",
"532 643 OFFCURVE",
"408 710 OFFCURVE",
"301 710 CURVE SMOOTH",
"194 710 OFFCURVE",
"70 642 OFFCURVE",
"70 519 CURVE SMOOTH",
"70 457 OFFCURVE",
"115 404 OFFCURVE",
"169 380 CURVE",
"111 354 OFFCURVE",
"47 294 OFFCURVE",
"47 210 CURVE SMOOTH",
"47 84 OFFCURVE",
"157 -8 OFFCURVE",
"299 -8 CURVE SMOOTH",
"438 -8 OFFCURVE",
"554 76 OFFCURVE",
"554 205 CURVE SMOOTH"
);
},
{
closed = 1;
nodes = (
"443 141 OFFCURVE",
"373 91 OFFCURVE",
"301 91 CURVE SMOOTH",
"232 91 OFFCURVE",
"159 137 OFFCURVE",
"159 212 CURVE SMOOTH",
"159 286 OFFCURVE",
"227 334 OFFCURVE",
"300 334 CURVE SMOOTH",
"369 334 OFFCURVE",
"443 289 OFFCURVE",
"443 212 CURVE SMOOTH"
);
},
{
closed = 1;
nodes = (
"181 574 OFFCURVE",
"237 612 OFFCURVE",
"300 612 CURVE SMOOTH",
"363 612 OFFCURVE",
"420 575 OFFCURVE",
"420 517 CURVE SMOOTH",
"420 453 OFFCURVE",
"356 418 OFFCURVE",
"301 418 CURVE SMOOTH",
"245 418 OFFCURVE",
"181 452 OFFCURVE",
"181 515 CURVE SMOOTH"
);
}
);
width = 602;
}
);
unicode = 0038;
},
{
glyphname = eightinferior;
layers = (
{
layerId = "AC509B01-5F4C-4AA2-97FB-92B74F0D1424";
name = Bold;
paths = (
{
closed = 1;
nodes = (
"377 169 OFFCURVE",
"340 202 OFFCURVE",
"289 222 CURVE",
"330 236 OFFCURVE",
"361 265 OFFCURVE",
"361 304 CURVE SMOOTH",
"361 371 OFFCURVE",
"280 413 OFFCURVE",
"206 413 CURVE SMOOTH",
"131 413 OFFCURVE",
"50 370 OFFCURVE",
"50 303 CURVE SMOOTH",
"50 262 OFFCURVE",
"84 236 OFFCURVE",
"122 222 CURVE",
"76 204 OFFCURVE",
"34 173 OFFCURVE",
"34 121 CURVE SMOOTH",
"34 51 OFFCURVE",
"108 -5 OFFCURVE",
"205 -5 CURVE SMOOTH",
"298 -5 OFFCURVE",
"377 46 OFFCURVE",
"377 119 CURVE SMOOTH"
);
},
{
closed = 1;
nodes = (
"310 87 OFFCURVE",
"258 61 OFFCURVE",
"207 61 CURVE SMOOTH",
"157 61 OFFCURVE",
"102 85 OFFCURVE",
"102 125 CURVE SMOOTH",
"102 165 OFFCURVE",
"152 191 OFFCURVE",
"206 191 CURVE SMOOTH",
"256 191 OFFCURVE",
"310 167 OFFCURVE",
"310 126 CURVE SMOOTH"
);
},
{
closed = 1;
nodes = (
"117 329 OFFCURVE",
"159 349 OFFCURVE",
"206 349 CURVE SMOOTH",
"251 349 OFFCURVE",
"295 329 OFFCURVE",
"295 298 CURVE SMOOTH",
"295 266 OFFCURVE",
"247 246 OFFCURVE",
"206 246 CURVE SMOOTH",
"164 246 OFFCURVE",
"117 265 OFFCURVE",
"117 297 CURVE SMOOTH"
);
}
);
width = 413;
}
);
unicode = 2088;
},
{
glyphname = eightsuperior;
layers = (
{
layerId = "AC509B01-5F4C-4AA2-97FB-92B74F0D1424";
name = Bold;
paths = (
{
closed = 1;
nodes = (
"377 485 OFFCURVE",
"340 519 OFFCURVE",
"289 538 CURVE",
"330 553 OFFCURVE",
"361 581 OFFCURVE",
"361 621 CURVE SMOOTH",
"361 688 OFFCURVE",
"280 730 OFFCURVE",
"206 730 CURVE SMOOTH",
"131 730 OFFCURVE",
"50 687 OFFCURVE",
"50 620 CURVE SMOOTH",
"50 579 OFFCURVE",
"84 552 OFFCURVE",
"122 538 CURVE",
"76 520 OFFCURVE",
"34 490 OFFCURVE",
"34 438 CURVE SMOOTH",
"34 368 OFFCURVE",
"108 311 OFFCURVE",
"205 311 CURVE SMOOTH",
"298 311 OFFCURVE",
"377 363 OFFCURVE",
"377 436 CURVE SMOOTH"
);
},
{
closed = 1;
nodes = (
"310 404 OFFCURVE",
"258 378 OFFCURVE",
"207 378 CURVE SMOOTH",
"157 378 OFFCURVE",
"102 402 OFFCURVE",
"102 443 CURVE SMOOTH",
"102 482 OFFCURVE",
"152 508 OFFCURVE",
"206 508 CURVE SMOOTH",
"256 508 OFFCURVE",
"310 484 OFFCURVE",
"310 443 CURVE SMOOTH"
);
},
{
closed = 1;
nodes = (
"117 646 OFFCURVE",
"159 666 OFFCURVE",
"206 666 CURVE SMOOTH",
"251 666 OFFCURVE",
"295 647 OFFCURVE",
"295 615 CURVE SMOOTH",
"295 582 OFFCURVE",
"247 563 OFFCURVE",
"206 563 CURVE SMOOTH",
"164 563 OFFCURVE",
"117 581 OFFCURVE",
"117 615 CURVE SMOOTH"
);
}
);
width = 413;
}
);
unicode = 2078;
},
{
glyphname = ellipsis;
layers = (
{
layerId = "AC509B01-5F4C-4AA2-97FB-92B74F0D1424";
name = Bold;
paths = (
{
closed = 1;
nodes = (
"151 0 LINE",
"151 128 LINE",
"60 128 LINE",
"60 0 LINE"
);
},
{
closed = 1;
nodes = (
"320 0 LINE",
"320 128 LINE",
"229 128 LINE",
"229 0 LINE"
);
},
{
closed = 1;
nodes = (
"488 0 LINE",
"488 128 LINE",
"397 128 LINE",
"397 0 LINE"
);
}
);
width = 549;
}
);
unicode = 2026;
},
{
glyphname = emacron;
layers = (
{
layerId = "AC509B01-5F4C-4AA2-97FB-92B74F0D1424";
name = Bold;
paths = (
{
closed = 1;
nodes = (
"413 -10 OFFCURVE",
"502 46 OFFCURVE",
"538 124 CURVE",
"444 151 LINE",
"424 103 OFFCURVE",
"366 71 OFFCURVE",
"307 71 CURVE SMOOTH",
"226 71 OFFCURVE",
"156 133 OFFCURVE",
"149 225 CURVE",
"568 225 LINE",
"569 234 OFFCURVE",
"571 249 OFFCURVE",
"571 265 CURVE SMOOTH",
"571 406 OFFCURVE",
"468 532 OFFCURVE",
"304 532 CURVE SMOOTH",
"140 532 OFFCURVE",
"32 408 OFFCURVE",
"32 260 CURVE SMOOTH",
"32 114 OFFCURVE",
"140 -10 OFFCURVE",
"303 -10 CURVE SMOOTH"
);
},
{
closed = 1;
nodes = (
"146 301 LINE",
"153 390 OFFCURVE",
"220 451 OFFCURVE",
"303 451 CURVE SMOOTH",
"387 451 OFFCURVE",
"453 390 OFFCURVE",
"462 301 CURVE"
);
},
{
closed = 1;
nodes = (
"449 644 LINE",
"449 714 LINE",
"153 714 LINE",
"153 644 LINE"
);
}
);
width = 595;
}
);
unicode = 0113;
},
{
glyphname = emdash;
layers = (
{
layerId = "AC509B01-5F4C-4AA2-97FB-92B74F0D1424";
name = Bold;
paths = (
{
closed = 1;
nodes = (
"857 224 LINE",
"857 323 LINE",
"60 323 LINE",
"60 224 LINE"
);
}
);
width = 917;
}
);
unicode = 2014;
},
{
glyphname = endash;
layers = (
{
layerId = "AC509B01-5F4C-4AA2-97FB-92B74F0D1424";
name = Bold;
paths = (
{
closed = 1;
nodes = (
"530 224 LINE",
"530 323 LINE",
"60 323 LINE",
"60 224 LINE"
);
}
);
width = 591;
}
);
unicode = 2013;
},
{
glyphname = eng;
layers = (
{
layerId = "AC509B01-5F4C-4AA2-97FB-92B74F0D1424";
name = Bold;
paths = (
{
closed = 1;
nodes = (
"454 -191 OFFCURVE",
"534 -117 OFFCURVE",
"534 -11 CURVE SMOOTH",
"534 319 LINE SMOOTH",
"534 434 OFFCURVE",
"503 532 OFFCURVE",
"377 532 CURVE SMOOTH",
"285 532 OFFCURVE",
"204 488 OFFCURVE",
"164 418 CURVE",
"164 523 LINE",
"64 523 LINE",
"64 0 LINE",
"174 0 LINE",
"174 311 LINE",
"197 382 OFFCURVE",
"267 434 OFFCURVE",
"331 434 CURVE SMOOTH",
"391 434 OFFCURVE",
"424 391 OFFCURVE",
"424 293 CURVE SMOOTH",
"424 -19 LINE SMOOTH",
"424 -63 OFFCURVE",
"388 -95 OFFCURVE",
"349 -95 CURVE SMOOTH",
"326 -95 OFFCURVE",
"302 -88 OFFCURVE",
"285 -72 CURVE",
"236 -146 LINE",
"270 -177 OFFCURVE",
"314 -191 OFFCURVE",
"362 -191 CURVE SMOOTH"
);
}
);
width = 593;
}
);
unicode = 014B;
},
{
glyphname = eogonek;
layers = (
{
layerId = "AC509B01-5F4C-4AA2-97FB-92B74F0D1424";
name = Bold;
paths = (
{
closed = 1;
nodes = (
"338 -137 LINE",
"298 -133 OFFCURVE",
"279 -118 OFFCURVE",
"279 -95 CURVE SMOOTH",
"279 -67 OFFCURVE",
"303 -38 OFFCURVE",
"359 -5 CURVE",
"443 10 OFFCURVE",
"509 59 OFFCURVE",
"539 124 CURVE",
"445 151 LINE",
"425 103 OFFCURVE",
"367 71 OFFCURVE",
"308 71 CURVE SMOOTH",
"227 71 OFFCURVE",
"157 133 OFFCURVE",
"150 225 CURVE",
"569 225 LINE",
"570 234 OFFCURVE",
"572 249 OFFCURVE",
"572 265 CURVE SMOOTH",
"572 406 OFFCURVE",
"469 532 OFFCURVE",
"305 532 CURVE SMOOTH",
"141 532 OFFCURVE",
"33 408 OFFCURVE",
"33 260 CURVE SMOOTH",
"33 118 OFFCURVE",
"134 -2 OFFCURVE",
"288 -9 CURVE",
"240 -43 OFFCURVE",
"218 -76 OFFCURVE",
"218 -110 CURVE SMOOTH",
"218 -149 OFFCURVE",
"250 -182 OFFCURVE",
"313 -192 CURVE"
);
},
{
closed = 1;
nodes = (
"147 301 LINE",
"154 390 OFFCURVE",
"221 451 OFFCURVE",
"304 451 CURVE SMOOTH",
"388 451 OFFCURVE",
"454 390 OFFCURVE",
"463 301 CURVE"
);
}
);
width = 597;
}
);
unicode = 0119;
},
{
glyphname = equal;
layers = (
{
layerId = "AC509B01-5F4C-4AA2-97FB-92B74F0D1424";
name = Bold;
paths = (
{
closed = 1;
nodes = (
"374 162 LINE",
"374 235 LINE",
"65 235 LINE",
"65 162 LINE"
);
},
{
closed = 1;
nodes = (
"374 317 LINE",
"374 390 LINE",
"65 390 LINE",
"65 317 LINE"
);
}
);
width = 438;
}
);
unicode = 003D;
},
{
glyphname = eth;
layers = (
{
layerId = "AC509B01-5F4C-4AA2-97FB-92B74F0D1424";
name = Bold;
paths = (
{
closed = 1;
nodes = (
"482 713 LINE",
"400 665 LINE",
"373 689 OFFCURVE",
"342 711 OFFCURVE",
"308 730 CURVE",
"161 730 LINE",
"224 695 OFFCURVE",
"275 660 OFFCURVE",
"315 625 CURVE",
"223 572 LINE",
"255 527 LINE",
"356 585 LINE",
"416 520 OFFCURVE",
"446 452 OFFCURVE",
"459 380 CURVE",
"423 436 OFFCURVE",
"354 473 OFFCURVE",
"277 473 CURVE SMOOTH",
"142 473 OFFCURVE",
"35 365 OFFCURVE",
"35 233 CURVE SMOOTH",
"35 96 OFFCURVE",
"152 -10 OFFCURVE",
"299 -10 CURVE SMOOTH",
"451 -10 OFFCURVE",
"572 104 OFFCURVE",
"572 290 CURVE SMOOTH",
"572 395 OFFCURVE",
"533 523 OFFCURVE",
"440 626 CURVE",
"514 668 LINE"
);
},
{
closed = 1;
nodes = (
"147 317 OFFCURVE",
"216 384 OFFCURVE",
"305 384 CURVE SMOOTH",
"391 384 OFFCURVE",
"459 321 OFFCURVE",
"459 238 CURVE SMOOTH",
"459 154 OFFCURVE",
"391 84 OFFCURVE",
"301 84 CURVE SMOOTH",
"215 84 OFFCURVE",
"147 149 OFFCURVE",
"147 233 CURVE SMOOTH"
);
}
);
width = 609;
}
);
unicode = 00F0;
},
{
glyphname = etilde;
layers = (
{
layerId = "AC509B01-5F4C-4AA2-97FB-92B74F0D1424";
name = Bold;
paths = (
{
closed = 1;
nodes = (
"413 -10 OFFCURVE",
"502 46 OFFCURVE",
"538 124 CURVE",
"444 151 LINE",
"424 103 OFFCURVE",
"366 71 OFFCURVE",
"307 71 CURVE SMOOTH",
"226 71 OFFCURVE",
"156 133 OFFCURVE",
"149 225 CURVE",
"568 225 LINE",
"569 234 OFFCURVE",
"571 249 OFFCURVE",
"571 265 CURVE SMOOTH",
"571 406 OFFCURVE",
"468 532 OFFCURVE",
"304 532 CURVE SMOOTH",
"140 532 OFFCURVE",
"32 408 OFFCURVE",
"32 260 CURVE SMOOTH",
"32 114 OFFCURVE",
"140 -10 OFFCURVE",
"303 -10 CURVE SMOOTH"
);
},
{
closed = 1;
nodes = (
"146 301 LINE",
"153 390 OFFCURVE",
"220 451 OFFCURVE",
"303 451 CURVE SMOOTH",
"387 451 OFFCURVE",
"453 390 OFFCURVE",
"462 301 CURVE"
);
},
{
closed = 1;
nodes = (
"452 615 OFFCURVE",
"477 713 OFFCURVE",
"477 730 CURVE",
"414 730 LINE",
"414 726 OFFCURVE",
"409 681 OFFCURVE",
"360 681 CURVE SMOOTH",
"311 681 OFFCURVE",
"288 725 OFFCURVE",
"229 725 CURVE SMOOTH",
"146 725 OFFCURVE",
"122 631 OFFCURVE",
"122 610 CURVE",
"184 610 LINE",
"184 614 OFFCURVE",
"188 658 OFFCURVE",
"233 658 CURVE SMOOTH",
"276 658 OFFCURVE",
"302 615 OFFCURVE",
"363 615 CURVE SMOOTH"
);
}
);
width = 595;
}
);
unicode = 1EBD;
},
{
glyphname = exclam;
layers = (
{
layerId = "AC509B01-5F4C-4AA2-97FB-92B74F0D1424";
name = Bold;
paths = (
{
closed = 1;
nodes = (
"192 253 LINE",
"192 717 LINE",
"82 717 LINE",
"82 253 LINE"
);
},
{
closed = 1;
nodes = (
"192 0 LINE",
"192 137 LINE",
"82 137 LINE",
"82 0 LINE"
);
}
);
width = 272;
}
);
unicode = 0021;
},
{
glyphname = exclamdown;
layers = (
{
layerId = "AC509B01-5F4C-4AA2-97FB-92B74F0D1424";
name = Bold;
paths = (
{
closed = 1;
nodes = (
"82 460 LINE",
"82 -4 LINE",
"192 -4 LINE",
"192 460 LINE"
);
},
{
closed = 1;
nodes = (
"82 713 LINE",
"82 576 LINE",
"192 576 LINE",
"192 713 LINE"
);
}
);
width = 273;
}
);
unicode = 00A1;
},
{
glyphname = f;
layers = (
{
layerId = "AC509B01-5F4C-4AA2-97FB-92B74F0D1424";
name = Bold;
paths = (
{
closed = 1;
nodes = (
"207 0 LINE",
"207 377 LINE",
"340 377 LINE",
"340 462 LINE",
"207 462 LINE",
"207 534 LINE SMOOTH",
"207 607 OFFCURVE",
"235 647 OFFCURVE",
"287 647 CURVE SMOOTH",
"312 647 OFFCURVE",
"342 638 OFFCURVE",
"361 626 CURVE",
"385 708 LINE",
"349 728 OFFCURVE",
"306 740 OFFCURVE",
"264 740 CURVE SMOOTH",
"162 740 OFFCURVE",
"97 659 OFFCURVE",
"97 531 CURVE SMOOTH",
"97 462 LINE",
"27 462 LINE",
"27 377 LINE",
"97 377 LINE",
"97 0 LINE"
);
}
);
width = 368;
}
);
unicode = 0066;
},
{
glyphname = five;
lastChange = "2014-10-22 14:47:21 +0100";
layers = (
{
layerId = "AC509B01-5F4C-4AA2-97FB-92B74F0D1424";
name = Bold;
paths = (
{
closed = 1;
nodes = (
"243 456 OFFCURVE",
"204 441 OFFCURVE",
"181 416 CURVE",
"217 609 LINE",
"484 609 LINE",
"484 710 LINE",
"137 710 LINE SMOOTH",
"137 710 OFFCURVE",
"61 319 OFFCURVE",
"56 296 CURVE",
"154 296 LINE",
"181 337 OFFCURVE",
"229 361 OFFCURVE",
"279 361 CURVE SMOOTH",
"355 361 OFFCURVE",
"413 306 OFFCURVE",
"413 226 CURVE SMOOTH",
"413 144 OFFCURVE",
"353 88 OFFCURVE",
"271 88 CURVE SMOOTH",
"205 88 OFFCURVE",
"142 125 OFFCURVE",
"105 182 CURVE",
"39 119 LINE",
"82 40 OFFCURVE",
"168 -10 OFFCURVE",
"270 -10 CURVE SMOOTH",
"416 -10 OFFCURVE",
"526 87 OFFCURVE",
"526 229 CURVE SMOOTH",
"526 362 OFFCURVE",
"426 456 OFFCURVE",
"293 456 CURVE SMOOTH"
);
}
);
width = 568;
}
);
unicode = 0035;
},
{
glyphname = fiveeighths;
layers = (
{
layerId = "AC509B01-5F4C-4AA2-97FB-92B74F0D1424";
name = Bold;
paths = (
{
closed = 1;
nodes = (
"904 169 OFFCURVE",
"867 202 OFFCURVE",
"816 222 CURVE",
"857 236 OFFCURVE",
"888 265 OFFCURVE",
"888 304 CURVE SMOOTH",
"888 371 OFFCURVE",
"807 413 OFFCURVE",
"733 413 CURVE SMOOTH",
"658 413 OFFCURVE",
"577 370 OFFCURVE",
"577 303 CURVE SMOOTH",
"577 262 OFFCURVE",
"611 236 OFFCURVE",
"649 222 CURVE",
"603 204 OFFCURVE",
"561 173 OFFCURVE",
"561 121 CURVE SMOOTH",
"561 51 OFFCURVE",
"635 -5 OFFCURVE",
"732 -5 CURVE SMOOTH",
"825 -5 OFFCURVE",
"904 46 OFFCURVE",
"904 119 CURVE SMOOTH"
);
},
{
closed = 1;
nodes = (
"837 87 OFFCURVE",
"785 61 OFFCURVE",
"734 61 CURVE SMOOTH",
"684 61 OFFCURVE",
"629 85 OFFCURVE",
"629 125 CURVE SMOOTH",
"629 165 OFFCURVE",
"679 191 OFFCURVE",
"733 191 CURVE SMOOTH",
"783 191 OFFCURVE",
"837 167 OFFCURVE",
"837 126 CURVE SMOOTH"
);
},
{
closed = 1;
nodes = (
"644 329 OFFCURVE",
"686 349 OFFCURVE",
"733 349 CURVE SMOOTH",
"778 349 OFFCURVE",
"822 329 OFFCURVE",
"822 298 CURVE SMOOTH",
"822 266 OFFCURVE",
"774 246 OFFCURVE",
"733 246 CURVE SMOOTH",
"691 246 OFFCURVE",
"644 265 OFFCURVE",
"644 297 CURVE SMOOTH"
);
},
{
closed = 1;
nodes = (
"173 583 OFFCURVE",
"144 574 OFFCURVE",
"126 561 CURVE",
"153 664 LINE",
"339 664 LINE",
"339 730 LINE",
"104 730 LINE",
"95 677 OFFCURVE",
"61 550 OFFCURVE",
"48 486 CURVE",
"108 486 LINE",
"126 513 OFFCURVE",
"166 532 OFFCURVE",
"203 532 CURVE SMOOTH",
"249 532 OFFCURVE",
"300 506 OFFCURVE",
"300 453 CURVE SMOOTH",
"300 404 OFFCURVE",
"255 376 OFFCURVE",
"198 376 CURVE SMOOTH",
"146 376 OFFCURVE",
"104 395 OFFCURVE",
"78 427 CURVE",
"38 384 LINE",
"66 340 OFFCURVE",
"125 311 OFFCURVE",
"194 311 CURVE SMOOTH",
"292 311 OFFCURVE",
"368 368 OFFCURVE",
"368 451 CURVE SMOOTH",
"368 529 OFFCURVE",
"299 583 OFFCURVE",
"209 583 CURVE SMOOTH"
);
},
{
closed = 1;
nodes = (
"217 -6 LINE",
"483 342 LINE",
"763 671 LINE",
"711 716 LINE",
"450 373 LINE",
"166 40 LINE"
);
}
);
width = 943;
}
);
unicode = 215D;
},
{
glyphname = fivesuperior;
layers = (
{
layerId = "AC509B01-5F4C-4AA2-97FB-92B74F0D1424";
name = Bold;
paths = (
{
closed = 1;
nodes = (
"164 583 OFFCURVE",
"135 574 OFFCURVE",
"117 561 CURVE",
"144 664 LINE",
"330 664 LINE",
"330 730 LINE",
"95 730 LINE",
"86 677 OFFCURVE",
"52 550 OFFCURVE",
"39 486 CURVE",
"99 486 LINE",
"117 513 OFFCURVE",
"157 532 OFFCURVE",
"194 532 CURVE SMOOTH",
"240 532 OFFCURVE",
"291 506 OFFCURVE",
"291 453 CURVE SMOOTH",
"291 404 OFFCURVE",
"246 376 OFFCURVE",
"189 376 CURVE SMOOTH",
"137 376 OFFCURVE",
"95 395 OFFCURVE",
"69 427 CURVE",
"29 384 LINE",
"57 340 OFFCURVE",
"116 311 OFFCURVE",
"185 311 CURVE SMOOTH",
"283 311 OFFCURVE",
"359 368 OFFCURVE",
"359 451 CURVE SMOOTH",
"359 529 OFFCURVE",
"290 583 OFFCURVE",
"200 583 CURVE SMOOTH"
);
}
);
width = 389;
}
);
unicode = 2075;
},
{
glyphname = fraction;
layers = (
{
layerId = "AC509B01-5F4C-4AA2-97FB-92B74F0D1424";
name = Bold;
paths = (
{
closed = 1;
nodes = (
"-155 -6 LINE",
"111 342 LINE",
"391 671 LINE",
"339 716 LINE",
"78 373 LINE",
"-206 40 LINE"
);
}
);
width = 184;
}
);
unicode = 2044;
},
{
glyphname = fiveinferior;
layers = (
{
layerId = "AC509B01-5F4C-4AA2-97FB-92B74F0D1424";
name = Bold;
paths = (
{
closed = 1;
nodes = (
"163 266 OFFCURVE",
"134 257 OFFCURVE",
"116 244 CURVE",
"143 347 LINE",
"329 347 LINE",
"329 414 LINE",
"94 414 LINE",
"85 361 OFFCURVE",
"51 233 OFFCURVE",
"38 169 CURVE",
"98 169 LINE",
"116 196 OFFCURVE",
"156 215 OFFCURVE",
"193 215 CURVE SMOOTH",
"239 215 OFFCURVE",
"290 189 OFFCURVE",
"290 136 CURVE SMOOTH",
"290 87 OFFCURVE",
"245 58 OFFCURVE",
"188 58 CURVE SMOOTH",
"136 58 OFFCURVE",
"94 79 OFFCURVE",
"68 110 CURVE",
"28 67 LINE",
"56 23 OFFCURVE",
"115 -5 OFFCURVE",
"184 -5 CURVE SMOOTH",
"282 -5 OFFCURVE",
"358 52 OFFCURVE",
"358 133 CURVE SMOOTH",
"358 212 OFFCURVE",
"289 266 OFFCURVE",
"199 266 CURVE SMOOTH"
);
}
);
width = 388;
}
);
unicode = 2085;
},
{
glyphname = florin;
layers = (
{
layerId = "AC509B01-5F4C-4AA2-97FB-92B74F0D1424";
name = Bold;
paths = (
{
closed = 1;
nodes = (
"247 -191 OFFCURVE",
"327 -119 OFFCURVE",
"327 -16 CURVE SMOOTH",
"327 377 LINE",
"461 377 LINE",
"461 462 LINE",
"327 462 LINE",
"327 534 LINE SMOOTH",
"327 607 OFFCURVE",
"355 647 OFFCURVE",
"407 647 CURVE SMOOTH",
"433 647 OFFCURVE",
"462 638 OFFCURVE",
"482 626 CURVE",
"506 708 LINE",
"470 728 OFFCURVE",
"426 740 OFFCURVE",
"384 740 CURVE SMOOTH",
"283 740 OFFCURVE",
"217 659 OFFCURVE",
"217 531 CURVE SMOOTH",
"217 462 LINE",
"148 462 LINE",
"148 377 LINE",
"217 377 LINE",
"217 -19 LINE SMOOTH",
"217 -63 OFFCURVE",
"182 -95 OFFCURVE",
"143 -95 CURVE SMOOTH",
"120 -95 OFFCURVE",
"96 -88 OFFCURVE",
"79 -72 CURVE",
"30 -146 LINE",
"64 -177 OFFCURVE",
"109 -191 OFFCURVE",
"156 -191 CURVE SMOOTH"
);
}
);
width = 540;
}
);
unicode = 0192;
},
{
glyphname = four;
lastChange = "2014-10-22 14:47:41 +0100";
layers = (
{
layerId = "AC509B01-5F4C-4AA2-97FB-92B74F0D1424";
name = Bold;
paths = (
{
closed = 1;
nodes = (
"452 0 LINE",
"452 172 LINE",
"540 172 LINE",
"540 271 LINE",
"452 271 LINE",
"452 710 LINE",
"377 710 LINE",
"25 270 LINE",
"25 172 LINE",
"342 172 LINE",
"342 0 LINE"
);
},
{
closed = 1;
nodes = (
"354 543 LINE",
"354 271 LINE",
"137 271 LINE"
);
}
);
width = 577;
}
);
unicode = 0034;
},
{
glyphname = fourinferior;
layers = (
{
layerId = "AC509B01-5F4C-4AA2-97FB-92B74F0D1424";
name = Bold;
paths = (
{
closed = 1;
nodes = (
"312 0 LINE",
"312 97 LINE",
"372 97 LINE",
"372 162 LINE",
"312 162 LINE",
"312 414 LINE",
"266 414 LINE",
"22 161 LINE",
"22 97 LINE",
"246 97 LINE",
"246 0 LINE"
);
},
{
closed = 1;
nodes = (
"248 329 LINE",
"248 162 LINE",
"89 162 LINE"
);
}
);
width = 400;
}
);
unicode = 2084;
},
{
glyphname = foursuperior;
layers = (
{
layerId = "AC509B01-5F4C-4AA2-97FB-92B74F0D1424";
name = Bold;
paths = (
{
closed = 1;
nodes = (
"312 318 LINE",
"312 413 LINE",
"372 413 LINE",
"372 479 LINE",
"312 479 LINE",
"312 730 LINE",
"266 730 LINE",
"22 478 LINE",
"22 413 LINE",
"246 413 LINE",
"246 318 LINE"
);
},
{
closed = 1;
nodes = (
"248 646 LINE",
"248 479 LINE",
"89 479 LINE"
);
}
);
width = 400;
}
);
unicode = 2074;
},
{
glyphname = g;
layers = (
{
layerId = "AC509B01-5F4C-4AA2-97FB-92B74F0D1424";
name = Bold;
paths = (
{
closed = 1;
nodes = (
"344 -5 OFFCURVE",
"415 32 OFFCURVE",
"452 95 CURVE",
"452 15 LINE SMOOTH",
"452 -91 OFFCURVE",
"375 -139 OFFCURVE",
"284 -139 CURVE SMOOTH",
"213 -139 OFFCURVE",
"145 -109 OFFCURVE",
"105 -53 CURVE",
"43 -111 LINE",
"96 -181 OFFCURVE",
"168 -223 OFFCURVE",
"284 -223 CURVE SMOOTH",
"442 -223 OFFCURVE",
"562 -136 OFFCURVE",
"562 15 CURVE SMOOTH",
"562 523 LINE",
"465 523 LINE",
"465 424 LINE",
"424 488 OFFCURVE",
"361 532 OFFCURVE",
"276 532 CURVE SMOOTH",
"133 532 OFFCURVE",
"34 410 OFFCURVE",
"34 261 CURVE SMOOTH",
"34 120 OFFCURVE",
"131 -5 OFFCURVE",
"272 -5 CURVE SMOOTH"
);
},
{
closed = 1;
nodes = (
"216 84 OFFCURVE",
"145 163 OFFCURVE",
"145 258 CURVE SMOOTH",
"145 348 OFFCURVE",
"205 438 OFFCURVE",
"300 438 CURVE SMOOTH",
"363 438 OFFCURVE",
"426 391 OFFCURVE",
"452 325 CURVE",
"452 188 LINE",
"436 133 OFFCURVE",
"374 84 OFFCURVE",
"308 84 CURVE SMOOTH"
);
}
);
width = 627;
}
);
unicode = 0067;
},
{
glyphname = gbreve;
layers = (
{
layerId = "AC509B01-5F4C-4AA2-97FB-92B74F0D1424";
name = Bold;
paths = (
{
closed = 1;
nodes = (
"344 -5 OFFCURVE",
"415 32 OFFCURVE",
"452 95 CURVE",
"452 15 LINE SMOOTH",
"452 -91 OFFCURVE",
"375 -139 OFFCURVE",
"284 -139 CURVE SMOOTH",
"213 -139 OFFCURVE",
"145 -109 OFFCURVE",
"105 -53 CURVE",
"43 -111 LINE",
"96 -181 OFFCURVE",
"168 -223 OFFCURVE",
"284 -223 CURVE SMOOTH",
"442 -223 OFFCURVE",
"562 -136 OFFCURVE",
"562 15 CURVE SMOOTH",
"562 523 LINE",
"465 523 LINE",
"465 424 LINE",
"424 488 OFFCURVE",
"361 532 OFFCURVE",
"276 532 CURVE SMOOTH",
"133 532 OFFCURVE",
"34 410 OFFCURVE",
"34 261 CURVE SMOOTH",
"34 120 OFFCURVE",
"131 -5 OFFCURVE",
"272 -5 CURVE SMOOTH"
);
},
{
closed = 1;
nodes = (
"216 84 OFFCURVE",
"145 163 OFFCURVE",
"145 258 CURVE SMOOTH",
"145 348 OFFCURVE",
"205 438 OFFCURVE",
"300 438 CURVE SMOOTH",
"363 438 OFFCURVE",
"426 391 OFFCURVE",
"452 325 CURVE",
"452 188 LINE",
"436 133 OFFCURVE",
"374 84 OFFCURVE",
"308 84 CURVE SMOOTH"
);
},
{
closed = 1;
nodes = (
"304 659 OFFCURVE",
"277 692 OFFCURVE",
"277 730 CURVE",
"216 730 LINE",
"216 660 OFFCURVE",
"267 608 OFFCURVE",
"335 608 CURVE SMOOTH",
"403 608 OFFCURVE",
"454 660 OFFCURVE",
"454 730 CURVE",
"393 730 LINE",
"389 689 OFFCURVE",
"364 659 OFFCURVE",
"335 659 CURVE SMOOTH"
);
}
);
width = 627;
}
);
unicode = 011F;
},
{
glyphname = gcircumflex;
layers = (
{
layerId = "AC509B01-5F4C-4AA2-97FB-92B74F0D1424";
name = Bold;
paths = (
{
closed = 1;
nodes = (
"249 607 LINE",
"334 670 LINE",
"419 607 LINE",
"478 635 LINE",
"374 730 LINE",
"295 730 LINE",
"191 635 LINE"
);
},
{
closed = 1;
nodes = (
"344 -5 OFFCURVE",
"415 32 OFFCURVE",
"452 95 CURVE",
"452 15 LINE SMOOTH",
"452 -91 OFFCURVE",
"375 -139 OFFCURVE",
"284 -139 CURVE SMOOTH",
"213 -139 OFFCURVE",
"145 -109 OFFCURVE",
"105 -53 CURVE",
"43 -111 LINE",
"96 -181 OFFCURVE",
"168 -223 OFFCURVE",
"284 -223 CURVE SMOOTH",
"442 -223 OFFCURVE",
"562 -136 OFFCURVE",
"562 15 CURVE SMOOTH",
"562 523 LINE",
"465 523 LINE",
"465 424 LINE",
"424 488 OFFCURVE",
"361 532 OFFCURVE",
"276 532 CURVE SMOOTH",
"133 532 OFFCURVE",
"34 410 OFFCURVE",
"34 261 CURVE SMOOTH",
"34 120 OFFCURVE",
"131 -5 OFFCURVE",
"272 -5 CURVE SMOOTH"
);
},
{
closed = 1;
nodes = (
"216 84 OFFCURVE",
"145 163 OFFCURVE",
"145 258 CURVE SMOOTH",
"145 348 OFFCURVE",
"205 438 OFFCURVE",
"300 438 CURVE SMOOTH",
"363 438 OFFCURVE",
"426 391 OFFCURVE",
"452 325 CURVE",
"452 188 LINE",
"436 133 OFFCURVE",
"374 84 OFFCURVE",
"308 84 CURVE SMOOTH"
);
}
);
width = 627;
}
);
unicode = 011D;
},
{
glyphname = gcommaaccent;
layers = (
{
layerId = "AC509B01-5F4C-4AA2-97FB-92B74F0D1424";
name = Bold;
paths = (
{
closed = 1;
nodes = (
"450 730 LINE",
"345 730 LINE",
"288 620 LINE",
"360 598 LINE"
);
},
{
closed = 1;
nodes = (
"344 -5 OFFCURVE",
"415 32 OFFCURVE",
"452 95 CURVE",
"452 15 LINE SMOOTH",
"452 -91 OFFCURVE",
"375 -139 OFFCURVE",
"284 -139 CURVE SMOOTH",
"213 -139 OFFCURVE",
"145 -109 OFFCURVE",
"105 -53 CURVE",
"43 -111 LINE",
"96 -181 OFFCURVE",
"168 -223 OFFCURVE",
"284 -223 CURVE SMOOTH",
"442 -223 OFFCURVE",
"562 -136 OFFCURVE",
"562 15 CURVE SMOOTH",
"562 523 LINE",
"465 523 LINE",
"465 424 LINE",
"424 488 OFFCURVE",
"361 532 OFFCURVE",
"276 532 CURVE SMOOTH",
"133 532 OFFCURVE",
"34 410 OFFCURVE",
"34 261 CURVE SMOOTH",
"34 120 OFFCURVE",
"131 -5 OFFCURVE",
"272 -5 CURVE SMOOTH"
);
},
{
closed = 1;
nodes = (
"216 84 OFFCURVE",
"145 163 OFFCURVE",
"145 258 CURVE SMOOTH",
"145 348 OFFCURVE",
"205 438 OFFCURVE",
"300 438 CURVE SMOOTH",
"363 438 OFFCURVE",
"426 391 OFFCURVE",
"452 325 CURVE",
"452 188 LINE",
"436 133 OFFCURVE",
"374 84 OFFCURVE",
"308 84 CURVE SMOOTH"
);
}
);
width = 627;
}
);
unicode = 0123;
},
{
glyphname = gdotaccent;
layers = (
{
layerId = "AC509B01-5F4C-4AA2-97FB-92B74F0D1424";
name = Bold;
paths = (
{
closed = 1;
nodes = (
"344 -5 OFFCURVE",
"415 32 OFFCURVE",
"452 95 CURVE",
"452 15 LINE SMOOTH",
"452 -91 OFFCURVE",
"375 -139 OFFCURVE",
"284 -139 CURVE SMOOTH",
"213 -139 OFFCURVE",
"145 -109 OFFCURVE",
"105 -53 CURVE",
"43 -111 LINE",
"96 -181 OFFCURVE",
"168 -223 OFFCURVE",
"284 -223 CURVE SMOOTH",
"442 -223 OFFCURVE",
"562 -136 OFFCURVE",
"562 15 CURVE SMOOTH",
"562 523 LINE",
"465 523 LINE",
"465 424 LINE",
"424 488 OFFCURVE",
"361 532 OFFCURVE",
"276 532 CURVE SMOOTH",
"133 532 OFFCURVE",
"34 410 OFFCURVE",
"34 261 CURVE SMOOTH",
"34 120 OFFCURVE",
"131 -5 OFFCURVE",
"272 -5 CURVE SMOOTH"
);
},
{
closed = 1;
nodes = (
"216 84 OFFCURVE",
"145 163 OFFCURVE",
"145 258 CURVE SMOOTH",
"145 348 OFFCURVE",
"205 438 OFFCURVE",
"300 438 CURVE SMOOTH",
"363 438 OFFCURVE",
"426 391 OFFCURVE",
"452 325 CURVE",
"452 188 LINE",
"436 133 OFFCURVE",
"374 84 OFFCURVE",
"308 84 CURVE SMOOTH"
);
},
{
closed = 1;
nodes = (
"384 615 LINE",
"384 730 LINE",
"285 730 LINE",
"285 615 LINE"
);
}
);
width = 627;
}
);
unicode = 0121;
},
{
glyphname = germandbls;
layers = (
{
layerId = "AC509B01-5F4C-4AA2-97FB-92B74F0D1424";
name = Bold;
paths = (
{
closed = 1;
nodes = (
"242 -6 LINE",
"398 -2 OFFCURVE",
"522 64 OFFCURVE",
"522 209 CURVE SMOOTH",
"522 304 OFFCURVE",
"468 380 OFFCURVE",
"377 402 CURVE",
"428 418 OFFCURVE",
"471 481 OFFCURVE",
"471 551 CURVE SMOOTH",
"471 650 OFFCURVE",
"388 714 OFFCURVE",
"279 714 CURVE SMOOTH",
"155 714 OFFCURVE",
"64 633 OFFCURVE",
"64 520 CURVE SMOOTH",
"64 0 LINE",
"169 0 LINE",
"169 501 LINE SMOOTH",
"169 560 OFFCURVE",
"198 620 OFFCURVE",
"272 620 CURVE SMOOTH",
"317 620 OFFCURVE",
"366 596 OFFCURVE",
"366 534 CURVE SMOOTH",
"366 481 OFFCURVE",
"329 445 OFFCURVE",
"273 445 CURVE SMOOTH",
"254 445 LINE",
"254 345 LINE",
"274 345 LINE SMOOTH",
"350 345 OFFCURVE",
"408 298 OFFCURVE",
"408 220 CURVE SMOOTH",
"408 134 OFFCURVE",
"338 97 OFFCURVE",
"242 95 CURVE"
);
}
);
width = 555;
}
);
unicode = 00DF;
},
{
glyphname = greater;
layers = (
{
layerId = "AC509B01-5F4C-4AA2-97FB-92B74F0D1424";
name = Bold;
paths = (
{
closed = 1;
nodes = (
"476 284 LINE",
"55 538 LINE",
"55 421 LINE",
"316 259 LINE",
"55 101 LINE",
"55 -21 LINE",
"476 229 LINE"
);
}
);
width = 508;
}
);
unicode = 003E;
},
{
glyphname = guillemotleft;
layers = (
{
layerId = "AC509B01-5F4C-4AA2-97FB-92B74F0D1424";
name = Bold;
paths = (
{
closed = 1;
nodes = (
"39 229 LINE",
"298 54 LINE",
"298 144 LINE",
"127 259 LINE",
"298 378 LINE",
"298 469 LINE",
"39 284 LINE"
);
},
{
closed = 1;
nodes = (
"305 229 LINE",
"563 54 LINE",
"563 144 LINE",
"393 259 LINE",
"563 378 LINE",
"563 469 LINE",
"305 284 LINE"
);
}
);
width = 623;
}
);
unicode = 00AB;
},
{
glyphname = guillemotright;
layers = (
{
layerId = "AC509B01-5F4C-4AA2-97FB-92B74F0D1424";
name = Bold;
paths = (
{
closed = 1;
nodes = (
"583 284 LINE",
"325 469 LINE",
"325 378 LINE",
"495 259 LINE",
"325 144 LINE",
"325 54 LINE",
"583 229 LINE"
);
},
{
closed = 1;
nodes = (
"318 284 LINE",
"60 469 LINE",
"60 378 LINE",
"230 259 LINE",
"60 144 LINE",
"60 54 LINE",
"318 229 LINE"
);
}
);
width = 623;
}
);
unicode = 00BB;
},
{
glyphname = guilsinglleft;
layers = (
{
layerId = "AC509B01-5F4C-4AA2-97FB-92B74F0D1424";
name = Bold;
paths = (
{
closed = 1;
nodes = (
"39 229 LINE",
"298 54 LINE",
"298 144 LINE",
"127 259 LINE",
"298 378 LINE",
"298 469 LINE",
"39 284 LINE"
);
}
);
width = 357;
}
);
unicode = 2039;
},
{
glyphname = guilsinglright;
layers = (
{
layerId = "AC509B01-5F4C-4AA2-97FB-92B74F0D1424";
name = Bold;
paths = (
{
closed = 1;
nodes = (
"318 284 LINE",
"60 469 LINE",
"60 378 LINE",
"230 259 LINE",
"60 144 LINE",
"60 54 LINE",
"318 229 LINE"
);
}
);
width = 357;
}
);
unicode = 203A;
},
{
glyphname = h;
layers = (
{
layerId = "AC509B01-5F4C-4AA2-97FB-92B74F0D1424";
name = Bold;
paths = (
{
closed = 1;
nodes = (
"534 319 LINE SMOOTH",
"534 433 OFFCURVE",
"498 532 OFFCURVE",
"369 532 CURVE SMOOTH",
"288 532 OFFCURVE",
"215 489 OFFCURVE",
"174 418 CURVE",
"174 730 LINE",
"64 730 LINE",
"64 0 LINE",
"174 0 LINE",
"174 311 LINE",
"196 383 OFFCURVE",
"265 434 OFFCURVE",
"324 434 CURVE SMOOTH",
"388 434 OFFCURVE",
"424 388 OFFCURVE",
"424 293 CURVE SMOOTH",
"424 0 LINE",
"534 0 LINE"
);
}
);
width = 594;
}
);
unicode = 0068;
},
{
glyphname = hbar;
layers = (
{
layerId = "AC509B01-5F4C-4AA2-97FB-92B74F0D1424";
name = Bold;
paths = (
{
closed = 1;
nodes = (
"534 319 LINE SMOOTH",
"534 433 OFFCURVE",
"498 532 OFFCURVE",
"369 532 CURVE SMOOTH",
"288 532 OFFCURVE",
"215 489 OFFCURVE",
"174 418 CURVE",
"174 604 LINE",
"295 604 LINE",
"295 672 LINE",
"174 672 LINE",
"174 730 LINE",
"64 730 LINE",
"64 672 LINE",
"14 672 LINE",
"14 604 LINE",
"64 604 LINE",
"64 0 LINE",
"174 0 LINE",
"174 311 LINE",
"196 383 OFFCURVE",
"265 434 OFFCURVE",
"324 434 CURVE SMOOTH",
"388 434 OFFCURVE",
"424 388 OFFCURVE",
"424 293 CURVE SMOOTH",
"424 0 LINE",
"534 0 LINE"
);
}
);
width = 594;
}
);
unicode = 0127;
},
{
glyphname = hcircumflex;
layers = (
{
layerId = "AC509B01-5F4C-4AA2-97FB-92B74F0D1424";
name = Bold;
paths = (
{
closed = 1;
nodes = (
"286 608 LINE",
"363 670 LINE",
"440 608 LINE",
"493 635 LINE",
"399 729 LINE",
"328 729 LINE",
"234 635 LINE"
);
},
{
closed = 1;
nodes = (
"534 319 LINE SMOOTH",
"534 433 OFFCURVE",
"498 532 OFFCURVE",
"369 532 CURVE SMOOTH",
"288 532 OFFCURVE",
"215 489 OFFCURVE",
"174 418 CURVE",
"174 730 LINE",
"64 730 LINE",
"64 0 LINE",
"174 0 LINE",
"174 311 LINE",
"196 383 OFFCURVE",
"265 434 OFFCURVE",
"324 434 CURVE SMOOTH",
"388 434 OFFCURVE",
"424 388 OFFCURVE",
"424 293 CURVE SMOOTH",
"424 0 LINE",
"534 0 LINE"
);
}
);
width = 594;
}
);
unicode = 0125;
},
{
glyphname = hyphen;
layers = (
{
layerId = "AC509B01-5F4C-4AA2-97FB-92B74F0D1424";
name = Bold;
paths = (
{
closed = 1;
nodes = (
"359 224 LINE",
"359 323 LINE",
"60 323 LINE",
"60 224 LINE"
);
}
);
width = 419;
}
);
unicode = 002D;
},
{
glyphname = i;
layers = (
{
layerId = "AC509B01-5F4C-4AA2-97FB-92B74F0D1424";
name = Bold;
paths = (
{
closed = 1;
nodes = (
"174 0 LINE",
"174 523 LINE",
"64 523 LINE",
"64 0 LINE"
);
},
{
closed = 1;
nodes = (
"174 609 LINE",
"174 730 LINE",
"64 730 LINE",
"64 609 LINE"
);
}
);
width = 239;
}
);
unicode = 0069;
},
{
glyphname = iacute;
layers = (
{
layerId = "AC509B01-5F4C-4AA2-97FB-92B74F0D1424";
name = Bold;
paths = (
{
closed = 1;
nodes = (
"234 730 LINE",
"129 730 LINE",
"72 620 LINE",
"144 598 LINE"
);
},
{
closed = 1;
nodes = (
"174 0 LINE",
"174 523 LINE",
"64 523 LINE",
"64 0 LINE"
);
}
);
width = 239;
}
);
unicode = 00ED;
},
{
glyphname = ibreve;
layers = (
{
layerId = "AC509B01-5F4C-4AA2-97FB-92B74F0D1424";
name = Bold;
paths = (
{
closed = 1;
nodes = (
"174 0 LINE",
"174 523 LINE",
"64 523 LINE",
"64 0 LINE"
);
},
{
closed = 1;
nodes = (
"89 659 OFFCURVE",
"62 692 OFFCURVE",
"62 730 CURVE",
"1 730 LINE",
"1 660 OFFCURVE",
"52 608 OFFCURVE",
"120 608 CURVE SMOOTH",
"188 608 OFFCURVE",
"239 660 OFFCURVE",
"239 730 CURVE",
"178 730 LINE",
"174 689 OFFCURVE",
"149 659 OFFCURVE",
"120 659 CURVE SMOOTH"
);
}
);
width = 239;
}
);
unicode = 012D;
},
{
glyphname = icircumflex;
layers = (
{
layerId = "AC509B01-5F4C-4AA2-97FB-92B74F0D1424";
name = Bold;
paths = (
{
closed = 1;
nodes = (
"34 607 LINE",
"119 670 LINE",
"204 607 LINE",
"263 635 LINE",
"159 730 LINE",
"80 730 LINE",
"-24 635 LINE"
);
},
{
closed = 1;
nodes = (
"174 0 LINE",
"174 523 LINE",
"64 523 LINE",
"64 0 LINE"
);
}
);
width = 239;
}
);
unicode = 00EE;
},
{
glyphname = idieresis;
layers = (
{
layerId = "AC509B01-5F4C-4AA2-97FB-92B74F0D1424";
name = Bold;
paths = (
{
closed = 1;
nodes = (
"77 615 LINE",
"77 725 LINE",
"-15 725 LINE",
"-15 615 LINE"
);
},
{
closed = 1;
nodes = (
"254 615 LINE",
"254 725 LINE",
"162 725 LINE",
"162 615 LINE"
);
},
{
closed = 1;
nodes = (
"174 0 LINE",
"174 523 LINE",
"64 523 LINE",
"64 0 LINE"
);
}
);
width = 239;
}
);
unicode = 00EF;
},
{
glyphname = igrave;
layers = (
{
layerId = "AC509B01-5F4C-4AA2-97FB-92B74F0D1424";
name = Bold;
paths = (
{
closed = 1;
nodes = (
"174 0 LINE",
"174 523 LINE",
"64 523 LINE",
"64 0 LINE"
);
},
{
closed = 1;
nodes = (
"96 598 LINE",
"166 620 LINE",
"109 730 LINE",
"4 730 LINE"
);
}
);
width = 239;
}
);
unicode = 00EC;
},
{
glyphname = ij;
layers = (
{
layerId = "AC509B01-5F4C-4AA2-97FB-92B74F0D1424";
name = Bold;
paths = (
{
closed = 1;
nodes = (
"174 0 LINE",
"174 523 LINE",
"64 523 LINE",
"64 0 LINE"
);
},
{
closed = 1;
nodes = (
"174 609 LINE",
"174 730 LINE",
"64 730 LINE",
"64 609 LINE"
);
},
{
closed = 1;
nodes = (
"335 -191 OFFCURVE",
"413 -117 OFFCURVE",
"413 -11 CURVE SMOOTH",
"413 523 LINE",
"303 523 LINE",
"303 -19 LINE SMOOTH",
"303 -63 OFFCURVE",
"268 -95 OFFCURVE",
"229 -95 CURVE SMOOTH",
"206 -95 OFFCURVE",
"182 -88 OFFCURVE",
"165 -72 CURVE",
"116 -146 LINE",
"150 -177 OFFCURVE",
"194 -191 OFFCURVE",
"242 -191 CURVE SMOOTH"
);
},
{
closed = 1;
nodes = (
"413 609 LINE",
"413 730 LINE",
"303 730 LINE",
"303 609 LINE"
);
}
);
width = 478;
}
);
unicode = 0133;
},
{
glyphname = j;
layers = (
{
layerId = "AC509B01-5F4C-4AA2-97FB-92B74F0D1424";
name = Bold;
paths = (
{
closed = 1;
nodes = (
"96 -191 OFFCURVE",
"174 -117 OFFCURVE",
"174 -11 CURVE SMOOTH",
"174 523 LINE",
"64 523 LINE",
"64 -19 LINE SMOOTH",
"64 -63 OFFCURVE",
"29 -95 OFFCURVE",
"-10 -95 CURVE SMOOTH",
"-33 -95 OFFCURVE",
"-57 -88 OFFCURVE",
"-74 -72 CURVE",
"-123 -146 LINE",
"-89 -177 OFFCURVE",
"-45 -191 OFFCURVE",
"3 -191 CURVE SMOOTH"
);
},
{
closed = 1;
nodes = (
"174 609 LINE",
"174 730 LINE",
"64 730 LINE",
"64 609 LINE"
);
}
);
width = 239;
}
);
unicode = 006A;
},
{
glyphname = imacron;
layers = (
{
layerId = "AC509B01-5F4C-4AA2-97FB-92B74F0D1424";
name = Bold;
paths = (
{
closed = 1;
nodes = (
"174 0 LINE",
"174 523 LINE",
"64 523 LINE",
"64 0 LINE"
);
},
{
closed = 1;
nodes = (
"269 644 LINE",
"269 714 LINE",
"-27 714 LINE",
"-27 644 LINE"
);
}
);
width = 239;
}
);
unicode = 012B;
},
{
glyphname = iogonek;
layers = (
{
layerId = "AC509B01-5F4C-4AA2-97FB-92B74F0D1424";
name = Bold;
paths = (
{
closed = 1;
nodes = (
"152 -133 LINE",
"112 -129 OFFCURVE",
"93 -114 OFFCURVE",
"93 -91 CURVE SMOOTH",
"93 -63 OFFCURVE",
"118 -34 OFFCURVE",
"175 0 CURVE",
"175 523 LINE",
"65 523 LINE",
"65 0 LINE",
"111 0 LINE",
"57 -35 OFFCURVE",
"32 -71 OFFCURVE",
"32 -106 CURVE SMOOTH",
"32 -145 OFFCURVE",
"64 -178 OFFCURVE",
"127 -188 CURVE"
);
},
{
closed = 1;
nodes = (
"175 609 LINE",
"175 730 LINE",
"65 730 LINE",
"65 609 LINE"
);
}
);
width = 240;
}
);
unicode = 012F;
},
{
glyphname = itilde;
layers = (
{
layerId = "AC509B01-5F4C-4AA2-97FB-92B74F0D1424";
name = Bold;
paths = (
{
closed = 1;
nodes = (
"174 0 LINE",
"174 523 LINE",
"64 523 LINE",
"64 0 LINE"
);
},
{
closed = 1;
nodes = (
"271 615 OFFCURVE",
"296 713 OFFCURVE",
"296 730 CURVE",
"233 730 LINE",
"233 726 OFFCURVE",
"228 681 OFFCURVE",
"179 681 CURVE SMOOTH",
"130 681 OFFCURVE",
"107 725 OFFCURVE",
"48 725 CURVE SMOOTH",
"-35 725 OFFCURVE",
"-59 631 OFFCURVE",
"-59 610 CURVE",
"3 610 LINE",
"3 614 OFFCURVE",
"7 658 OFFCURVE",
"52 658 CURVE SMOOTH",
"95 658 OFFCURVE",
"121 615 OFFCURVE",
"182 615 CURVE SMOOTH"
);
}
);
width = 239;
}
);
unicode = 0129;
},
{
glyphname = j.alt;
layers = (
{
layerId = "AC509B01-5F4C-4AA2-97FB-92B74F0D1424";
name = Bold;
paths = (
{
closed = 1;
nodes = (
"64 -213 LINE",
"174 -213 LINE",
"174 517 LINE",
"64 517 LINE"
);
},
{
closed = 1;
nodes = (
"64 609 LINE",
"174 609 LINE",
"174 724 LINE",
"64 724 LINE"
);
}
);
width = 239;
}
);
},
{
glyphname = jcircumflex;
layers = (
{
layerId = "AC509B01-5F4C-4AA2-97FB-92B74F0D1424";
name = Bold;
paths = (
{
closed = 1;
nodes = (
"96 -191 OFFCURVE",
"174 -117 OFFCURVE",
"174 -11 CURVE SMOOTH",
"174 523 LINE",
"64 523 LINE",
"64 -19 LINE SMOOTH",
"64 -63 OFFCURVE",
"29 -95 OFFCURVE",
"-10 -95 CURVE SMOOTH",
"-33 -95 OFFCURVE",
"-57 -88 OFFCURVE",
"-74 -72 CURVE",
"-123 -146 LINE",
"-89 -177 OFFCURVE",
"-45 -191 OFFCURVE",
"3 -191 CURVE SMOOTH"
);
},
{
closed = 1;
nodes = (
"34 607 LINE",
"119 670 LINE",
"204 607 LINE",
"263 635 LINE",
"159 730 LINE",
"80 730 LINE",
"-24 635 LINE"
);
}
);
width = 239;
}
);
unicode = 0135;
},
{
glyphname = k;
layers = (
{
layerId = "AC509B01-5F4C-4AA2-97FB-92B74F0D1424";
name = Bold;
paths = (
{
closed = 1;
nodes = (
"546 0 LINE",
"332 303 LINE",
"534 522 LINE",
"415 522 LINE",
"174 267 LINE",
"174 730 LINE",
"64 730 LINE",
"64 0 LINE",
"174 0 LINE",
"174 159 LINE",
"261 241 LINE",
"428 0 LINE"
);
}
);
width = 546;
}
);
unicode = 006B;
},
{
glyphname = kcommaaccent;
layers = (
{
layerId = "AC509B01-5F4C-4AA2-97FB-92B74F0D1424";
name = Bold;
paths = (
{
closed = 1;
nodes = (
"208 -182 LINE",
"277 -182 OFFCURVE",
"327 -172 OFFCURVE",
"327 -115 CURVE SMOOTH",
"327 -48 LINE",
"237 -48 LINE",
"237 -112 LINE SMOOTH",
"237 -128 OFFCURVE",
"227 -134 OFFCURVE",
"208 -134 CURVE"
);
},
{
closed = 1;
nodes = (
"546 0 LINE",
"332 303 LINE",
"534 522 LINE",
"415 522 LINE",
"174 267 LINE",
"174 730 LINE",
"64 730 LINE",
"64 0 LINE",
"174 0 LINE",
"174 159 LINE",
"261 241 LINE",
"428 0 LINE"
);
}
);
width = 546;
}
);
unicode = 0137;
},
{
glyphname = kgreenlandic;
layers = (
{
layerId = "AC509B01-5F4C-4AA2-97FB-92B74F0D1424";
name = Bold;
paths = (
{
closed = 1;
nodes = (
"546 0 LINE",
"332 303 LINE",
"534 522 LINE",
"415 522 LINE",
"174 267 LINE",
"174 523 LINE",
"64 523 LINE",
"64 0 LINE",
"174 0 LINE",
"174 159 LINE",
"261 241 LINE",
"428 0 LINE"
);
}
);
width = 546;
}
);
unicode = 0138;
},
{
glyphname = l;
layers = (
{
layerId = "AC509B01-5F4C-4AA2-97FB-92B74F0D1424";
name = Bold;
paths = (
{
closed = 1;
nodes = (
"65 111 LINE SMOOTH",
"65 36 OFFCURVE",
"111 -8 OFFCURVE",
"186 -8 CURVE SMOOTH",
"221 -8 OFFCURVE",
"270 2 OFFCURVE",
"302 16 CURVE",
"286 105 LINE",
"269 97 OFFCURVE",
"247 92 OFFCURVE",
"232 92 CURVE SMOOTH",
"196 92 OFFCURVE",
"175 115 OFFCURVE",
"175 154 CURVE SMOOTH",
"175 730 LINE",
"65 730 LINE"
);
}
);
width = 298;
}
);
unicode = 006C;
},
{
glyphname = l.alt;
layers = (
{
layerId = "AC509B01-5F4C-4AA2-97FB-92B74F0D1424";
name = Bold;
paths = (
{
closed = 1;
nodes = (
"68 0 LINE",
"178 0 LINE",
"178 730 LINE",
"68 730 LINE"
);
}
);
width = 247;
}
);
},
{
glyphname = lacute;
layers = (
{
layerId = "AC509B01-5F4C-4AA2-97FB-92B74F0D1424";
name = Bold;
paths = (
{
closed = 1;
nodes = (
"230 900 LINE",
"125 900 LINE",
"68 790 LINE",
"140 768 LINE"
);
},
{
closed = 1;
nodes = (
"65 111 LINE SMOOTH",
"65 36 OFFCURVE",
"111 -8 OFFCURVE",
"186 -8 CURVE SMOOTH",
"221 -8 OFFCURVE",
"270 2 OFFCURVE",
"302 16 CURVE",
"286 105 LINE",
"269 97 OFFCURVE",
"247 92 OFFCURVE",
"232 92 CURVE SMOOTH",
"196 92 OFFCURVE",
"175 115 OFFCURVE",
"175 154 CURVE SMOOTH",
"175 730 LINE",
"65 730 LINE"
);
}
);
width = 298;
}
);
unicode = 013A;
},
{
glyphname = lcaron;
layers = (
{
layerId = "AC509B01-5F4C-4AA2-97FB-92B74F0D1424";
name = Bold;
paths = (
{
closed = 1;
nodes = (
"379 730 LINE",
"274 730 LINE",
"217 620 LINE",
"289 598 LINE"
);
},
{
closed = 1;
nodes = (
"65 111 LINE SMOOTH",
"65 36 OFFCURVE",
"111 -8 OFFCURVE",
"186 -8 CURVE SMOOTH",
"221 -8 OFFCURVE",
"270 2 OFFCURVE",
"302 16 CURVE",
"286 105 LINE",
"269 97 OFFCURVE",
"247 92 OFFCURVE",
"232 92 CURVE SMOOTH",
"196 92 OFFCURVE",
"175 115 OFFCURVE",
"175 154 CURVE SMOOTH",
"175 730 LINE",
"65 730 LINE"
);
}
);
width = 298;
}
);
unicode = 013E;
},
{
glyphname = lcommaaccent;
layers = (
{
layerId = "AC509B01-5F4C-4AA2-97FB-92B74F0D1424";
name = Bold;
paths = (
{
closed = 1;
nodes = (
"108 -182 LINE",
"177 -182 OFFCURVE",
"227 -172 OFFCURVE",
"227 -115 CURVE SMOOTH",
"227 -48 LINE",
"137 -48 LINE",
"137 -112 LINE SMOOTH",
"137 -128 OFFCURVE",
"127 -134 OFFCURVE",
"108 -134 CURVE"
);
},
{
closed = 1;
nodes = (
"65 111 LINE SMOOTH",
"65 36 OFFCURVE",
"111 -8 OFFCURVE",
"186 -8 CURVE SMOOTH",
"221 -8 OFFCURVE",
"270 2 OFFCURVE",
"302 16 CURVE",
"286 105 LINE",
"269 97 OFFCURVE",
"247 92 OFFCURVE",
"232 92 CURVE SMOOTH",
"196 92 OFFCURVE",
"175 115 OFFCURVE",
"175 154 CURVE SMOOTH",
"175 730 LINE",
"65 730 LINE"
);
}
);
width = 298;
}
);
unicode = 013C;
},
{
glyphname = ldot;
layers = (
{
layerId = "AC509B01-5F4C-4AA2-97FB-92B74F0D1424";
name = Bold;
paths = (
{
closed = 1;
nodes = (
"65 111 LINE SMOOTH",
"65 36 OFFCURVE",
"111 -8 OFFCURVE",
"186 -8 CURVE SMOOTH",
"221 -8 OFFCURVE",
"270 2 OFFCURVE",
"302 16 CURVE",
"286 105 LINE",
"269 97 OFFCURVE",
"247 92 OFFCURVE",
"232 92 CURVE SMOOTH",
"196 92 OFFCURVE",
"175 115 OFFCURVE",
"175 154 CURVE SMOOTH",
"175 730 LINE",
"65 730 LINE"
);
},
{
closed = 1;
nodes = (
"348 275 LINE",
"348 412 LINE",
"257 412 LINE",
"257 275 LINE"
);
}
);
width = 366;
}
);
unicode = 0140;
},
{
glyphname = less;
layers = (
{
layerId = "AC509B01-5F4C-4AA2-97FB-92B74F0D1424";
name = Bold;
paths = (
{
closed = 1;
nodes = (
"33 229 LINE",
"453 -21 LINE",
"453 101 LINE",
"192 259 LINE",
"453 421 LINE",
"453 538 LINE",
"33 284 LINE"
);
}
);
width = 508;
}
);
unicode = 003C;
},
{
glyphname = logicalnot;
layers = (
{
layerId = "AC509B01-5F4C-4AA2-97FB-92B74F0D1424";
name = Bold;
paths = (
{
closed = 1;
nodes = (
"69 387 LINE",
"69 288 LINE",
"445 288 LINE",
"445 113 LINE",
"539 113 LINE",
"539 387 LINE"
);
}
);
width = 606;
}
);
unicode = 00AC;
},
{
glyphname = lslash;
layers = (
{
layerId = "AC509B01-5F4C-4AA2-97FB-92B74F0D1424";
name = Bold;
paths = (
{
closed = 1;
nodes = (
"85 111 LINE SMOOTH",
"85 36 OFFCURVE",
"131 -8 OFFCURVE",
"206 -8 CURVE SMOOTH",
"241 -8 OFFCURVE",
"290 2 OFFCURVE",
"322 16 CURVE",
"306 105 LINE",
"289 97 OFFCURVE",
"267 92 OFFCURVE",
"252 92 CURVE SMOOTH",
"216 92 OFFCURVE",
"195 115 OFFCURVE",
"195 154 CURVE SMOOTH",
"195 385 LINE",
"312 463 LINE",
"282 523 LINE",
"195 465 LINE",
"195 730 LINE",
"85 730 LINE",
"85 393 LINE",
"0 337 LINE",
"29 276 LINE",
"85 313 LINE"
);
}
);
width = 322;
}
);
unicode = 0142;
},
{
glyphname = m;
layers = (
{
layerId = "AC509B01-5F4C-4AA2-97FB-92B74F0D1424";
name = Bold;
paths = (
{
closed = 1;
nodes = (
"865 319 LINE SMOOTH",
"865 433 OFFCURVE",
"831 532 OFFCURVE",
"707 532 CURVE SMOOTH",
"623 532 OFFCURVE",
"555 490 OFFCURVE",
"511 413 CURVE",
"498 481 OFFCURVE",
"448 532 OFFCURVE",
"361 532 CURVE SMOOTH",
"275 532 OFFCURVE",
"205 491 OFFCURVE",
"164 418 CURVE",
"164 523 LINE",
"64 523 LINE",
"64 0 LINE",
"174 0 LINE",
"174 311 LINE",
"197 384 OFFCURVE",
"255 434 OFFCURVE",
"316 434 CURVE SMOOTH",
"377 434 OFFCURVE",
"409 391 OFFCURVE",
"409 293 CURVE SMOOTH",
"409 0 LINE",
"519 0 LINE",
"519 310 LINE",
"541 383 OFFCURVE",
"599 434 OFFCURVE",
"661 434 CURVE SMOOTH",
"721 434 OFFCURVE",
"755 390 OFFCURVE",
"755 293 CURVE SMOOTH",
"755 0 LINE",
"865 0 LINE"
);
}
);
width = 924;
}
);
unicode = 006D;
},
{
glyphname = minus;
layers = (
{
layerId = "AC509B01-5F4C-4AA2-97FB-92B74F0D1424";
name = Bold;
paths = (
{
closed = 1;
nodes = (
"468 271 LINE",
"468 360 LINE",
"65 360 LINE",
"65 271 LINE"
);
}
);
width = 534;
}
);
unicode = 2212;
},
{
glyphname = mu;
layers = (
{
layerId = "AC509B01-5F4C-4AA2-97FB-92B74F0D1424";
name = Bold;
paths = (
{
closed = 1;
nodes = (
"74 -212 LINE",
"186 -212 LINE",
"177 58 LINE",
"189 25 OFFCURVE",
"222 -10 OFFCURVE",
"279 -10 CURVE SMOOTH",
"354 -10 OFFCURVE",
"427 49 OFFCURVE",
"454 106 CURVE",
"456 52 LINE",
"461 18 OFFCURVE",
"486 -2 OFFCURVE",
"526 -5 CURVE",
"539 -5 OFFCURVE",
"556 -4 OFFCURVE",
"580 0 CURVE",
"580 94 LINE",
"557 95 OFFCURVE",
"548 105 OFFCURVE",
"548 130 CURVE SMOOTH",
"548 523 LINE",
"438 523 LINE",
"438 197 LINE",
"407 124 OFFCURVE",
"346 84 OFFCURVE",
"286 84 CURVE SMOOTH",
"217 84 OFFCURVE",
"184 132 OFFCURVE",
"184 225 CURVE SMOOTH",
"184 523 LINE",
"74 523 LINE"
);
}
);
width = 623;
}
);
unicode = 00B5;
},
{
glyphname = multiply;
layers = (
{
layerId = "AC509B01-5F4C-4AA2-97FB-92B74F0D1424";
name = Bold;
paths = (
{
closed = 1;
nodes = (
"305 274 LINE",
"411 381 LINE",
"342 450 LINE",
"236 343 LINE",
"130 449 LINE",
"60 381 LINE",
"166 274 LINE",
"57 165 LINE",
"126 96 LINE",
"236 205 LINE",
"345 96 LINE",
"415 164 LINE"
);
}
);
width = 472;
}
);
unicode = 00D7;
},
{
glyphname = n;
layers = (
{
layerId = "AC509B01-5F4C-4AA2-97FB-92B74F0D1424";
name = Bold;
paths = (
{
closed = 1;
nodes = (
"534 319 LINE SMOOTH",
"534 434 OFFCURVE",
"503 532 OFFCURVE",
"377 532 CURVE SMOOTH",
"285 532 OFFCURVE",
"204 488 OFFCURVE",
"164 418 CURVE",
"164 523 LINE",
"64 523 LINE",
"64 0 LINE",
"174 0 LINE",
"174 311 LINE",
"197 382 OFFCURVE",
"267 434 OFFCURVE",
"331 434 CURVE SMOOTH",
"391 434 OFFCURVE",
"424 391 OFFCURVE",
"424 293 CURVE SMOOTH",
"424 0 LINE",
"534 0 LINE"
);
}
);
width = 594;
}
);
unicode = 006E;
},
{
glyphname = nacute;
layers = (
{
layerId = "AC509B01-5F4C-4AA2-97FB-92B74F0D1424";
name = Bold;
paths = (
{
closed = 1;
nodes = (
"422 730 LINE",
"317 730 LINE",
"260 620 LINE",
"332 598 LINE"
);
},
{
closed = 1;
nodes = (
"534 319 LINE SMOOTH",
"534 434 OFFCURVE",
"503 532 OFFCURVE",
"377 532 CURVE SMOOTH",
"285 532 OFFCURVE",
"204 488 OFFCURVE",
"164 418 CURVE",
"164 523 LINE",
"64 523 LINE",
"64 0 LINE",
"174 0 LINE",
"174 311 LINE",
"197 382 OFFCURVE",
"267 434 OFFCURVE",
"331 434 CURVE SMOOTH",
"391 434 OFFCURVE",
"424 391 OFFCURVE",
"424 293 CURVE SMOOTH",
"424 0 LINE",
"534 0 LINE"
);
}
);
width = 594;
}
);
unicode = 0144;
},
{
glyphname = napostrophe;
layers = (
{
layerId = "AC509B01-5F4C-4AA2-97FB-92B74F0D1424";
name = Bold;
paths = (
{
closed = 1;
nodes = (
"144 730 LINE",
"13 730 LINE",
"18 688 LINE",
"-18 620 LINE",
"53 598 LINE"
);
},
{
closed = 1;
nodes = (
"534 319 LINE SMOOTH",
"534 434 OFFCURVE",
"503 532 OFFCURVE",
"377 532 CURVE SMOOTH",
"285 532 OFFCURVE",
"204 488 OFFCURVE",
"164 418 CURVE",
"164 523 LINE",
"64 523 LINE",
"64 0 LINE",
"174 0 LINE",
"174 311 LINE",
"197 382 OFFCURVE",
"267 434 OFFCURVE",
"331 434 CURVE SMOOTH",
"391 434 OFFCURVE",
"424 391 OFFCURVE",
"424 293 CURVE SMOOTH",
"424 0 LINE",
"534 0 LINE"
);
}
);
width = 594;
}
);
unicode = 0149;
},
